<svg xmlns="http://www.w3.org/2000/svg" viewBox="0 0 1280 720"><defs><style>.cls-1{fill:#bcbec0;}.cls-2,.cls-5{fill:#232323;}.cls-3{fill:#f79449;}.cls-4{fill:#1c1c1c;}.cls-5{font-size:26.08px;font-family:Roboto-Light, Roboto;}.cls-6{letter-spacing:-0.01em;}.cls-7{letter-spacing:-0.01em;}.cls-8{letter-spacing:-0.01em;}.cls-9{letter-spacing:0em;}.cls-10{letter-spacing:-0.01em;}.cls-11{letter-spacing:0.01em;}.cls-12{letter-spacing:-0.04em;}.cls-13{fill:none;}</style></defs><title>404</title><g id="Layer_2" data-name="Layer 2"><g id="Layer_1-2" data-name="Layer 1"><path class="cls-1" d="M483.43,391.47h29.1v51.86h-29.1V504.1h-66.9V443.33H301.93l-4-41.17L416.53,216.5v-.6h66.9Zm-128.06,0h61.16V301.81l-1.19-.2L408,316.45Z"/><path class="cls-1" d="M741,398.2q0,51.66-27.52,80.86t-72.64,29.19q-45.52,0-73-29.19T540.24,398.2V321.8q0-51.66,27.32-80.86t72.84-29.19q45.12,0,72.84,29.29T741,321.8Zm-66.71-80.95q0-26.33-9-40.18T640.4,263.21q-16,0-24.75,13.86t-8.71,40.18v85.11q0,26.92,8.81,40.67t25,13.76q15.84,0,24.65-13.76t8.8-40.67Z"/><path class="cls-1" d="M952.94,391.47H982v51.86H952.94V504.1H886V443.33H771.43l-4-41.17L886,216.5v-.6h66.91Zm-128.07,0H886V301.81l-1.18-.2-7.33,14.84Z"/><path class="cls-2" d="M233.85,607l1.48-1.38L239.4,607Z"/><path class="cls-2" d="M1250.4,494a311.71,311.71,0,0,1-15.4-67.69,4,4,0,0,1,.54-2.48c1.56-2.34,3.23-4.6,5-6.82,2.64-3.36,2.41-4.92-.5-8.05a50.12,50.12,0,0,1-4.65-6.69c-.44-.68-.59-1.55-1-2.2a10.44,10.44,0,0,0-1.67-1.5,6,6,0,0,0-1,1.79c-.28,1.52-.32,3.09-.5,4.63a79.12,79.12,0,0,0,1,24.27c1.81,9.15,2.75,18.49,4.86,27.57,2.77,11.88,6.32,23.59,9.54,35.37.09.34.18.68.44,1.62-3-1-5.7-1.72-8.26-2.77-13.76-5.66-26.45-13.34-39.14-21-.77-.46-1.51-.95-2.27-1.42-3.1-1.94-3.09-1.93-2.08-5.52.9-3.19,1.76-6.38,2.7-9.81,10.38-1.77,16.19-9.42,20.33-18.53,7.17-15.76,8.68-32.07,3.08-48.69a29.07,29.07,0,0,0-3.24-6.79,6.52,6.52,0,0,1-3.74,2.15,27.26,27.26,0,0,1,3.32,6.37c4.85,13.95,3.64,27.88-1.37,41.57-2.31,6.34-5.63,12.11-11,16.42-6.65,5.32-13.65,4.42-18.74-2.38a20.55,20.55,0,0,1-1.82-2.79c-6.26-12.14-5.93-24.85-3.31-38.27.49.89.72,1.34,1,1.77,2.28,3.66,6.33,4.46,9.74,1.83a9.9,9.9,0,0,0,3.93-7.89c.2-6.41-4-9.61-10.29-7.56a31.31,31.31,0,0,1,9.1-12.53,7.46,7.46,0,0,1-1.79-3.71c-4.53,3.25-7.8,7.85-10.35,13.08-7.31,15-9.15,30.71-4.89,46.94,1.37,5.22,3.64,10.08,7.61,13.88a19.78,19.78,0,0,0,5.24,3.66c1.59.74,2,1.59,1.56,3.07-1.17,4.19-2.35,8.38-3.55,12.67-16.11-3.79-32.31-6.1-47.31-12.85a3,3,0,0,1-1.45-1.47q-8.84-24.09-17.56-48.22c-1-2.83-.65-3.64,2-5.14.25-.15.52-.29.78-.42,4.08-2.08,4.27-3.41,1.23-6.76-3.87-4.29-7.57-8.74-11.5-13-1-1.1-2.83-2.59-3.84-2.31-1.87.52-1.24,2.75-1,4.27.83,4.66,1.82,9.3,2.8,13.93a2.91,2.91,0,0,0,.81,1.29c3.12,3.22,4.92,7.21,6.44,11.32,5.39,14.5,10.88,29,15.91,43.61,1.31,3.81,3.38,5.55,6.92,7,12.12,4.88,24.83,7.38,37.51,10.08,2.37.5,4.71,1.14,7.12,1.72-.8,4.65-1.65,9.08-2.29,13.53a283.44,283.44,0,0,0-2.63,52.39c.34,8.35,1.34,16.69,2.29,25,.25,2.13,1.5,4.13,2.19,6.23a8.73,8.73,0,0,1,.43,2.78c-.27,23.46-.6,46.91-.84,70.36,0,5,.21,10.09.32,15.13,0,.56,0,1.12,0,1.67-.33,0-.54.1-.61,0-2.35-2.44-4.7-1.11-7.21-.2-6.84,2.49-13.8,4.54-21.44,4l3.39,3.14-1.32.58,4.62,1.8-.15.29-30.78-1.14c0,.27-.11.54-.17.81,12.91,1,24.65,5.95,36.6,10.17,0,.18-.08.36-.11.54l-35-2.75a22.6,22.6,0,0,1,3.08,2.47c3.08,3.5,6,7.1,9.12,10.61a2.31,2.31,0,0,0,1.72.69,31.21,31.21,0,0,0,4.79-.85c.57-.14,1.43-.76,1.41-1.15a2.39,2.39,0,0,0-1.06-1.73c-1.65-1-3.42-1.74-5.15-2.58a3.58,3.58,0,0,1-1.76-1.31l26.07,2.5c-3.4-2.53-7.68-2.31-11.41-3.8,8.18.33,16.31,1.7,24.61.57-5.78-4.12-12.66-5.54-19.07-8.05l.11-.66,37.57,4c.8-.46,1.28-1,1.76-1,3.49,0,7,.07,10.46.09a16.93,16.93,0,0,0,2.12-.22c0-.23.09-.45.14-.67-1.61-.47-3.22-1-4.84-1.42s-3.28-.8-5.46-1.32c1.63-1.2,2.94-2.07,4.14-3.09.63-.53,1.58-1.43,1.46-1.95a3.56,3.56,0,0,0-1.89-1.87c-1.92-.94-4-1.51-5.9-2.55a4.68,4.68,0,0,1-1.92-2.57c-5-16.44-5.18-33.5-6.25-50.41-1-15-1.4-30.1-1.93-45.15-.26-7.62,0-15.27-.39-22.88-.6-11.63-1.64-23.23-2.38-34.85s-1.53-23-.32-34.46c0-.29.09-.58.19-1.17l2.68,1.62c13.36,8.13,26.73,16.26,41.27,22.21,4,1.66,8.15,3.15,13,2.77A15.77,15.77,0,0,0,1250.4,494Zm-63.52-99.77a3.05,3.05,0,0,1,5.49,1.63,11.75,11.75,0,0,1-.75,5.51,3.66,3.66,0,0,1-4.4,2.55c-2.21-.53-2.43-2.52-2.81-5.23C1185,397.56,1185.62,395.6,1186.88,394.21Zm1.8,105.26a3.55,3.55,0,0,1,.15.64c1,15,2.11,30,2.91,45,.29,5.43-.15,10.9-.25,16.36C1187.25,559.26,1185.69,511,1188.68,499.47Zm6.45,171.93-22.55-2.94c0-.2.05-.4.08-.61l22.55,2.9C1195.19,671,1195.16,671.18,1195.13,671.4Zm-1.43-103.47c0,.37.07.72.09,1.06,1.34,23,2.51,46.07,4.13,69.09.48,6.75,2.09,13.44,3.48,20.1.44,2.08,0,2.87-1.81,3.69-3.68,1.65-7.24,3.58-10.85,5.38a1.66,1.66,0,0,1-.83.19c-2.55-.31-5.09-.66-7.63-1l0-.5c2.68-1.22,5.44-2.31,8-3.73,1-.55,2.31-1.84,2.3-2.78,0-5-.74-10-.71-15.06.18-23.9.57-47.8.74-71.69C1190.58,570.18,1191.23,568.69,1193.7,567.93Z"/><path class="cls-2" d="M1187.75,430.49c4.17-2.89,12.59-2.35,16.32,1.06,3.49,3.18,3.67,7.6.07,10.58a18.75,18.75,0,0,1-6.54,3.54c-7.19,2.1-12-1.73-11.95-9.2C1185.67,432.85,1186.1,431.63,1187.75,430.49Zm7,1.41c-5.77.43-6.71,1.31-5.51,7.44a4.22,4.22,0,0,0,5.29,3.56,20.74,20.74,0,0,0,7-2.86c2.75-1.82,2.57-4.76-.29-6.46-1.77-1.05-3.94-1.44-5.93-2.13l-.16.45Z"/><path class="cls-2" d="M1203.24,395.76a6.32,6.32,0,0,1,9.72,2.46,10.43,10.43,0,0,1-3.66,12.93c-3.28,2-7.1,1.22-9-2.15a26.61,26.61,0,0,1-1.61-4.73C1199.12,400.69,1200.4,397.8,1203.24,395.76Zm1.67,12.92a3.59,3.59,0,0,0,4.45-2.44,11.77,11.77,0,0,0,.79-5.73,3,3,0,0,0-5.36-1.6,19.77,19.77,0,0,0-2.55,4.37C1202.52,406.08,1202.81,408.06,1204.91,408.68Z"/><path class="cls-2" d="M680.82,41.33c-1.06-1.26-2.42,1.89-2.82.32-.19-.74-.4-1.47-.62-2.2a.63.63,0,0,0-.6-.51.65.65,0,0,0-.63.46,8.8,8.8,0,0,0-.43,1.18c-.67,2.77-1.32,5.54-2,8.31-.11.46-.21.88.19,1.26a.9.9,0,0,1,.2.43,5.44,5.44,0,0,1,0,3.12c-1.2,3.69-2.41,7.37-3.68,11-1.92,5.53-4,11-6.43,16.33-1,2.15-1,2.15-3,3.32a53.27,53.27,0,0,1-9.23,3.94L640,92.37c-.71.25-1.39.54-2.16.83l.14-.52c.4-1.39.8-2.78,1.22-4.17a.52.52,0,0,1,.31-.27,9.44,9.44,0,0,0,2.79-1.47,14.64,14.64,0,0,0,4.53-6.15A29.41,29.41,0,0,0,649,69.87a41.29,41.29,0,0,0-1.65-13,31.27,31.27,0,0,0-5.3-10.72,18.59,18.59,0,0,0-2.3-2.47,6.85,6.85,0,0,1-1.2,2.08A19.56,19.56,0,0,1,640,47.3,24.92,24.92,0,0,1,643,51.91c0,.08.07.17.13.31a1.13,1.13,0,0,1-.25-.09,3.75,3.75,0,0,0-5.62,2.16,6.2,6.2,0,0,0,2.18,6.85,3.75,3.75,0,0,0,5.86-1.83c0-.14.1-.29.2-.55a36.42,36.42,0,0,1,1.15,7.36,49.14,49.14,0,0,1,0,5.15,23.49,23.49,0,0,1-3.06,10.78,9.75,9.75,0,0,1-3.4,3.53,3.38,3.38,0,0,1-1.6.5,9,9,0,0,0-1.38.1c-2.24.46-3.9-.72-5.48-2a20.15,20.15,0,0,1-5.27-7.06A36.85,36.85,0,0,1,623,65.65a37.66,37.66,0,0,1-.22-8.15,24.57,24.57,0,0,1,2.69-9.81l.22-.35A6.19,6.19,0,0,1,623.88,46c-.15.23-.3.47-.43.71a27.54,27.54,0,0,0-3.09,12.16,41.39,41.39,0,0,0,3.32,18.07,25,25,0,0,0,5.71,8.39,12,12,0,0,0,6.08,3.21l.83.13c-.63,1.89-1.23,3.72-1.83,5.5L634,94c-3.21-1.14-6.42-2.26-9.61-3.43-7.18-2.62-14.3-5.39-21.31-8.46a1.07,1.07,0,0,1-.48-.46c-1-2.13-2.1-4.26-3.08-6.42a95.1,95.1,0,0,1-5.94-16.46c-.81-3.21-1.52-6.44-2.27-9.66a5,5,0,0,1-.21-1.47c.08-.89.27-1.77.42-2.66.18-1.08.41-2.15.53-3.23a2.11,2.11,0,0,0-1.76-2.61,3.78,3.78,0,0,0-.75-.05,6,6,0,0,1-2.9-.69c-.79-.41-1.56-.88-2.35-1.31-.61-.33-.89-.29-1.31.19v.71c.1.29.18.58.3.85,1,2.38,2,4.75,2.93,7.13.12.28.24.43.49.35.11.13.18.28.27.31a3.68,3.68,0,0,1,2.56,2.74c.4,1.25.63,2.55.91,3.84A110.09,110.09,0,0,0,594.1,66.5a139.52,139.52,0,0,0,7.27,16.58.84.84,0,0,0,.4.34c2,.87,4,1.75,6.08,2.59,7.59,3.13,15.29,6,23,8.72l2.94,1,.35-.91a.24.24,0,0,1,0,.21,85.69,85.69,0,0,0-2.49,13.77c-.32,2.9-.57,5.81-.73,8.72-.2,3.45-.32,6.92-.39,10.38-.08,4.33,0,8.67.32,13,.14,2.06.38,4.11.59,6.15.07.69.2,1.37.3,2.07l-.78.1c.11,2.48.26,4.92.34,7.36q.21,6.19.34,12.4c.16,7.17.07,14.33-.48,21.48a72.74,72.74,0,0,1-1.2,9.18,20,20,0,0,1-1.59,5,3.78,3.78,0,0,1-1.68,1.83.9.9,0,0,0-.59.83c.05.48-.23.67-.53.87a5.85,5.85,0,0,1-1,.57c-.95.4-1.91.75-2.87,1.13a6,6,0,0,0-.92.44.85.85,0,0,0-.11,1.48,4.15,4.15,0,0,0,.68.48,21.74,21.74,0,0,1,4.14,3.54L625,216c-.76.29-1.51.57-2.25.88a2.51,2.51,0,0,0-.55.39l0,.17c2,.43,4,0,6.14,0l-.8.66.2.07c2.09-.36,4.18-.73,6.28-1.06s4.17-.62,6.25-.94a1.85,1.85,0,0,0,.83-.27,9.72,9.72,0,0,0,1-1.11l1-1.18c-.12,0-.16,0-.19,0-1.5.27-3,.53-4.51.83-1.28.25-2.54.59-3.82.81s-2.54.31-3.81.46l-1.57.17c.11-.09.13-.11.15-.11,2.57-.49,5.13-1,7.69-1.47,2.16-.43,4.31-.9,6.46-1.38a1.28,1.28,0,0,0,.59-.39.73.73,0,0,1,.64-.3q.75.08,1.5.09a6.53,6.53,0,0,0,4.27-1.17c.85-.65,1.64-1.38,2.43-2.09a.58.58,0,0,0,.13-.49.75.75,0,0,0-.4-.31,1.24,1.24,0,0,0-.43,0c-1.06,0-2.12,0-3.16-.07a33.49,33.49,0,0,1-7.24-1.79c-.82-.28-1.62-.6-2.44-.9l.18-.36c-.43.18-.92-.23-1.16.35-.24-.13-.25-.13-.48.07a5.43,5.43,0,0,1-3,1.2c.19-.68.36-1.31.55-1.94a128.54,128.54,0,0,0,4-17.2,86.91,86.91,0,0,0,1-10.56,75.65,75.65,0,0,0-.61-12.22,65.4,65.4,0,0,0-2.47-11.14,1,1,0,0,1,.08-1,5.11,5.11,0,0,0,.48-1.12,21.73,21.73,0,0,0,.85-6.41c.11-5-.28-10-.64-15.05-.19-2.57-.42-5.13-.61-7.7s-.36-4.9-.49-7.35c-.16-2.8-.3-5.6-.37-8.4a68.41,68.41,0,0,1,.23-8.59c.1-1,.25-2,.36-2.89a4.74,4.74,0,0,0,.57-.14c1.79-.68,3.56-1.39,5.36-2,4-1.4,8-2.72,12-4.14a35,35,0,0,0,8.91-4.48,1.52,1.52,0,0,0,.48-.56c1-2.14,2-4.25,2.89-6.42,3.07-7.37,5.65-14.91,8.1-22.51a2.27,2.27,0,0,1,.36-.69c.74-.86,1.51-1.69,2.27-2.54a28.66,28.66,0,0,0,1.92-2.21C681.07,48.3,681.78,42.49,680.82,41.33ZM643.25,59a1.7,1.7,0,0,1-2.49.72,3.85,3.85,0,0,1-1.85-2.81,3.64,3.64,0,0,1,.22-2.21,1.8,1.8,0,0,1,2.86-.82,4.21,4.21,0,0,1,1.68,3.46l.1,0A10.69,10.69,0,0,1,643.25,59Zm-9.83,67.55c.06-3.08.2-6.16.34-9.23.07-1.43.21-2.85.32-4.27a.66.66,0,0,1,.12-.32c.06,1,.12,2.1.19,3.15.15,2.13.3,4.27.46,6.4.13,1.87.28,3.74.42,5.61s.32,4,.44,5.93S636,138,636,140s.05,4.2,0,6.3c0,1-.22,2.1-.3,3.15,0,.52-.37.67-.86.75-.17-.9-.36-1.79-.49-2.69A132.61,132.61,0,0,1,633.42,126.55Zm5,40a75.4,75.4,0,0,1,.33,12.39,98.33,98.33,0,0,1-3.55,20.78c-.62,2.27-1.27,4.54-1.9,6.81a3.84,3.84,0,0,0-.11.59,1.4,1.4,0,0,0,1,1.77c.89.28,1.84.41,2.76.62a4,4,0,0,1,.91.25,28.09,28.09,0,0,0,5.33,2.09.65.65,0,0,1,.22.11,89.9,89.9,0,0,0-13.11,2.58l0-.1c.2-.13.4-.28.61-.41a12.88,12.88,0,0,1,3.51-1.19,4.2,4.2,0,0,0,.78-.26.65.65,0,0,0,.17-1.14,3.79,3.79,0,0,0-.89-.58c-1.64-.73-3.29-1.43-4.93-2.14-.34-.15-.7-.26-1-.43a2.55,2.55,0,0,1-.48-.41,8.32,8.32,0,0,0,2.92-4.57,34,34,0,0,0,1.48-6.91c.36-3.19.71-6.38.85-9.58.21-4.4.29-8.8.28-13.2,0-4.65-.14-9.3-.25-14,0-2.12-.17-4.25-.26-6.37a2.34,2.34,0,0,0,2.87,1.19c.11.35.23.7.33,1.06A66.27,66.27,0,0,1,638.37,166.54Z"/><path class="cls-2" d="M639,218.46l-.63.77c-.53.62-1.07,1.23-1.61,1.84-.2.23-1,.16-1.13-.12a.53.53,0,0,1,.13-.48c.5-.41,1-.81,1.57-1.17s1.06-.62,1.6-.92Z"/><path class="cls-2" d="M630.48,54.5a4.24,4.24,0,0,1,3.41,1.84,5.87,5.87,0,0,1,.83,6.29,3.66,3.66,0,0,1-5.36,1.66,6,6,0,0,1-2-8.08A3.56,3.56,0,0,1,630.48,54.5Zm2.86,6a4.37,4.37,0,0,0-1.68-3.68,1.8,1.8,0,0,0-2.89.8,3.81,3.81,0,0,0-.16,2.45,3.74,3.74,0,0,0,1.77,2.55,1.71,1.71,0,0,0,2.54-.74A8.59,8.59,0,0,0,633.34,60.53Z"/><path class="cls-2" d="M631.66,80.52l-.89-.8c.56-.47,1.08-1,1.65-1.37a14.83,14.83,0,0,1,5.68-2.77,5.52,5.52,0,0,1,2.36,0,3.81,3.81,0,0,1,2.91,2.86l-1.09.34c0-.12-.1-.21-.13-.31a2.68,2.68,0,0,0-2.95-1.82A10.24,10.24,0,0,0,635.11,78,16,16,0,0,0,631.66,80.52Z"/><path class="cls-3" d="M619.09,49a13.24,13.24,0,0,1,4.54-12.68c.26.71.51,1.36.75,2,.47,1.26.93,2.52,1.4,3.77a.92.92,0,0,0,1.22.62.93.93,0,0,0,.56-1.26c-.34-1-.71-1.94-1.08-2.92-.42-1.14-.84-2.28-1.27-3.42a.71.71,0,0,1,0-.65,2.42,2.42,0,0,1,1.68-1.24l3.48-.67a2.38,2.38,0,0,1,2.13.65.66.66,0,0,1,.17.41c0,1.69.07,3.39.1,5.09,0,.58,0,1.15,0,1.73a1,1,0,0,0,1,1,1,1,0,0,0,.94-1c0-1.47-.07-3-.1-4.43,0-.56,0-1.13,0-1.78a13.29,13.29,0,0,1,8.87,10.12c.23,0,.46-.07.7-.08a1.87,1.87,0,0,1,1.93,1.78,1.85,1.85,0,0,1-1.48,2l-17.95,3.42c-2.44.46-4.88.93-7.32,1.38a1.73,1.73,0,0,1-1.88-.8,1.91,1.91,0,0,1-.11-2,1.83,1.83,0,0,1,1.28-.94Z"/><g id="screwdriver"><path class="cls-4" d="M659.73,48.13v.13L671.54,47c4.13-4.4,10.42-3,10.42-3,1.47,1.77,2.33,1.64,3.11,1.55l4.16-.45s54.35-5.89,54.35-5.89,12.47-2,10.66-18.71l0-.26c-1.81-16.74-14.42-16-14.42-16l-1.38.15s-53,5.78-53,5.74l-4.16.45c-.78.09-1.65.14-2.7,2.18-6.43,2.63-10.83-.71-10.83-.71L655.91,13.3v.13c-.69.08-.57,6.51.25,14.85L558.4,38.88l-7.87-1.34L537,40.89l.64,5.9,14,.38,7.4-3,97.76-10.6C657.78,41.89,659,48.2,659.73,48.13Z"/></g><path class="cls-2" d="M256,420.22c-2.65-1.69-5.2-3.68-8.06-4.88-7.7-3.23-16-4.2-24.15-5.53-2.78-.45-5.57-.87-8.43-1.32.78-2.6,1.41-4.85,2.15-7.05a2.6,2.6,0,0,1,1.15-1.48c6-2.48,9.3-7.35,11.31-13.15,4.48-12.92,3.69-25.86-.72-38.6-2.85-8.25-6.85-15.62-14.2-20a8.07,8.07,0,0,1-1,3.48,28.36,28.36,0,0,1,9.4,12q-7-1.68-8.79,3.37c-1.43,4,.54,9.47,4,11.25,3.3,1.68,6,.57,8.91-3.84,2.58,12.18,3.11,24-2.76,35.17-2.39,4.57-6,7.92-11.67,7.47-4.37-.34-7.51-3-10.22-6.11-4.6-5.29-7.27-11.58-9-18.29-2.75-10.59-3.25-21.2.62-31.61a26,26,0,0,1,3-5.71,6.57,6.57,0,0,1-2.75-2.8,26.32,26.32,0,0,0-3.83,7.85c-4.71,15.17-3.09,30,3.69,44.22,3.74,7.86,9,14.34,18.14,16.19-.09,3.56-1.5,5.64-5.13,6.59-8,2.1-15.88,4.6-23.79,7-6.78,2-13.59,4-19.61,7.91-3.06,2-4.8,4.52-3.85,8.34.3,1.23.48,2.51.85,3.72,2,6.62,6.69,11.1,12.34,14.53,5.28,3.21,10.86,5.93,16.3,8.88,2.49,1.36,3,2.45,2.45,5.32a2.41,2.41,0,0,0,.07,1.31c2,4.46,4,8.92,6.14,13.33.3.62,1.12,1,2.07,1.8.78-5.16.39-9.91,3.58-13.77a3.17,3.17,0,0,1,.16.6c.35,7.4.67,14.8,1,22.2.08,1.51.49,3,.42,4.51-.09,1.7-.82,3.39-.78,5.08.09,4.69.61,9.37.66,14.06.13,13.18.43,26.37,0,39.54a173.8,173.8,0,0,1-2.68,23.38c-1.2,7.1-5,12.5-12.34,14.69a.61.61,0,0,0-.2.09c-.74.58-1.47,1.17-2.2,1.76a19.13,19.13,0,0,0,1.76,1.94c2.1,1.77,4.24,3.48,6.56,5.37l-5.3,2.28c11.12,2.26,21.31-1.29,31.91-2.33-1.69-1-1.44-1.9.05-2.5a21.8,21.8,0,0,1,2.89-.72l0-.24L204,599.32c0-.25-.09-.5-.14-.75l20.55-4.16-.15-.8c-6.81.09-13.39,1.82-20.1,3a47.33,47.33,0,0,1,5.47-2.2,17.9,17.9,0,0,0,2.23-1.22,10.88,10.88,0,0,0-1.84-2,20,20,0,0,0-3.08-1.4l-6.86-3a15.2,15.2,0,0,0,5.33-10c1.24-8.5,2.8-17,3.06-25.58.42-13.93-.1-27.88-.21-41.82,0-2.51,0-5,0-7.13l5,1.84c1,5.89,2.26,12.23,3.13,18.63,1.77,13.11.57,26.12-2.14,39-1.61,7.64-3.81,15.16-5.73,22.73-.64,2.55-.11,3.28,2.44,4.07,3.14,1,6.25,2,9.36,3.11s6.15,2.22,9.63,1.92c4.48-.39,7.17-3.16,10.17-6.32-1.92,0-3.42.05-4.92,0-5.73-.23-11.08-2-16.35-4.09-1.42-.56-2.57-.81-3.9.43-.83.78-2.21,1-3.77,1.58.25-1.12.35-1.69.51-2.25,3.41-11.8,6.39-23.67,7.52-36a116.25,116.25,0,0,0-3.89-43.95,3.79,3.79,0,0,1-.12-2.34,29.48,29.48,0,0,0,2-12.42c-.11-7.84-.57-15.68-.88-23.31,3.27,3.7,2.44,9,3.89,14.16a19.09,19.09,0,0,0,1.93-2.52q3-6.35,5.8-12.75a6.13,6.13,0,0,0,.07-1.73c.1-1.08-.08-2.32.41-3.19a20.23,20.23,0,0,1,3.29-4.25c3-3,6.27-5.74,9.17-8.82,6.4-6.79,12.08-14.11,15.75-22.82C257.16,421.78,257.09,420.92,256,420.22Zm-33.93-64.37a3.23,3.23,0,0,1-3.88-2.33,12.14,12.14,0,0,1-.82-4.75,3.33,3.33,0,0,1,1.9-2.45,3.7,3.7,0,0,1,3.19.78,22.63,22.63,0,0,1,2.54,4.53C224.64,353.76,224.13,355.39,222.07,355.85ZM204.36,462.29c-5.31-2.79-10.7-5.5-16-8.43-5.78-3.23-11.67-6.35-17.1-10.1a18.54,18.54,0,0,1-8.23-14.46c-.15-2.12.58-3.62,2.35-4.45,4.83-2.24,9.61-4.72,14.64-6.38,9.91-3.26,20-6,30.18-9.06C205.65,426.94,204.55,444.73,204.36,462.29Zm7.78,33.77c0,.25-.48.46-1.21,1.11-3.3-19.46-2.59-38.49-1.1-57.58C210.58,458.39,214.25,477.11,212.14,496.06Zm41.3-72.52a66.19,66.19,0,0,1-12.68,18.36c-5.11,5.24-10.68,10.05-16.16,14.91-1.19,1.06-3,1.44-4.33,2.33-1.6,1.05-3.05,2.33-4.36,3.35-1.06-16.6-3.25-33.84-1.13-51.87,10.38,2.21,20.4,4.17,30.31,6.56,2.76.66,5.23,2.56,7.81,3.94C253.93,421.67,254,422.44,253.44,423.54Z"/><path class="cls-2" d="M211.35,357.45a6,6,0,0,1-4.28,5.87,6.21,6.21,0,0,1-7.49-3.62,16.37,16.37,0,0,1-1.26-6.95,5.37,5.37,0,0,1,3.94-4.79,5.78,5.78,0,0,1,6.08,1.36C210.47,351.25,211.42,353.74,211.35,357.45Zm-10.95-3.1c1,2,1.49,3.67,2.54,4.94,1.88,2.28,4.7,1.68,5.18-1.2a11.54,11.54,0,0,0-1-5.51,2.8,2.8,0,0,0-3.89-1.73C202.07,351.49,201.39,353.08,200.4,354.35Z"/><path class="cls-2" d="M207.36,382.9c4.28,0,8.48,0,12.68,0,1,0,1.65.59,1.63,1.37s-.62,1.26-1.62,1.27c-3.6,0-7.2,0-10.81,0h-1.13c0,.27,0,.43.08.59a1.24,1.24,0,0,1-.81,1.68,1.22,1.22,0,0,1-1.69-.94c-.56-2.05-1.1-4.1-1.61-6.17a1.29,1.29,0,1,1,2.5-.63C206.89,381,207.1,381.94,207.36,382.9Z"/><text class="cls-5" transform="translate(350.65 597)">It seems the page <tspan class="cls-6" x="210.18" y="0">y</tspan><tspan x="222.75" y="0">ou a</tspan><tspan class="cls-7" x="272.15" y="0">r</tspan><tspan x="280.81" y="0">e looking for does</tspan><tspan class="cls-8" x="483.55" y="0">n</tspan><tspan class="cls-9" x="497.87" y="0">’t exist </tspan><tspan x="14.78" y="31.3">or m</tspan><tspan class="cls-6" x="67.66" y="31.3">a</tspan><tspan class="cls-9" x="81.49" y="31.3">y be b</tspan><tspan class="cls-10" x="149.41" y="31.3">r</tspan><tspan x="158.05" y="31.3">o</tspan><tspan class="cls-10" x="172.57" y="31.3">k</tspan><tspan x="185.13" y="31.3">en. Sor</tspan><tspan class="cls-11" x="264.81" y="31.3">r</tspan><tspan x="273.94" y="31.3">y about that. </tspan><tspan class="cls-12" x="423.27" y="31.3">T</tspan><tspan class="cls-11" x="437.9" y="31.3">r</tspan><tspan x="447.03" y="31.3">y heading </tspan><tspan x="158.68" y="62.6">back to the homepage.</tspan></text><path class="cls-13" d="M0,0V720H1280V0ZM208,335a7.56,7.56,0,0,1-2.46-.38,6.87,6.87,0,0,1-4.54,1.55c-9.43,0-9.42-14.63,0-14.63a7.56,7.56,0,0,1,2.46.38,6.87,6.87,0,0,1,4.54-1.55C217.43,320.35,217.42,335,208,335Zm1004.75,46.59a6.69,6.69,0,0,1-6.7-4.86,6.65,6.65,0,0,1-6,3.36c-9.43,0-9.42-14.64,0-14.64a6.69,6.69,0,0,1,6.7,4.86,6.65,6.65,0,0,1,6-3.36C1222.18,366.93,1222.17,381.57,1212.75,381.57Z"/><path class="cls-3" d="M186.16,339.81c-.91-7.94,1.79-14.32,8.09-19.29.38,1.11.74,2.12,1.08,3.14.67,1.94,1.33,3.9,2,5.84a1.46,1.46,0,0,0,1.91,1,1.44,1.44,0,0,0,1-1.91c-.48-1.52-1-3-1.54-4.52-.6-1.77-1.2-3.54-1.82-5.3a1,1,0,0,1,.12-1,4,4,0,0,1,2.77-1.84l5.64-.88a3.83,3.83,0,0,1,3.37,1.07.9.9,0,0,1,.24.63c0,2.61-.1,5.21-.16,7.82,0,.89,0,1.77,0,2.66a1.46,1.46,0,0,0,1.48,1.55,1.49,1.49,0,0,0,1.56-1.5c.06-2.27.09-4.54.13-6.81,0-.86,0-1.73.07-2.73,7.5,2.83,12,8.06,13.57,15.89.38,0,.76-.09,1.14-.1a2.88,2.88,0,0,1,3,2.8,2.92,2.92,0,0,1-2.49,3l-29,4.52q-5.92.93-11.85,1.84a2.94,2.94,0,0,1-3-4.42,2.94,2.94,0,0,1,2.11-1.38Z"/><path class="cls-3" d="M1182,377.93c2-9.24,7.32-15.37,15.91-18.58,0,1.38,0,2.65,0,3.92,0,2.44-.06,4.87-.07,7.31a1.68,1.68,0,0,0,1.66,1.84,1.69,1.69,0,0,0,1.77-1.77c.06-1.89,0-3.77.07-5.66,0-2.2,0-4.41.06-6.62a1.24,1.24,0,0,1,.5-1.07,4.4,4.4,0,0,1,3.65-1l6.35,1.14a4.31,4.31,0,0,1,3.19,2.46,1.18,1.18,0,0,1,0,.81c-1,2.91-2.08,5.8-3.12,8.71-.36,1-.71,2-1,3a1.73,1.73,0,0,0,1,2.3,1.7,1.7,0,0,0,2.24-1.1c.91-2.52,1.8-5.05,2.7-7.58l1.11-3c6.93,6,9.77,13.55,8.48,22.91.41.11.84.18,1.24.33a3.47,3.47,0,0,1-1.68,6.7q-16.34-2.91-32.66-5.85-6.67-1.18-13.34-2.39a3.16,3.16,0,0,1-2.66-2.58,3.45,3.45,0,0,1,1.13-3.5,3.26,3.26,0,0,1,2.78-.76C1181.48,377.83,1181.72,377.88,1182,377.93Z"/></g></g></svg>