<svg xmlns="http://www.w3.org/2000/svg" viewBox="0 0 440.04 400"><defs><style>.cls-1{fill:#f79449;}.cls-2{fill:#37444f;}.cls-3,.cls-6{fill:#fff;}.cls-3,.cls-5{opacity:0.5;}.cls-4{fill:#009444;}</style></defs><title>advanced-security</title><g id="Layer_2" data-name="Layer 2"><g id="Layer_1-2" data-name="Layer 1"><rect class="cls-1" x="19.97" y="12.06" width="400" height="374.96"/><path class="cls-2" d="M399.91,0H40A40.07,40.07,0,0,0,0,40V360a40.07,40.07,0,0,0,40,40H400a40.07,40.07,0,0,0,40-40V40A40.21,40.21,0,0,0,399.91,0ZM20,40a20,20,0,0,1,20-20h360a20,20,0,0,1,20,20v60H20ZM420,360a20,20,0,0,1-20,20H40a20,20,0,0,1-20-20V120H420Z"/><circle class="cls-3" cx="120.02" cy="60.01" r="19.97"/><path class="cls-3" d="M179.94,40a20,20,0,1,0,20,20A20,20,0,0,0,179.94,40Z"/><circle class="cls-3" cx="60.01" cy="60.01" r="19.97"/><g id="shield"><g id="_828-shield-toolbar-selected_2x.png" data-name="828-shield-toolbar-selected@2x.png"><path class="cls-4" d="M308.68,172.26c-47.86,0-86.23-28.95-86.59-29.25l-2.11-1.6-2.07,1.6c-.37.3-38.73,29.25-86.59,29.25h-3.53v41.23c0,103.48,84.76,138.68,92.23,138.68S312.25,317,312.25,213.49V172.26Z"/></g></g><g id="padlock" class="cls-5"><path class="cls-6" d="M265.25,229.63h-9.82V211.91a34.94,34.94,0,0,0-69.87,0v17.72H174.78a5.6,5.6,0,0,0-5.61,5.62v61.4a5.6,5.6,0,0,0,5.61,5.61h90.47a5.6,5.6,0,0,0,5.62-5.61v-61.4A5.61,5.61,0,0,0,265.25,229.63ZM200,211.91a20.35,20.35,0,0,1,40.7,0v17.72H200Z"/></g></g></g></svg>