<svg xmlns="http://www.w3.org/2000/svg" viewBox="0 0 202.56 200"><defs><style>.cls-1{fill:#f79449;}.cls-2{fill:#e4e6e6;}.cls-3,.cls-7{fill:#fff;}.cls-3,.cls-6{opacity:0.5;}.cls-4{fill:#37444f;}.cls-5{fill:#009444;}</style></defs><title>bandwidth</title><g id="Layer_2" data-name="Layer 2"><g id="Layer_1-2" data-name="Layer 1"><circle class="cls-1" cx="96.24" cy="96.12" r="84.36"/><path class="cls-1" d="M75.09,120.15a21,21,0,1,0,42.06,0H170.4a77.36,77.36,0,0,0,3.81-24,78.09,78.09,0,1,0-152.37,24Zm81.09-30a6,6,0,1,1-6,6A6,6,0,0,1,156.18,90.12Zm-12-30.06a6,6,0,1,1-6,6A6,6,0,0,1,144.18,60.06Zm-24-24a6,6,0,1,1-6,6A6,6,0,0,1,120.15,36.06Zm-24,0c6.65,0,12,77.48,12,84.13a12,12,0,1,1-24,0C84.13,113.5,89.47,36.06,96.12,36.06ZM36.06,102.12a6,6,0,1,1,6-6A6,6,0,0,1,36.06,102.12Zm12-30a6,6,0,1,1,6-6A6,6,0,0,1,48.06,72.09Zm24-24a6,6,0,1,1,6-6A6,6,0,0,1,72.09,48.06Z"/><path class="cls-2" d="M96,174.21h0Z"/><path class="cls-3" d="M170.29,120.15H117a21,21,0,1,1-42.06,0H21.72a78.19,78.19,0,0,0,74.17,54.06h.23A78.19,78.19,0,0,0,170.29,120.15Z"/><path class="cls-3" d="M48.06,60.06a6,6,0,1,0,6,6A6,6,0,0,0,48.06,60.06Z"/><path class="cls-3" d="M36.06,90.12a6,6,0,1,0,6,6A6,6,0,0,0,36.06,90.12Z"/><path class="cls-3" d="M78.09,42.06a6,6,0,1,0-6,6A6,6,0,0,0,78.09,42.06Z"/><path class="cls-3" d="M144.18,72.09a6,6,0,1,0-6-6A6,6,0,0,0,144.18,72.09Z"/><path class="cls-3" d="M120.15,48.06a6,6,0,1,0-6-6A6,6,0,0,0,120.15,48.06Z"/><path class="cls-3" d="M156.18,102.12a6,6,0,1,0-6-6A6,6,0,0,0,156.18,102.12Z"/><path class="cls-4" d="M96.12,132.19a12,12,0,0,0,12-12c0-6.65-5.38-84.13-12-84.13s-12,77.48-12,84.13A12,12,0,0,0,96.12,132.19Z"/><path class="cls-4" d="M96.12,0a96.12,96.12,0,1,0,96.12,96.12A96.1,96.1,0,0,0,96.12,0ZM96,174.21a78.09,78.09,0,1,1,78.2-78.09,77.36,77.36,0,0,1-3.81,24,78.17,78.17,0,0,1-74.16,54.06H96Z"/><circle class="cls-5" cx="158.37" cy="155.81" r="44.19"/><g id="infinity" class="cls-6"><path class="cls-7" d="M175.53,138.65c-8.15,0-13.26,4.6-17.16,9.68-3.9-5.08-9-9.68-17.16-9.68-6.9,0-17.17,4.57-17.17,17.16S134.31,173,141.21,173c8.15,0,13.26-4.59,17.16-9.67,3.9,5.08,9,9.67,17.16,9.67,6.89,0,17.16-4.57,17.16-17.16S182.42,138.65,175.53,138.65Zm-34.32,25.74c-1.43,0-8.59-.41-8.59-8.58,0-7.84,6.59-8.55,8.59-8.58,5.24,0,8.26,3.21,12,8.58C149.47,161.19,146.45,164.39,141.21,164.39Zm34.29,0c-5.23,0-8.25-3.21-12-8.58,3.73-5.37,6.73-8.58,12-8.58,1.43,0,8.58.41,8.58,8.58C184.11,163.64,177.55,164.37,175.5,164.39Z"/></g></g></g></svg>