<svg xmlns="http://www.w3.org/2000/svg" viewBox="0 0 663.13 330"><defs><style>.cls-1{fill:#d1d3d4;opacity:0.85;}.cls-2{fill:#a7a9ac;}.cls-3{fill:#e6e7e8;}.cls-4{fill:#222a32;}.cls-5{fill:#f79449;}</style></defs><title>cloud-hosting</title><g id="Layer_2" data-name="Layer 2"><g id="Layer_1-2" data-name="Layer 1"><path id="Oval-29" class="cls-1" d="M208.87,203.23c-.56-5.35-1-11.36-1-12.92A106.78,106.78,0,0,1,314.72,83.57c3.57,0,7,.22,10.47.55C341.35,35.32,388.82,0,444.75,0c69.3,0,125.46,54,125.46,120.67h4.68a88.25,88.25,0,0,1,4.57,176.38s-69.31.11-120.9.11"/><g id="gear"><path class="cls-2" d="M259.77,90.32a11.28,11.28,0,0,0-3.06-15.62l-12.43-8.35a11.28,11.28,0,0,0-15.62,3.06l-4.32,6.42C220.9,81,214,83.94,208.93,82.53s-19.49-7.87-20.72-13.93L186.75,61a11.35,11.35,0,0,0-13.21-8.87L158.88,55A11.36,11.36,0,0,0,150,68.16l1.51,7.68c1.18,6-1.57,13-6.11,15.52s-19.5,8.27-24.62,4.83l-6.42-4.31a11.28,11.28,0,0,0-15.62,3.06l-8.35,12.42A11.29,11.29,0,0,0,93.45,123l6.48,4.35c5.11,3.44,8.1,10.37,6.69,15.41s-7.87,19.49-14,20.64L85,164.9a11.34,11.34,0,0,0-8.87,13.2L79,192.72a11.35,11.35,0,0,0,13.21,8.87l7.68-1.5c6-1.19,13,1.56,15.52,6.11s8.3,19.44,4.83,24.61l-4.35,6.47A11.29,11.29,0,0,0,119,252.91l12.43,8.35A11.28,11.28,0,0,0,147,258.19l4.35-6.47c3.44-5.11,10.38-8.11,15.41-6.69s19.49,7.87,20.64,13.94l1.51,7.68a11.23,11.23,0,0,0,13.21,8.88l14.66-2.88a11.36,11.36,0,0,0,8.88-13.2l-1.51-7.69c-1.18-6,1.57-13,6.11-15.52s19.45-8.3,24.62-4.83l6.42,4.32a11.28,11.28,0,0,0,15.59-3l8.35-12.43a11.29,11.29,0,0,0-3.07-15.62l-6.47-4.35c-5.12-3.44-8.11-10.38-6.66-15.47s7.87-19.49,14-20.69l7.68-1.5a11.37,11.37,0,0,0,8.88-13.21l-2.88-14.67a11.35,11.35,0,0,0-13.21-8.87l-7.68,1.51c-6,1.18-13-1.57-15.52-6.12s-8.27-19.49-4.83-24.61l4.28-6.37ZM228.21,191A48.69,48.69,0,1,1,215,123.4,48.72,48.72,0,0,1,228.21,191Zm184.56-83.39c2.32-3.44.71-8.61-3.57-11.49s-9.67-2.41-12,1-6.28,5.63-8.77,4.94-9.91-4.77-10.72-8.87-5.55-6.62-10.62-5.62-8.51,5.11-7.71,9.22-.43,8.42-2.63,9.67-10.48,3.64-13.93,1.32-8.61-.71-11.49,3.57-2.41,9.68,1,12,5.68,6.32,4.94,8.78-4.85,9.92-8.87,10.71-6.61,5.56-5.62,10.62S328,162,332,161.22s8.42.44,9.64,2.69,3.64,10.48,1.32,13.93-.76,8.58,3.52,11.45,9.67,2.41,12-1,6.32-5.69,8.81-5,9.87,4.82,10.71,8.87,5.61,6.65,10.66,5.57,8.55-5.17,7.71-9.22.43-8.42,2.63-9.67,10.48-3.64,13.93-1.33,8.62.72,11.49-3.56,2.41-9.68-1-12-5.68-6.32-4.93-8.78,4.81-9.87,8.86-10.71,6.62-5.56,5.62-10.62-5.11-8.52-9.21-7.71-8.43-.43-9.64-2.69S410.45,111,412.77,107.58ZM388.36,127.1a18.74,18.74,0,1,1-26,5.1A18.75,18.75,0,0,1,388.36,127.1Z"/></g><rect class="cls-3" y="163.81" width="560.91" height="166.19" rx="48.85"/><path class="cls-4" d="M537.45,163.81H23.34C10.45,163.81,0,176.21,0,191.49V302.33C0,317.61,10.45,330,23.34,330H537.58c12.88,0,23.33-12.39,23.33-27.67V191.49C560.91,176.21,550.46,163.81,537.45,163.81ZM38.4,310.8a19.2,19.2,0,1,1,19.2-19.2A19.2,19.2,0,0,1,38.4,310.8Zm242.06-12a12,12,0,0,1-12,12H103.79a12,12,0,0,1-12-12V284.4a12,12,0,0,1,12-12H268.46a12,12,0,0,1,12,12Zm55.67,12a19.2,19.2,0,1,1,19.2-19.2A19.2,19.2,0,0,1,336.13,310.8Zm75.59,0a19.2,19.2,0,1,1,19.2-19.2A19.19,19.19,0,0,1,411.72,310.8Z"/><g id="power"><path class="cls-5" d="M480.33,236.55a4.44,4.44,0,0,0,4.44-4.46v-29.8a4.44,4.44,0,0,0-8.88,0v29.8A4.44,4.44,0,0,0,480.33,236.55Z"/><path class="cls-5" d="M498.11,207.53h0c-.07,0-.12-.1-.2-.14a4.48,4.48,0,0,0-6.17,1.13,4.33,4.33,0,0,0,1.14,6.08l.16.07v0a21.7,21.7,0,0,1,9.53,17.93,22.23,22.23,0,0,1-44.45,0,21.72,21.72,0,0,1,9.53-17.93l0,0,.15-.07a4.33,4.33,0,0,0,1.16-6.08,4.49,4.49,0,0,0-6.17-1.13l-.18.15h0a30.36,30.36,0,0,0-13.36,25.09c0,16.91,13.93,30.61,31.11,30.61s31.12-13.7,31.12-30.61A30.45,30.45,0,0,0,498.11,207.53Z"/></g><rect class="cls-5" x="19.2" y="197.95" width="261.26" height="48.96" rx="12"/></g></g></svg>