<svg xmlns="http://www.w3.org/2000/svg" viewBox="0 0 533.38 407.52"><defs><style>.cls-1{fill:#020304;opacity:0.3;isolation:isolate;}.cls-2{fill:#bcbec0;}.cls-3{fill:#dbdddd;}.cls-4{fill:#0e1114;}.cls-5{fill:#222a32;}.cls-11,.cls-6,.cls-7,.cls-8{fill:none;}.cls-7{stroke:#ebeded;stroke-miterlimit:10;}.cls-10,.cls-11,.cls-7,.cls-8{stroke-linecap:round;stroke-width:7.98px;}.cls-8{stroke:#5b6b75;}.cls-10,.cls-11,.cls-8{stroke-linejoin:round;}.cls-10,.cls-9{fill:#5b6b75;}.cls-10{stroke:#fff;}.cls-11{stroke:#f79449;}.cls-12{opacity:0.14;}.cls-13{fill:#ebeded;}.cls-14{fill:#fff;}.cls-15{fill:#f79449;}</style></defs><title>control-panel</title><g id="Layer_2" data-name="Layer 2"><g id="Layer_1-2" data-name="Layer 1"><rect class="cls-1" y="28.19" width="533.38" height="379.33" rx="19.13"/><path class="cls-2" d="M521.88,8.1a8.08,8.08,0,0,0-8.1-8.1H19.6a8.09,8.09,0,0,0-8.1,8.1V36.46H521.88Z"/><circle class="cls-3" cx="30.34" cy="18.51" r="5.37"/><circle class="cls-3" cx="45.67" cy="18.51" r="5.37"/><circle class="cls-3" cx="60.23" cy="18.51" r="5.37"/><path class="cls-3" d="M510.82,11.83A1.92,1.92,0,0,1,509,13.69H494a1.92,1.92,0,0,1-1.86-1.86h0A1.92,1.92,0,0,1,494,10h15a1.93,1.93,0,0,1,1.86,1.87Z"/><path class="cls-3" d="M510.71,25.08a1.92,1.92,0,0,1-1.86,1.86h-15A1.92,1.92,0,0,1,492,25.08h0a1.92,1.92,0,0,1,1.86-1.87h15a2,2,0,0,1,1.86,1.87Z"/><path class="cls-3" d="M510.82,18.51A1.92,1.92,0,0,1,509,20.37H494a1.92,1.92,0,0,1-1.86-1.86h0A1.92,1.92,0,0,1,494,16.64h15a1.85,1.85,0,0,1,1.86,1.87Z"/><path class="cls-3" d="M482.46,23.76a3.3,3.3,0,0,1-3.29,3.29H82.46a3.31,3.31,0,0,1-3.29-3.29V13.25A3.31,3.31,0,0,1,82.46,10H479.17a3.3,3.3,0,0,1,3.29,3.29V23.76Z"/><path class="cls-4" d="M11.5,36.06H521.88a0,0,0,0,1,0,0V376.4a16,16,0,0,1-16,16H27.46a16,16,0,0,1-16-16V36.06a0,0,0,0,1,0,0Z"/><path class="cls-5" d="M11.5,36.06H521.88a0,0,0,0,1,0,0V365a16,16,0,0,1-16,16H27.46a16,16,0,0,1-16-16V36.06A0,0,0,0,1,11.5,36.06Z"/><path class="cls-6" d="M11.5,33.93H521.88a0,0,0,0,1,0,0V369.08a16,16,0,0,1-16,16H27.46a16,16,0,0,1-16-16V33.93a0,0,0,0,1,0,0Z"/><line class="cls-7" x1="285.88" y1="207.48" x2="472.51" y2="207.48"/><line class="cls-7" x1="285.88" y1="322.59" x2="472.51" y2="322.59"/><line class="cls-7" x1="437.68" y1="264.9" x2="285.88" y2="264.9"/><line class="cls-8" x1="264.61" y1="186.21" x2="451.24" y2="186.21"/><line class="cls-8" x1="414.29" y1="243.64" x2="451.24" y2="243.64"/><line class="cls-8" x1="264.61" y1="301.33" x2="451.24" y2="301.33"/><path class="cls-9" d="M299.44,215.19a29.78,29.78,0,1,1,29.77-29.78A29.73,29.73,0,0,1,299.44,215.19Z"/><circle class="cls-10" cx="299.44" cy="185.15" r="19.14"/><path class="cls-9" d="M299.44,331.1a29.78,29.78,0,1,1,29.77-29.77A29.72,29.72,0,0,1,299.44,331.1Z"/><circle class="cls-10" cx="299.44" cy="301.33" r="19.14"/><line class="cls-11" x1="416.41" y1="243.64" x2="264.61" y2="243.64"/><path class="cls-9" d="M416.41,273.68a29.78,29.78,0,1,1,29.78-29.78A29.73,29.73,0,0,1,416.41,273.68Z"/><circle class="cls-10" cx="416.41" cy="243.64" r="19.14"/><g id="gear" class="cls-12"><path class="cls-13" d="M162.36,247.57a7.26,7.26,0,0,0,7.24-7.24v-9.64a7.25,7.25,0,0,0-7.24-7.24h-5c-4,0-8.06-2.64-9.11-5.83s-2.79-13.24,0-16.07l3.56-3.53a7.29,7.29,0,0,0,0-10.24L145,181a7.31,7.31,0,0,0-10.24,0l-3.56,3.56c-2.79,2.8-7.53,3.85-10.48,2.31s-11.42-7.45-11.42-11.41v-5a7.27,7.27,0,0,0-7.25-7.25H92.45a7.27,7.27,0,0,0-7.25,7.25v5c0,4-2.63,8.05-5.82,9.11s-13.24,2.79-16-.05L59.78,181a7.31,7.31,0,0,0-10.24,0l-6.76,6.8a7.31,7.31,0,0,0,0,10.24l3.56,3.57c2.8,2.79,3.85,7.53,2.31,10.48s-7.41,11.42-11.41,11.42h-5A7.26,7.26,0,0,0,25,230.73v9.64a7.27,7.27,0,0,0,7.25,7.24h5c4,0,8,2.63,9.1,5.83s2.8,13.24,0,16L42.74,273a7.24,7.24,0,0,0,0,10.24l6.8,6.81a7.31,7.31,0,0,0,10.24,0l3.57-3.57c2.79-2.79,7.52-3.84,10.48-2.3s11.41,7.4,11.41,11.41v5a7.26,7.26,0,0,0,7.21,7.25h9.63a7.27,7.27,0,0,0,7.25-7.25v-5c0-4,2.63-8.05,5.87-9.11s13.24-2.79,16.07,0l3.56,3.57a7.31,7.31,0,0,0,10.24,0l6.8-6.81a7.29,7.29,0,0,0,0-10.24l-3.56-3.56c-2.79-2.79-3.84-7.53-2.31-10.48s7.45-11.42,11.42-11.42ZM97.27,266.84a31.33,31.33,0,1,1,31.33-31.33A31.35,31.35,0,0,1,97.27,266.84Zm110.79,68.65c2.67,0,4.86-2.71,4.86-6s-2.19-6-4.86-6-5.26-1.34-5.79-2.91-1-7,.89-8.91,1.54-5.34-.81-7.69-5.79-2.71-7.69-.81-4.65,2.79-6.11,2.06-5.71-4.29-5.71-7-2.71-4.86-6-4.86-6,2.19-6,4.86-1.34,5.3-2.92,5.79-7,1-8.9-.89-5.34-1.54-7.69.81-2.71,5.83-.85,7.69,2.79,4.66,2,6.11-4.29,5.71-7,5.71-4.86,2.67-4.86,6,2.19,6,4.86,6,5.3,1.34,5.83,2.92,1,7-.89,8.9-1.54,5.39.85,7.69,5.83,2.72,7.69.81,4.65-2.79,6.11-2.06,5.71,4.29,5.71,7,2.71,4.86,6,4.86,6-2.19,6-4.86,1.34-5.3,2.92-5.79,7-1,8.9.89,5.34,1.54,7.69-.81,2.71-5.78.81-7.69-2.79-4.65-2-6.11S205.39,335.49,208.06,335.49Zm-19.19-6a12.06,12.06,0,1,1-12.06-12.06A12.07,12.07,0,0,1,188.87,329.46Z"/></g><path class="cls-14" d="M353.24,97.52c-.56.08-1.11.14-1.66.18l-1.72.13v11.54H339.11V63.77h10.75a21.38,21.38,0,0,1,7.51,1.43,20.86,20.86,0,0,1,6.14,3.68,17.1,17.1,0,0,1,4.14,5.35,15.28,15.28,0,0,1-.1,13.37,16.59,16.59,0,0,1-4.45,5.45l10.31,16.32H360.74Zm-3.81-10.45a10.87,10.87,0,0,0,3.23-.6,9.65,9.65,0,0,0,2.69-1.4,6.7,6.7,0,0,0,1.81-2,4.92,4.92,0,0,0,.66-2.47,4.79,4.79,0,0,0-.66-2.45,6.81,6.81,0,0,0-1.81-2,9.94,9.94,0,0,0-2.69-1.41,11.19,11.19,0,0,0-3.23-.59Z"/><path class="cls-14" d="M387.29,109.37H377V63.77h10.32Z"/><path class="cls-14" d="M421.29,83a19.11,19.11,0,0,1-1.43,7.36,19.35,19.35,0,0,1-4,6.06,19.56,19.56,0,0,1-5.9,4.13,18.06,18.06,0,0,1-7.21,1.58v7.27H392.45V63.77h10.33A17.6,17.6,0,0,1,410,65.39a19.65,19.65,0,0,1,5.9,4.16A19.07,19.07,0,0,1,421.29,83Zm-18.51,8.49a8.27,8.27,0,0,0,3.27-.78,9,9,0,0,0,2.65-1.88,8.64,8.64,0,0,0,2.43-6,8.57,8.57,0,0,0-.65-3.31,8.77,8.77,0,0,0-1.78-2.73,9,9,0,0,0-2.65-1.87,8.45,8.45,0,0,0-3.27-.79Z"/><path class="cls-14" d="M455.69,74.09H436.76V81h15.49V91.3H436.76v7.32h18.93v10.75H426.44V63.77l29.25-.06Z"/><path class="cls-14" d="M294.64,87.36a14.11,14.11,0,0,0-6.11-5.22,22.27,22.27,0,0,0-2.1-.83c-.7-.24-1.38-.46-2.05-.66s-1.47-.48-2.14-.74a13.08,13.08,0,0,1-1.84-.86,2.88,2.88,0,0,1-1.19-1.63,2.64,2.64,0,0,1,.18-2,2.3,2.3,0,0,1,.95-1A3.55,3.55,0,0,1,281.5,74a3.42,3.42,0,0,1,1,0,4.63,4.63,0,0,1,2.08.8,2.32,2.32,0,0,1,.86,1.9h10a12.69,12.69,0,0,0-.7-4.21,12.21,12.21,0,0,0-2-3.65,13.26,13.26,0,0,0-3.16-2.8,13.46,13.46,0,0,0-4.08-1.69,14,14,0,0,0-4.57-.41,12.77,12.77,0,0,0-9.18,4.91l.15.12a17,17,0,0,1,4,5.33,14.88,14.88,0,0,1,1.46,6.51,15.1,15.1,0,0,1-1.55,6.78c-.06.11-.12.21-.17.32a17.66,17.66,0,0,0,2.64,1.27c1.07.39,2.1.75,3.09,1.06.55.2,1.08.38,1.57.54s1,.34,1.4.53a5.26,5.26,0,0,1,1.34.93,4.19,4.19,0,0,1,.77,1,3.21,3.21,0,0,1,.33,1c0,.32.06.58.06.78s0,.45-.06.77a2.84,2.84,0,0,1-.33,1,5.14,5.14,0,0,1-.77,1,4.18,4.18,0,0,1-1.34.89,5.18,5.18,0,0,1-2.43.47,4.43,4.43,0,0,1-2.32-.77,5.58,5.58,0,0,1-1.37-1.34,4.38,4.38,0,0,1-.77-2.76h-5.16l9.21,14.89.7,0a15.9,15.9,0,0,0,3.21-.33,13.61,13.61,0,0,0,3.14-1,14,14,0,0,0,6.11-5.22,14.29,14.29,0,0,0,0-15.27Z"/><path class="cls-14" d="M334,63.77V74.09H322.76v35.28H311.58V74.09H300.39V63.77Z"/><path class="cls-15" d="M139.5,63.77V74.09H128.31v35.28H117.13V74.09H105.94V63.77Z"/><path class="cls-15" d="M155,109.37H144.66l.07-45.6H155Z"/><path class="cls-15" d="M201.44,83.91v25.46H190.69v-1.29a20,20,0,0,1-3.61,1,24.29,24.29,0,0,1-3.68.28,23.94,23.94,0,0,1-8.75-1.67,22.72,22.72,0,0,1-7.68-5,22,22,0,0,1-5.06-7.52,22.93,22.93,0,0,1-1.67-8.57,23.2,23.2,0,0,1,1.67-8.6A21.87,21.87,0,0,1,167,70.45a22.57,22.57,0,0,1,7.68-5,23.73,23.73,0,0,1,17.49,0,22.57,22.57,0,0,1,7.68,5l-7.55,7.43a12,12,0,0,0-4.16-2.7,12.93,12.93,0,0,0-9.43,0,12,12,0,0,0-4.16,2.7,12.28,12.28,0,0,0,3.68,20,12.59,12.59,0,0,0,4.22,1,13.38,13.38,0,0,0,4.31-.4,20.22,20.22,0,0,0,4.39-1.86V94.31h-9.46V84Z"/><path class="cls-15" d="M236.29,74.09H216.93V81h15.49V91.73H216.93v7.32h19.36v10.32H206.61V63.77l29.68-.06Z"/><path class="cls-15" d="M255.58,97.52c-.55.08-1.1.14-1.65.19l-1.72.12v11.54H241.45V63.77h10.76a21.43,21.43,0,0,1,7.51,1.43,20.86,20.86,0,0,1,6.14,3.68A17,17,0,0,1,270,74.23a15.28,15.28,0,0,1-.1,13.37,16.51,16.51,0,0,1-4.45,5.45l10.3,16.32H263.09Zm-3.37-10.09a11.12,11.12,0,0,0,3.22-.59,9.55,9.55,0,0,0,2.69-1.41,6.68,6.68,0,0,0,1.81-2,4.89,4.89,0,0,0,.66-2.47,4.73,4.73,0,0,0-.66-2.44,6.82,6.82,0,0,0-1.81-2,10.09,10.09,0,0,0-2.69-1.41,11.12,11.12,0,0,0-3.22-.59Z"/><path class="cls-15" d="M314,129.66a7.45,7.45,0,0,1-2.74-.52,7.1,7.1,0,0,1-2.42-1.6,7.43,7.43,0,0,1-1.57-2.37,7.29,7.29,0,0,1,4-9.56,7.31,7.31,0,0,1,2.74-.54,7.23,7.23,0,0,1,2.74.54,7.12,7.12,0,0,1,2.42,1.61l-2.37,2.36a3.64,3.64,0,0,0-1.31-.86,3.87,3.87,0,0,0-1.49-.29,3.78,3.78,0,0,0-1.47.29,3.6,3.6,0,0,0-1.3.86,4.11,4.11,0,0,0-.86,1.29,3.88,3.88,0,0,0-.3,1.51,3.79,3.79,0,0,0,.3,1.5,4.3,4.3,0,0,0,.86,1.28,3.74,3.74,0,0,0,1.3.86,4,4,0,0,0,1.47.29,4.07,4.07,0,0,0,1.49-.29,3.78,3.78,0,0,0,1.31-.86l2.37,2.38a7.15,7.15,0,0,1-2.41,1.6A7.4,7.4,0,0,1,314,129.66Z"/><path class="cls-15" d="M326.43,115.09a6.92,6.92,0,0,1,2.83.58,7.29,7.29,0,0,1,2.32,1.56,7.3,7.3,0,0,1,1.57,8,7.39,7.39,0,0,1-1.57,2.31,7.63,7.63,0,0,1-2.32,1.56,7.31,7.31,0,0,1-5.66,0,7.47,7.47,0,0,1-2.31-1.56,7.36,7.36,0,0,1-1.56-2.31,7.3,7.3,0,0,1,3.87-9.55A6.92,6.92,0,0,1,326.43,115.09Zm0,11.22A4,4,0,0,0,328,126a4.29,4.29,0,0,0,1.25-.84,3.93,3.93,0,0,0,.84-1.25,3.93,3.93,0,0,0,0-3.06,3.82,3.82,0,0,0-.84-1.25,4.13,4.13,0,0,0-1.25-.85,4.05,4.05,0,0,0-3.06,0,4,4,0,0,0-1.25.85,3.82,3.82,0,0,0-.84,1.25,3.93,3.93,0,0,0,0,3.06,3.93,3.93,0,0,0,.84,1.25,4.16,4.16,0,0,0,1.25.84A4,4,0,0,0,326.44,126.31Z"/><path class="cls-15" d="M343.13,115.11h3.36v14.57h-3.64l-4.76-8.49v8.49h-3.35V115.15h3.65l4.74,8.48Z"/><path class="cls-15" d="M356.69,115.05v3.36h-2.8v11.27h-3.36V118.41h-2.77v-3.36Z"/><path class="cls-15" d="M362.52,125.91a4.43,4.43,0,0,1-.51.06l-.54,0v3.67h-3.35V115.17h3.35a6.68,6.68,0,0,1,2.34.46,6.42,6.42,0,0,1,1.92,1.17,5.44,5.44,0,0,1,1.29,1.7,4.9,4.9,0,0,1,0,4.25,5.3,5.3,0,0,1-1.39,1.74l3.21,5.19h-3.95Zm-1-3.27a3.76,3.76,0,0,0,1-.19,3.18,3.18,0,0,0,.86-.45,2.16,2.16,0,0,0,.57-.64,1.58,1.58,0,0,0,.21-.79,1.49,1.49,0,0,0-.21-.77,2.29,2.29,0,0,0-.57-.64,3.17,3.17,0,0,0-.86-.44,3.13,3.13,0,0,0-1-.19Z"/><path class="cls-15" d="M376.57,115.09a7,7,0,0,1,2.83.58,7.4,7.4,0,0,1,2.32,1.56,7.14,7.14,0,0,1,1.56,2.31,7.24,7.24,0,0,1,0,5.68,7.36,7.36,0,0,1-1.56,2.31,7.76,7.76,0,0,1-2.32,1.56,7.34,7.34,0,0,1-5.67,0,7.71,7.71,0,0,1-2.31-1.56,7.5,7.5,0,0,1-1.55-2.31,7.24,7.24,0,0,1,0-5.68,7.27,7.27,0,0,1,1.55-2.31,7.36,7.36,0,0,1,2.31-1.56A7,7,0,0,1,376.57,115.09Zm0,11.22a3.86,3.86,0,0,0,1.52-.31,4,4,0,0,0,1.25-.84,4.13,4.13,0,0,0,.85-1.25,4.05,4.05,0,0,0,0-3.06,4,4,0,0,0-.85-1.25,3.9,3.9,0,0,0-1.25-.85,4,4,0,0,0-3.05,0,3.9,3.9,0,0,0-1.25.85,4,4,0,0,0-.85,1.25,4.05,4.05,0,0,0,0,3.06,4.13,4.13,0,0,0,.85,1.25,4,4,0,0,0,1.25.84A3.87,3.87,0,0,0,376.58,126.31Z"/><path class="cls-15" d="M393.54,129.68h-8.67V115.09h3.36v11.24h5.31Z"/><path class="cls-15" d="M407.66,121.25a6.06,6.06,0,0,1-1.76,4.28,6.16,6.16,0,0,1-1.91,1.32,5.8,5.8,0,0,1-2.35.51v2.32h-3.35V115.11h3.35a6,6,0,0,1,2.35.52A6.37,6.37,0,0,1,405.9,117a6.06,6.06,0,0,1,1.76,4.29Zm-6,2.75a2.6,2.6,0,0,0,1-.24,3.1,3.1,0,0,0,.85-.6,2.8,2.8,0,0,0,0-3.85,2.87,2.87,0,0,0-.85-.59,2.45,2.45,0,0,0-1-.25Z"/><path class="cls-15" d="M418,129.68l-.58-1.77h-4.58l-.6,1.77h-3.55l5-14.57h3.18l4.7,14.57Zm-4-5.12h2.36L415.18,121Z"/><path class="cls-15" d="M430.9,115.11h3.35v14.57h-3.63l-4.76-8.49v8.49H422.5V115.15h3.66l4.74,8.48Z"/><path class="cls-15" d="M445.23,118.47h-6v2.2h4.87V124h-4.87v2.31h6v3.35h-9.35V115.13l9.35,0Z"/><path class="cls-15" d="M455.63,129.68H447V115.09h3.35v11.24h5.32Z"/></g></g></svg>