<svg xmlns="http://www.w3.org/2000/svg" viewBox="0 0 188.45 200"><defs><style>.cls-1{fill:#37444f;}.cls-2{fill:#009444;}.cls-3{fill:#f79449;}.cls-4{opacity:0.5;}.cls-5{fill:#fff;}</style></defs><title>data</title><g id="Layer_2" data-name="Layer 2"><g id="Layer_1-2" data-name="Layer 1"><g id="server_rack" data-name="server rack"><g id="_386-server-rack.png" data-name="386-server-rack.png"><path class="cls-1" d="M158.65,89.67H6.92A6.89,6.89,0,0,0,0,96.56v27.58A6.88,6.88,0,0,0,6.92,131H158.69a6.88,6.88,0,0,0,6.88-6.89V96.56A6.9,6.9,0,0,0,158.65,89.67ZM13.81,124.18a6.89,6.89,0,1,1,6.89-6.89A6.89,6.89,0,0,1,13.81,124.18ZM131.07,0H34.51L0,34.51H165.54Zm27.58,138H6.92A6.89,6.89,0,0,0,0,144.84v27.58a6.88,6.88,0,0,0,6.88,6.89H158.69a6.88,6.88,0,0,0,6.88-6.89V144.84A6.9,6.9,0,0,0,158.65,138ZM13.81,172.46a6.89,6.89,0,1,1,6.89-6.89A6.89,6.89,0,0,1,13.81,172.46ZM158.65,41.39H6.92A6.89,6.89,0,0,0,0,48.28V75.86a6.88,6.88,0,0,0,6.88,6.89H158.69a6.88,6.88,0,0,0,6.88-6.89V48.28A6.9,6.9,0,0,0,158.65,41.39ZM13.81,75.86A6.89,6.89,0,1,1,20.7,69,6.89,6.89,0,0,1,13.81,75.86Z"/></g></g><circle class="cls-2" cx="13.81" cy="68.98" r="6.9"/><circle class="cls-2" cx="13.81" cy="117.29" r="6.9"/><circle class="cls-2" cx="13.81" cy="165.61" r="6.9"/><rect class="cls-3" x="117.21" y="150.78" width="71.24" height="49.22" rx="20.33"/><g class="cls-4"><path class="cls-5" d="M139.79,188.19a9.7,9.7,0,0,1-6.79-2.75,10,10,0,0,1-2.14-3.14,9.87,9.87,0,0,1-.79-3.72v-16H136v15.95a3.65,3.65,0,0,0,1.15,2.68,3.82,3.82,0,0,0,2.71,1.08,3.56,3.56,0,0,0,1.47-.31,4,4,0,0,0,1.21-.84,3.58,3.58,0,0,0,.81-1.21,4.16,4.16,0,0,0,.27-1.5V162.59h5.89V178.4a9.32,9.32,0,0,1-.71,3.76,9.83,9.83,0,0,1-5.12,5.21,9.53,9.53,0,0,1-3.75.82Z"/><path class="cls-5" d="M175.59,162.59l-13.13,12.82,13.13,12.78h-8.5l-8.22-8.05v8.05H153v-25.6h5.88v8.08l8.25-8.08Z"/></g></g></g></svg>