<svg xmlns="http://www.w3.org/2000/svg" xmlns:xlink="http://www.w3.org/1999/xlink" viewBox="0 0 402.54 512.05"><defs><style>.cls-1{fill:#36434f;}.cls-10,.cls-2{fill:#fff;}.cls-2,.cls-9{opacity:0.5;}.cls-3{fill:url(#Sky);}.cls-4{fill:url(#Sky-2);}.cls-5{fill:url(#Sky-3);}.cls-6{fill:url(#Sky-4);}.cls-7{fill:url(#Sky-5);}.cls-8{fill:url(#Sky-6);}</style><linearGradient id="Sky" x1="272.89" y1="75.92" x2="128" y2="326.88" gradientUnits="userSpaceOnUse"><stop offset="0" stop-color="#cce0f4"/><stop offset="0.06" stop-color="#c3dcf2"/><stop offset="0.17" stop-color="#a9d2ee"/><stop offset="0.31" stop-color="#80c2e7"/><stop offset="0.46" stop-color="#47acde"/><stop offset="0.57" stop-color="#1e9cd7"/><stop offset="0.87" stop-color="#0075be"/><stop offset="0.99" stop-color="#005b97"/></linearGradient><linearGradient id="Sky-2" x1="287.3" y1="510.19" x2="330.17" y2="435.94" xlink:href="#Sky"/><linearGradient id="Sky-3" x1="73.13" y1="510.19" x2="116" y2="435.94" xlink:href="#Sky"/><linearGradient id="Sky-4" x1="126.67" y1="510.19" x2="169.54" y2="435.94" xlink:href="#Sky"/><linearGradient id="Sky-5" x1="180.21" y1="510.19" x2="223.08" y2="435.94" xlink:href="#Sky"/><linearGradient id="Sky-6" x1="233.75" y1="510.19" x2="276.62" y2="435.94" xlink:href="#Sky"/></defs><title>designed-for-wordpress</title><g id="Layer_2" data-name="Layer 2"><g id="Layer_1-2" data-name="Layer 1"><rect class="cls-1" width="402.54" height="512.05" rx="12"/><circle class="cls-2" cx="29.77" cy="30.51" r="19.75"/><circle class="cls-2" cx="372.79" cy="30.51" r="19.75"/><circle class="cls-2" cx="29.76" cy="480.72" r="19.75"/><circle class="cls-2" cx="372.78" cy="480.72" r="19.75"/><rect class="cls-3" x="75.53" y="101.13" width="249.83" height="200.54" rx="12"/><path class="cls-4" d="M296.17,431.25h24.36a5.65,5.65,0,0,1,5.65,5.65v75.16a0,0,0,0,1,0,0H290.52a0,0,0,0,1,0,0V436.89A5.65,5.65,0,0,1,296.17,431.25Z"/><path class="cls-5" d="M82,431.25h24.36a5.65,5.65,0,0,1,5.65,5.65v75.16a0,0,0,0,1,0,0H76.35a0,0,0,0,1,0,0V436.89A5.65,5.65,0,0,1,82,431.25Z"/><path class="cls-6" d="M135.54,431.25h24.36a5.65,5.65,0,0,1,5.65,5.65v75.16a0,0,0,0,1,0,0H129.9a0,0,0,0,1,0,0V436.89A5.65,5.65,0,0,1,135.54,431.25Z"/><path class="cls-7" d="M189.09,431.25h24.36a5.65,5.65,0,0,1,5.65,5.65v75.16a0,0,0,0,1,0,0H183.44a0,0,0,0,1,0,0V436.89A5.65,5.65,0,0,1,189.09,431.25Z"/><path class="cls-8" d="M242.63,431.25H267a5.65,5.65,0,0,1,5.65,5.65v75.16a0,0,0,0,1,0,0H237a0,0,0,0,1,0,0V436.89A5.65,5.65,0,0,1,242.63,431.25Z"/><g class="cls-9"><path class="cls-10" d="M113.23,201.44c-.07-48,39-87.11,87.22-87.24,48-.14,87.2,39,87.21,87.17a87.22,87.22,0,0,1-174.43.07Zm5.26,0a82,82,0,1,0,82.09-82A81.86,81.86,0,0,0,118.49,201.43Z"/><path class="cls-10" d="M156,167.41c2.68-.23,4.89-.34,7.09-.61,2.79-.34,4.15-1.59,3.83-3.5-.4-2.42-2.14-2.75-4.24-2.64-6.42.34-12.85.61-19.27.87a29.19,29.19,0,0,1-3.14-.18c22.62-36.7,76.91-43.84,108.57-13.77-6.45.53-10.46,3.94-12.06,10.07a14.32,14.32,0,0,0,1.09,9.78,63.2,63.2,0,0,0,4.51,8.34c7.19,10.85,8.88,22.44,5.1,34.86-3.46,11.37-6.94,22.74-10.66,34.89l-26.21-78c1.42-.19,2.64-.37,3.86-.51,1.53-.18,3.23,0,4.54-.6a4.61,4.61,0,0,0,2.39-3c.19-1.67-1.12-2.82-3-2.74-2.83.13-5.65.5-8.47.48-9,0-18-.24-27-.37-1.2,0-2.55-.43-3.55,0a4.88,4.88,0,0,0-2.58,2.61,2.36,2.36,0,0,0,2.15,3.15c2.12.32,4.28.35,6.37.78A3.27,3.27,0,0,1,187.5,169q5.25,13.93,10.25,28a4.45,4.45,0,0,1,.07,2.7q-7.44,22.56-15,45.08c-.05.14-.22.25-.6.68C173.49,219.4,164.83,193.61,156,167.41Z"/><path class="cls-10" d="M201.75,207.87c7.68,21,15.12,41.41,22.56,61.79-9.9,4.78-29.59,6.15-44.26,1.34C187.2,250.19,194.36,229.38,201.75,207.87Z"/><path class="cls-10" d="M168.6,266.53C132.46,249,118.8,206,134.15,172.17Z"/><path class="cls-10" d="M237.23,263.84c5-14.39,9.77-28.3,14.6-42.2,2.95-8.49,6.08-16.92,8.86-25.46a86.21,86.21,0,0,0,3.46-13.93c.69-4.67.55-9.47.75-13.81C281.5,196.93,273.67,242.88,237.23,263.84Z"/></g></g></g></svg>