<svg xmlns="http://www.w3.org/2000/svg" viewBox="0 0 299.58 300"><defs><style>.cls-1{fill:#f79449;}.cls-2{fill:#d37533;}.cls-3{fill:#2b424f;}.cls-4{fill:#edf0f0;}</style></defs><title>domains-no-shadow</title><g id="Layer_2" data-name="Layer 2"><g id="Layer_1-2" data-name="Layer 1"><g id="Rounded_Rectangle_5_copy_26" data-name="Rounded Rectangle 5 copy 26"><path class="cls-1" d="M245.63,0H54A54,54,0,0,0,0,54V245.63a54,54,0,0,0,54,53.95H245.63a53.94,53.94,0,0,0,53.95-53.95V54A54,54,0,0,0,245.63,0Z"/></g><path class="cls-2" d="M47.64,175.66,172,300l73.64-.42s50.89,1.16,53.95-53.95l-53.33-121.7-12.14,51.73-8.37-22.81Z"/><polygon class="cls-2" points="132.27 175.66 145.94 123.93 183.9 161.88 132.27 175.66"/><polygon class="cls-2" points="203.16 175.66 216.83 123.93 254.79 161.88 203.16 175.66"/><polygon class="cls-2" points="47.65 175.66 50.85 123.93 95.88 168.96 47.65 175.66"/><polygon class="cls-2" points="61.27 175.66 74.94 123.93 113.44 162.43 61.27 175.66"/><polygon class="cls-2" points="92.11 175.66 104.25 123.93 142.34 162.02 92.11 175.66"/><polygon class="cls-2" points="163.11 175.66 175.25 123.93 213.34 162.02 163.11 175.66"/><polygon class="cls-2" points="118.64 175.66 121.85 123.93 167.19 169.27 118.64 175.66"/><polygon class="cls-2" points="189.58 175.66 192.78 123.93 238.13 169.27 189.58 175.66"/><polygon class="cls-2" points="246.25 123.93 298.78 176.46 299.58 245.63 246.25 123.93"/><path class="cls-3" d="M83.45,152.85h.29l5.12-28.92h15.39L92.11,175.66H78.43L70,149.17h-.29l-8.46,26.49H47.64L35.45,123.93h15.4L56,153h.29l8.46-29.11H74.94Z"/><path class="cls-3" d="M154.45,152.85h.29l5.12-28.92h15.39l-12.14,51.73H149.43L141,149.17h-.29l-8.46,26.49H118.64l-12.19-51.73h15.4L127,153h.29l8.46-29.11h10.18Z"/><path class="cls-3" d="M225.45,152.85h.29l5.12-28.92h15.39l-12.14,51.73H220.43L212,149.17h-.29l-8.46,26.49H189.64l-12.19-51.73h15.4L198,153h.29l8.46-29.11h10.18Z"/><path class="cls-4" d="M264.13,175.66H248V162.08h16.11Z"/></g></g></svg>