<svg xmlns="http://www.w3.org/2000/svg" viewBox="0 0 350 350"><defs><style>.cls-1{fill:#f79449;}.cls-2{fill:#edf0f0;}.cls-3{fill:none;}</style></defs><title>domains</title><g id="Layer_2" data-name="Layer 2"><g id="Layer_1-2" data-name="Layer 1"><path class="cls-1" d="M73.79,315.21h.44L82,271.08h23.49L87,350H66.13L53.29,309.59h-.43L40,350H19.16L.56,271.08H24l7.88,44.42h.44l12.91-44.42H60.81Z"/><path class="cls-1" d="M182.11,315.21h.44l7.8-44.13h23.49L195.31,350H174.45l-12.84-40.41h-.43L148.27,350H127.48l-18.6-78.92h23.48l7.88,44.42h.44l12.91-44.42h15.54Z"/><path class="cls-1" d="M290.43,315.21h.44l7.81-44.13h23.48L303.64,350H282.77l-12.83-40.41h-.44L256.59,350H235.8l-18.6-78.92h23.49l7.87,44.42H249l12.91-44.42h15.54Z"/><path class="cls-2" d="M349.44,350H324.86V329.28h24.58Z"/><rect class="cls-3" width="350" height="350"/></g></g></svg>