<svg xmlns="http://www.w3.org/2000/svg" viewBox="0 0 800 500.45"><defs><style>.cls-1{fill:#f79449;}.cls-2{opacity:0.5;}.cls-3{fill:#fff;}</style></defs><title>free-switch-service</title><g id="Layer_2" data-name="Layer 2"><g id="Layer_1-2" data-name="Layer 1"><g id="Arrow_Up" data-name="Arrow Up"><polygon class="cls-1" points="608.45 333.45 608.45 236.74 235.87 236.74 235.87 96.42 608.45 96.42 608.45 0 800 166.72 608.45 333.45"/></g><g id="Arrow_Up-2" data-name="Arrow Up"><polygon class="cls-1" points="191.55 167 191.55 263.71 564.13 263.71 564.13 404.03 191.55 404.03 191.55 500.45 0 333.73 191.55 167"/></g><g class="cls-2"><path class="cls-3" d="M326.19,174.36H298.13v30.85h-17.8V128.55h51.23v13.69H298.13v18.43h28.06Z"/><path class="cls-3" d="M358.3,175.83v29.38H340.51V128.55H367.2q13.32,0,21.11,6.16t7.79,16.85A16.74,16.74,0,0,1,393,161.77a22.17,22.17,0,0,1-9.24,6.95c4.71,1.34,8.08,3.56,10.14,6.66A20.66,20.66,0,0,1,397,187v4.84a30.31,30.31,0,0,0,.89,6.85,9.07,9.07,0,0,0,3.11,5.48v1.05H382.57q-2.1-1.64-2.73-5.74a51.28,51.28,0,0,1-.64-7.74V187.1q0-5.47-2.89-8.37t-8.48-2.9Zm0-13.69h9c3.58,0,6.31-.81,8.21-2.45a8.77,8.77,0,0,0,2.84-7,10.1,10.1,0,0,0-2.92-7.56c-1.95-1.91-4.69-2.87-8.24-2.87h-8.9Z"/><path class="cls-3" d="M454.07,172.41h-27v19.11h32.38v13.69H409.27V128.55h50.22v13.69H427.06v16.48h27Z"/><path class="cls-3" d="M514.25,172.41h-27v19.11h32.37v13.69H469.44V128.55h50.23v13.69H487.24v16.48h27Z"/></g><g class="cls-2"><path class="cls-3" d="M173.67,349.89a7.66,7.66,0,0,0-2.68-6.3q-2.69-2.18-9.74-4.65-14.28-4.63-21.19-9.88T133.13,314a18.49,18.49,0,0,1,8.06-15.58q8.06-6,20.48-5.95,13.11,0,21.11,6.13t7.74,17.3l-.11.31H173.14c0-3.61-1-6.24-2.94-7.87s-4.94-2.45-8.9-2.45a11.43,11.43,0,0,0-7.64,2.37,7.38,7.38,0,0,0-2.79,5.85,6.3,6.3,0,0,0,2.87,5.39q2.88,2,10.72,5.08,13.32,4,20.16,9.64t6.84,15.58q0,10.11-7.89,15.82t-21,5.71q-13,0-22-6.13t-8.76-19.29l.1-.32h17.32q0,6.69,3.29,9.5t10.08,2.82c3.72,0,6.5-.74,8.32-2.21A7.09,7.09,0,0,0,173.67,349.89Z"/><path class="cls-3" d="M262.8,343.25h.32l9.26-49.7h18L272.8,370.21H256.06l-12.9-47.33h-.31l-12.79,47.33H213.31l-17.63-76.66h18L223,343.31l.32.05,13-49.81h13.43Z"/><path class="cls-3" d="M316.08,370.21H298.34V293.55h17.74Z"/><path class="cls-3" d="M381.21,307.24H360.94v63h-17.8v-63h-19.9V293.55h58Z"/><path class="cls-3" d="M445.8,344.36l.11.31q.21,13.11-7.4,19.88T417,371.31q-14.2,0-22.82-8.68t-8.61-22.75v-16q0-14,8.29-22.72t21.93-8.71q14.58,0,22.56,6.79T446.07,319l-.16.32H428.59q0-7.05-3-10.11t-9.85-3.05a10.4,10.4,0,0,0-9.21,4.81q-3.21,4.83-3.21,12.82v16.11q0,8.06,3.52,12.9A11.76,11.76,0,0,0,417,357.63q6.1,0,8.82-3.06t2.71-10.21Z"/><path class="cls-3" d="M519.67,370.21H501.92V339.36H473.55v30.85h-17.8V293.55h17.8v32.12h28.37V293.55h17.75Z"/></g></g></g></svg>