<svg xmlns="http://www.w3.org/2000/svg" viewBox="0 0 312.05 396.7"><defs><style>.cls-1{fill:#666;}.cls-2{fill:#5b5b5b;}.cls-3{fill:#f79449;}.cls-4{fill:#e28444;}.cls-5{fill:#fff;}</style></defs><title>free-switch</title><g id="Layer_2" data-name="Layer 2"><g id="Layer_1-2" data-name="Layer 1"><polygon class="cls-1" points="87.55 263.13 87.55 396.7 156.03 360.78 224.5 396.7 224.5 263.13 87.55 263.13"/><polygon class="cls-2" points="156.03 263.13 87.55 263.13 87.55 396.7 156.03 360.78 156.03 263.13"/><circle class="cls-3" cx="156.03" cy="156.03" r="156.03"/><path class="cls-4" d="M155.8,0a156,156,0,0,0,0,312.05Z"/><circle class="cls-5" cx="156.03" cy="156.03" r="148.17"/><circle class="cls-3" cx="156.03" cy="156.03" r="140.31"/><path class="cls-4" d="M155.8,15.72a140.31,140.31,0,0,0,0,280.61Z"/><circle class="cls-5" cx="156.03" cy="156.03" r="129.65"/><path class="cls-3" d="M66.74,239.65a122.28,122.28,0,0,0,178.57,0Z"/><path class="cls-4" d="M66.74,239.65a122,122,0,0,0,89.06,38.72V239.65Z"/><path class="cls-3" d="M245.31,72.4a122.28,122.28,0,0,0-178.57,0Z"/><path class="cls-4" d="M155.8,72.4V33.68A122,122,0,0,0,66.74,72.4Z"/><path class="cls-3" d="M87,100.3V85.93h4.71a6.8,6.8,0,0,1,4,1,3.36,3.36,0,0,1,1.42,3,3.13,3.13,0,0,1-.51,1.76,3.09,3.09,0,0,1-1.5,1.18,3.05,3.05,0,0,1,2,1.16,3.46,3.46,0,0,1,.68,2.14,3.69,3.69,0,0,1-1.36,3.12,6.1,6.1,0,0,1-3.85,1.07ZM89.88,92h1.93a2.89,2.89,0,0,0,1.77-.47,1.62,1.62,0,0,0,.62-1.38,1.73,1.73,0,0,0-.62-1.47,3.05,3.05,0,0,0-1.87-.48H89.88Zm0,2v4.15h2.68a2.67,2.67,0,0,0,1.74-.5,1.82,1.82,0,0,0,.6-1.48,2.11,2.11,0,0,0-.59-1.61,2.52,2.52,0,0,0-1.78-.56Z"/><path class="cls-3" d="M111.26,85.93v9.4a4.73,4.73,0,0,1-1.61,3.8,7,7,0,0,1-8.32,0,4.74,4.74,0,0,1-1.59-3.8v-9.4h2.89v9.4a2.92,2.92,0,0,0,.77,2.2,2.8,2.8,0,0,0,2.08.76,2.87,2.87,0,0,0,2.11-.76,2.92,2.92,0,0,0,.78-2.2v-9.4Z"/><path class="cls-3" d="M121.24,96.55a1.67,1.67,0,0,0-.57-1.33,5.65,5.65,0,0,0-2-1,11.44,11.44,0,0,1-3.77-1.77,3.34,3.34,0,0,1-1.29-2.77A3.49,3.49,0,0,1,115,86.84a5.92,5.92,0,0,1,3.7-1.12,5.85,5.85,0,0,1,3.84,1.21A3.77,3.77,0,0,1,124,90.09l0,0h-2.79a2.09,2.09,0,0,0-.66-1.65,2.67,2.67,0,0,0-1.82-.58,2.43,2.43,0,0,0-1.65.52,1.66,1.66,0,0,0-.58,1.31,1.43,1.43,0,0,0,.63,1.2,8.61,8.61,0,0,0,2.18,1,9.42,9.42,0,0,1,3.61,1.75,3.59,3.59,0,0,1,1.25,2.85,3.41,3.41,0,0,1-1.45,2.91,6.22,6.22,0,0,1-3.8,1.06,6.77,6.77,0,0,1-4-1.15,3.82,3.82,0,0,1-1.62-3.44l0-.06h2.79a2.25,2.25,0,0,0,.75,1.87,3.18,3.18,0,0,0,2,.6,2.79,2.79,0,0,0,1.76-.48A1.57,1.57,0,0,0,121.24,96.55Z"/><path class="cls-3" d="M129.32,100.3h-2.88V85.93h2.88Z"/><path class="cls-3" d="M143.79,100.3h-2.88l-5.79-9.69h-.06v9.68h-2.88V85.93h2.88l5.79,9.68h.06V85.93h2.88Z"/><path class="cls-3" d="M154.64,94h-5.33v4.11h6.34v2.21h-9.22V85.93h9.2v2.22h-6.32v3.61h5.33Z"/><path class="cls-3" d="M165.16,96.55a1.68,1.68,0,0,0-.58-1.33,5.65,5.65,0,0,0-2-1,11.44,11.44,0,0,1-3.77-1.77,3.34,3.34,0,0,1-1.29-2.77,3.49,3.49,0,0,1,1.45-2.89,5.92,5.92,0,0,1,3.7-1.12,5.85,5.85,0,0,1,3.84,1.21,3.77,3.77,0,0,1,1.41,3.16l0,0h-2.79a2.12,2.12,0,0,0-.65-1.65,2.71,2.71,0,0,0-1.83-.58,2.43,2.43,0,0,0-1.65.52,1.69,1.69,0,0,0-.58,1.31,1.43,1.43,0,0,0,.63,1.2,8.61,8.61,0,0,0,2.18,1,9.34,9.34,0,0,1,3.61,1.75A3.59,3.59,0,0,1,168,96.53a3.43,3.43,0,0,1-1.44,2.91,6.26,6.26,0,0,1-3.81,1.06,6.79,6.79,0,0,1-4-1.15,3.82,3.82,0,0,1-1.62-3.44l0-.06H160a2.25,2.25,0,0,0,.75,1.87,3.15,3.15,0,0,0,2,.6,2.79,2.79,0,0,0,1.76-.48A1.57,1.57,0,0,0,165.16,96.55Z"/><path class="cls-3" d="M177.65,96.55a1.68,1.68,0,0,0-.58-1.33,5.65,5.65,0,0,0-2-1,11.44,11.44,0,0,1-3.77-1.77A3.34,3.34,0,0,1,170,89.73a3.49,3.49,0,0,1,1.45-2.89,5.92,5.92,0,0,1,3.7-1.12A5.85,5.85,0,0,1,179,86.93a3.77,3.77,0,0,1,1.41,3.16l0,0h-2.79a2.12,2.12,0,0,0-.65-1.65,2.71,2.71,0,0,0-1.83-.58,2.43,2.43,0,0,0-1.65.52,1.69,1.69,0,0,0-.58,1.31,1.43,1.43,0,0,0,.63,1.2,8.61,8.61,0,0,0,2.18,1,9.34,9.34,0,0,1,3.61,1.75,3.59,3.59,0,0,1,1.25,2.85,3.43,3.43,0,0,1-1.44,2.91,6.26,6.26,0,0,1-3.81,1.06,6.79,6.79,0,0,1-4-1.15,3.82,3.82,0,0,1-1.62-3.44l0-.06h2.8a2.25,2.25,0,0,0,.75,1.87,3.15,3.15,0,0,0,2,.6,2.79,2.79,0,0,0,1.76-.48A1.57,1.57,0,0,0,177.65,96.55Z"/><path class="cls-3" d="M190.56,95.09v5.21h-2.88V85.93h5.49a5.66,5.66,0,0,1,3.9,1.26,4.24,4.24,0,0,1,1.42,3.33,4.18,4.18,0,0,1-1.42,3.31,5.66,5.66,0,0,1-3.9,1.26Zm0-2.22h2.61a2.38,2.38,0,0,0,1.83-.66,2.35,2.35,0,0,0,.62-1.67,2.4,2.4,0,0,0-.62-1.71,2.35,2.35,0,0,0-1.83-.68h-2.61Z"/><path class="cls-3" d="M203.43,94.55v5.75h-2.88V85.93h5a6,6,0,0,1,3.84,1.12,3.81,3.81,0,0,1,1.39,3.12,3.14,3.14,0,0,1-.59,1.91,4.05,4.05,0,0,1-1.71,1.3,3.16,3.16,0,0,1,1.83,1.25,4,4,0,0,1,.55,2.17v1.06a5.21,5.21,0,0,0,.17,1.26,1.68,1.68,0,0,0,.55,1v.21h-3a1.58,1.58,0,0,1-.5-1,8.76,8.76,0,0,1-.12-1.41v-1a2.29,2.29,0,0,0-.58-1.67,2.25,2.25,0,0,0-1.67-.6Zm0-2.22h2a2.69,2.69,0,0,0,1.8-.51,1.88,1.88,0,0,0,.59-1.52,2.12,2.12,0,0,0-.59-1.57,2.44,2.44,0,0,0-1.75-.58h-2.1Z"/><path class="cls-3" d="M225.05,94.41a6,6,0,0,1-1.67,4.37,6.31,6.31,0,0,1-8.66,0,6.08,6.08,0,0,1-1.66-4.37V91.82a6,6,0,0,1,1.66-4.36,5.65,5.65,0,0,1,4.3-1.74,5.76,5.76,0,0,1,4.35,1.74,6,6,0,0,1,1.68,4.36Zm-2.87-2.61a4.33,4.33,0,0,0-.84-2.75A2.77,2.77,0,0,0,219,88a2.68,2.68,0,0,0-2.27,1.08,4.45,4.45,0,0,0-.82,2.75v2.61a4.52,4.52,0,0,0,.82,2.78,3,3,0,0,0,4.6,0,4.46,4.46,0,0,0,.83-2.78Z"/><path class="cls-3" d="M112.22,199.78h-2.88V185.41h2.88Z"/><path class="cls-3" d="M126.68,199.78H123.8L118,190.09H118v9.68h-2.88V185.41H118l5.79,9.68h.06v-9.67h2.88Z"/><path class="cls-3" d="M140.1,195l0,.06a4.52,4.52,0,0,1-1.4,3.6,5.71,5.71,0,0,1-4,1.3,5.5,5.5,0,0,1-4.17-1.66A6,6,0,0,1,129,194v-2.86a6,6,0,0,1,1.55-4.29,5.24,5.24,0,0,1,4.06-1.67,6.06,6.06,0,0,1,4.11,1.28,4.45,4.45,0,0,1,1.44,3.61l0,.06h-2.81a2.85,2.85,0,0,0-.66-2.06,2.78,2.78,0,0,0-2.06-.67,2.29,2.29,0,0,0-2,1,4.55,4.55,0,0,0-.73,2.69V194a4.47,4.47,0,0,0,.76,2.7,2.48,2.48,0,0,0,2.13,1,2.53,2.53,0,0,0,1.93-.67,3,3,0,0,0,.64-2.08Z"/><path class="cls-3" d="M145.06,197.57h6.43v2.21h-9.31V185.41h2.88Z"/><path class="cls-3" d="M164.56,185.41v9.41a4.72,4.72,0,0,1-1.61,3.79,6.21,6.21,0,0,1-4.18,1.37,6.08,6.08,0,0,1-4.14-1.37,4.71,4.71,0,0,1-1.6-3.79v-9.41h2.89v9.41a3,3,0,0,0,.77,2.2,2.85,2.85,0,0,0,2.08.75,2.94,2.94,0,0,0,2.12-.75,3,3,0,0,0,.77-2.2v-9.41Z"/><path class="cls-3" d="M167.05,199.78V185.41h5a5.93,5.93,0,0,1,4.34,1.68,5.82,5.82,0,0,1,1.71,4.32v2.38a5.75,5.75,0,0,1-1.71,4.31,5.93,5.93,0,0,1-4.34,1.68Zm2.88-12.15v9.94h2.13a2.83,2.83,0,0,0,2.29-1.06,4.17,4.17,0,0,0,.87-2.72v-2.4a4.09,4.09,0,0,0-.87-2.7,2.8,2.8,0,0,0-2.29-1.06Z"/><path class="cls-3" d="M188.63,193.46H183.3v4.11h6.33v2.21h-9.21V185.41h9.19v2.22H183.3v3.61h5.33Z"/><path class="cls-3" d="M191.65,199.78V185.41h5a5.94,5.94,0,0,1,4.34,1.68,5.82,5.82,0,0,1,1.71,4.32v2.38A5.75,5.75,0,0,1,201,198.1a5.94,5.94,0,0,1-4.34,1.68Zm2.89-12.15v9.94h2.13a2.85,2.85,0,0,0,2.29-1.06,4.22,4.22,0,0,0,.86-2.72v-2.4a4.14,4.14,0,0,0-.86-2.7,2.82,2.82,0,0,0-2.29-1.06Z"/><g id="Star"><polygon class="cls-3" points="138.53 217.9 133.64 216.98 131.23 212.69 128.82 216.98 123.93 217.9 127.33 221.47 126.72 226.33 131.23 224.25 135.74 226.33 135.13 221.47 138.53 217.9"/></g><g id="Star-2" data-name="Star"><polygon class="cls-3" points="163.33 217.9 158.43 216.98 156.03 212.69 153.62 216.98 148.72 217.9 152.13 221.47 151.51 226.33 156.03 224.25 160.54 226.33 159.92 221.47 163.33 217.9"/></g><g id="Star-3" data-name="Star"><polygon class="cls-3" points="188.13 217.9 183.23 216.98 180.82 212.69 178.41 216.98 173.52 217.9 176.92 221.47 176.31 226.33 180.82 224.25 185.34 226.33 184.72 221.47 188.13 217.9"/></g><path class="cls-1" d="M48.36,128.35H41.52v7.52H37.18V117.18H49.67v3.34H41.52V125h6.84Z"/><path class="cls-1" d="M56.19,128.71v7.16H51.85V117.18h6.51a8.06,8.06,0,0,1,5.14,1.5,4.94,4.94,0,0,1,1.9,4.11,4.07,4.07,0,0,1-.76,2.49A5.39,5.39,0,0,1,62.39,127a4.22,4.22,0,0,1,2.47,1.63,5,5,0,0,1,.75,2.83v1.18a7.31,7.31,0,0,0,.22,1.67,2.19,2.19,0,0,0,.75,1.33v.26H62.1a2.13,2.13,0,0,1-.66-1.4,11.66,11.66,0,0,1-.16-1.89v-1.13a2.76,2.76,0,0,0-.7-2,2.8,2.8,0,0,0-2.07-.7Zm0-3.34h2.19a3,3,0,0,0,2-.6,2.12,2.12,0,0,0,.7-1.71,2.47,2.47,0,0,0-.71-1.84,2.75,2.75,0,0,0-2-.7H56.19Z"/><path class="cls-1" d="M79.53,127.87H73v4.66h7.89v3.34H68.61V117.18H80.85v3.34H73v4h6.58Z"/><path class="cls-1" d="M94.2,127.87H87.62v4.66h7.89v3.34H83.28V117.18H95.52v3.34h-7.9v4H94.2Z"/><path class="cls-1" d="M119.52,129.3h.08l2.26-12.12h4.39L122,135.87h-4.08l-3.15-11.54h-.07l-3.12,11.54h-4.08l-4.3-18.69h4.4l2.26,12.13h.08l3.17-12.14h3.27Z"/><path class="cls-1" d="M138.84,127.87h-6.59v4.66h7.89v3.34H127.91V117.18h12.25v3.34h-7.91v4h6.59Z"/><path class="cls-1" d="M142.58,135.87V117.18h6.12a9.78,9.78,0,0,1,5.43,1.29,4.32,4.32,0,0,1,1.94,3.84,4.46,4.46,0,0,1-.62,2.37,3.78,3.78,0,0,1-1.92,1.56,3.89,3.89,0,0,1,2.47,1.49,4.41,4.41,0,0,1,.8,2.61,4.87,4.87,0,0,1-1.83,4.13,8.58,8.58,0,0,1-5.26,1.4Zm4.34-10.9h1.71a4.07,4.07,0,0,0,2.33-.54,1.86,1.86,0,0,0,.77-1.63,2,2,0,0,0-.74-1.74,3.93,3.93,0,0,0-2.29-.54h-1.78Zm0,2.88v4.68h2.79a3.26,3.26,0,0,0,2.07-.55,2,2,0,0,0,.7-1.67,2.49,2.49,0,0,0-.61-1.81,2.85,2.85,0,0,0-2-.65h-2.94Z"/><path class="cls-1" d="M181.47,135.87h-4.33v-7.52h-6.91v7.52h-4.34V117.18h4.34V125h6.91v-7.83h4.33Z"/><path class="cls-1" d="M200,128.2a7.85,7.85,0,0,1-2.18,5.7,8.47,8.47,0,0,1-11.48,0,7.76,7.76,0,0,1-2.21-5.7v-3.36a7.76,7.76,0,0,1,2.2-5.68,8.43,8.43,0,0,1,11.47,0,7.76,7.76,0,0,1,2.2,5.68Zm-4.32-3.38a5.48,5.48,0,0,0-.94-3.29,3.45,3.45,0,0,0-5.36,0,5.43,5.43,0,0,0-.93,3.29v3.38a5.46,5.46,0,0,0,1,3.32,3.16,3.16,0,0,0,2.7,1.28,3.08,3.08,0,0,0,2.64-1.28,5.46,5.46,0,0,0,.94-3.32Z"/><path class="cls-1" d="M212.26,130.91a1.85,1.85,0,0,0-.66-1.53,8.67,8.67,0,0,0-2.37-1.14,18.07,18.07,0,0,1-5.17-2.4,4.35,4.35,0,0,1-1.69-3.68,4.51,4.51,0,0,1,2-3.8,9.45,9.45,0,0,1,10.14,0,4.81,4.81,0,0,1,1.88,4.21l0,.08h-4.21a2.36,2.36,0,0,0-.72-1.92,3.32,3.32,0,0,0-2.17-.6,2.8,2.8,0,0,0-1.86.58,1.82,1.82,0,0,0-.68,1.43,1.53,1.53,0,0,0,.7,1.31,13.76,13.76,0,0,0,2.61,1.24,13.92,13.92,0,0,1,4.92,2.35,4.67,4.67,0,0,1,1.66,3.8,4.48,4.48,0,0,1-1.92,3.85,8.52,8.52,0,0,1-5.11,1.4,9.32,9.32,0,0,1-5.37-1.5,5.15,5.15,0,0,1-2.14-4.7l0-.08h4.22a2.93,2.93,0,0,0,.8,2.32,3.78,3.78,0,0,0,2.46.68,3.2,3.2,0,0,0,2-.54A1.73,1.73,0,0,0,212.26,130.91Z"/><path class="cls-1" d="M232,120.52H227v15.35h-4.33V120.52h-4.85v-3.34H232Z"/><path class="cls-1" d="M238.31,135.87H234V117.18h4.33Z"/><path class="cls-1" d="M257.13,135.87h-4.32L246,124.11l-.08,0v11.73h-4.34V117.18h4.34l6.84,11.74.08,0V117.18h4.32Z"/><path class="cls-1" d="M274.87,133.29a7.82,7.82,0,0,1-2.75,2,10.66,10.66,0,0,1-4.55.84,7.73,7.73,0,0,1-5.65-2.13,7.41,7.41,0,0,1-2.17-5.54v-3.9a7.57,7.57,0,0,1,2.11-5.52,7.34,7.34,0,0,1,5.44-2.14,8,8,0,0,1,5.41,1.6,5.32,5.32,0,0,1,1.76,4.37l0,.08h-4.07a2.64,2.64,0,0,0-.73-2,3.18,3.18,0,0,0-2.21-.67,3,3,0,0,0-2.44,1.19,5,5,0,0,0-.92,3.11v3.92a5,5,0,0,0,.91,3.14,3.09,3.09,0,0,0,2.58,1.19,7.24,7.24,0,0,0,1.88-.19,2.86,2.86,0,0,0,1.08-.52v-3.33h-3.31v-2.88h7.65Z"/><path class="cls-1" d="M66.7,162.45a1.84,1.84,0,0,0-.66-1.53,8.37,8.37,0,0,0-2.37-1.14,18.07,18.07,0,0,1-5.17-2.4,4.34,4.34,0,0,1-1.68-3.68,4.5,4.5,0,0,1,2-3.8,8.15,8.15,0,0,1,5-1.45,8.23,8.23,0,0,1,5.15,1.5,4.81,4.81,0,0,1,1.88,4.21l0,.08H66.57a2.36,2.36,0,0,0-.72-1.92,3.32,3.32,0,0,0-2.17-.6,2.82,2.82,0,0,0-1.86.58,1.82,1.82,0,0,0-.68,1.43,1.53,1.53,0,0,0,.7,1.31,14.08,14.08,0,0,0,2.61,1.24,13.75,13.75,0,0,1,4.92,2.35,4.68,4.68,0,0,1,1.67,3.8,4.5,4.5,0,0,1-1.93,3.85,8.52,8.52,0,0,1-5.11,1.4,9.32,9.32,0,0,1-5.37-1.5,5.12,5.12,0,0,1-2.13-4.7l0-.08h4.22a2.9,2.9,0,0,0,.81,2.32,3.73,3.73,0,0,0,2.45.68,3.18,3.18,0,0,0,2-.54A1.72,1.72,0,0,0,66.7,162.45Z"/><path class="cls-1" d="M88.43,160.84h.07l2.26-12.12h4.39l-4.29,18.69H86.78l-3.14-11.54h-.08l-3.12,11.54H76.36l-4.3-18.69h4.4l2.26,12.13h.08L82,148.72h3.27Z"/><path class="cls-1" d="M101.41,167.41H97.09V148.72h4.32Z"/><path class="cls-1" d="M117.29,152.06h-4.94v15.35H108V152.06h-4.85v-3.34h14.13Z"/><path class="cls-1" d="M133,161.1l0,.08a6.05,6.05,0,0,1-1.8,4.85,7.66,7.66,0,0,1-5.26,1.65,7.25,7.25,0,0,1-7.66-7.67v-3.9a7.71,7.71,0,0,1,2-5.54,7.06,7.06,0,0,1,5.35-2.12,8.21,8.21,0,0,1,5.5,1.66,5.85,5.85,0,0,1,1.89,4.81l0,.08h-4.22a3.49,3.49,0,0,0-.73-2.47,3.3,3.3,0,0,0-2.4-.74,2.54,2.54,0,0,0-2.25,1.17,5.58,5.58,0,0,0-.78,3.13V160a5.2,5.2,0,0,0,.86,3.15,2.84,2.84,0,0,0,2.46,1.18,2.74,2.74,0,0,0,2.15-.75,3.71,3.71,0,0,0,.66-2.49Z"/><path class="cls-1" d="M151,167.41h-4.32v-7.52H139.8v7.52h-4.34V148.72h4.34v7.83h6.92v-7.83H151Z"/><path class="cls-1" d="M170.2,162.45a1.86,1.86,0,0,0-.65-1.53,8.61,8.61,0,0,0-2.38-1.14,17.86,17.86,0,0,1-5.16-2.4,4.33,4.33,0,0,1-1.69-3.68,4.5,4.5,0,0,1,2-3.8,9.45,9.45,0,0,1,10.14,0,4.84,4.84,0,0,1,1.89,4.21l0,.08h-4.21a2.36,2.36,0,0,0-.72-1.92,3.32,3.32,0,0,0-2.17-.6,2.83,2.83,0,0,0-1.86.58,1.82,1.82,0,0,0-.68,1.43,1.55,1.55,0,0,0,.7,1.31,14.08,14.08,0,0,0,2.61,1.24,13.75,13.75,0,0,1,4.92,2.35,4.68,4.68,0,0,1,1.67,3.8,4.48,4.48,0,0,1-1.93,3.85,8.49,8.49,0,0,1-5.1,1.4,9.33,9.33,0,0,1-5.38-1.5,5.14,5.14,0,0,1-2.13-4.7l0-.08h4.23a2.9,2.9,0,0,0,.8,2.32,3.74,3.74,0,0,0,2.46.68,3.16,3.16,0,0,0,2-.54A1.72,1.72,0,0,0,170.2,162.45Z"/><path class="cls-1" d="M187.82,159.41h-6.58v4.66h7.89v3.34H176.9V148.72h12.24v3.34h-7.9v4h6.58Z"/><path class="cls-1" d="M195.91,160.24v7.17h-4.34V148.72h6.5a8.09,8.09,0,0,1,5.15,1.5,4.94,4.94,0,0,1,1.9,4.11,4.07,4.07,0,0,1-.76,2.49,5.37,5.37,0,0,1-2.26,1.69,4.18,4.18,0,0,1,2.47,1.63,4.94,4.94,0,0,1,.76,2.83v1.18a7.68,7.68,0,0,0,.21,1.66,2.24,2.24,0,0,0,.76,1.34v.26h-4.48a2.18,2.18,0,0,1-.67-1.4,12.84,12.84,0,0,1-.15-1.89V163a2.72,2.72,0,0,0-.71-2,2.78,2.78,0,0,0-2.06-.71Zm0-3.33h2.19a3,3,0,0,0,2-.6,2.15,2.15,0,0,0,.7-1.71,2.44,2.44,0,0,0-.72-1.84,2.72,2.72,0,0,0-2-.7h-2.16Z"/><path class="cls-1" d="M214.78,162.34l.13.68H215l.13-.63,3.71-13.67h4.54l-6.06,18.69h-4.68l-6-18.69h4.53Z"/><path class="cls-1" d="M229.45,167.41h-4.32V148.72h4.32Z"/><path class="cls-1" d="M247.05,161.1l0,.08a6,6,0,0,1-1.8,4.85,7.66,7.66,0,0,1-5.26,1.65,7.25,7.25,0,0,1-7.66-7.67v-3.9a7.76,7.76,0,0,1,2-5.54,7.06,7.06,0,0,1,5.35-2.12,8.21,8.21,0,0,1,5.5,1.66,5.82,5.82,0,0,1,1.89,4.81l0,.08h-4.22a3.44,3.44,0,0,0-.73-2.47,3.3,3.3,0,0,0-2.4-.74,2.55,2.55,0,0,0-2.25,1.17,5.58,5.58,0,0,0-.78,3.13V160a5.27,5.27,0,0,0,.86,3.15,2.86,2.86,0,0,0,2.46,1.18,2.72,2.72,0,0,0,2.15-.75,3.71,3.71,0,0,0,.66-2.49Z"/><path class="cls-1" d="M260.39,159.41h-6.58v4.66h7.89v3.34H249.47V148.72h12.25v3.34h-7.91v4h6.58Z"/></g></g></svg>