<svg xmlns="http://www.w3.org/2000/svg" viewBox="0 0 168.62 350"><defs><style>.cls-1{fill:#2b424f;}.cls-2{fill:#edf0f0;}.cls-3{fill:#f79449;}</style></defs><title>graphic-design</title><g id="Layer_2" data-name="Layer 2"><g id="Layer_1-2" data-name="Layer 1"><rect class="cls-1" y="36.59" width="168.6" height="113.06"/><path class="cls-2" d="M168.62,3.55h-.07A3.51,3.51,0,0,0,167.36.88,3.37,3.37,0,0,0,164.55,0L3.09,20.6A3.56,3.56,0,0,0,0,24.11v99.34a2.56,2.56,0,0,0,.21,1,2.81,2.81,0,0,0-.21,1v21.63H7v-18H161.46v18h7.16V125.55a2.81,2.81,0,0,0-.21-1,2.81,2.81,0,0,0,.21-1ZM12.36,122H7V94.6c1.83.56,3.58,1.12,5.34,1.54Zm12.42,0H19.45V97.76c1.82.35,3.58.63,5.33.84Zm12.5,0H31.94V99.16c1.05.07,2,.07,3,.07.77,0,1.54,0,2.32-.07Zm12.35,0H44.3V98.67a44.58,44.58,0,0,0,5.33-.91ZM62.06,122H56.72V96c1.83-.56,3.65-1.12,5.34-1.82Zm12.42.07H69.15V91.23c1.82-.85,3.58-1.69,5.33-2.6Zm12.43,0H81.57V84.7c1.76-1.06,3.58-2.11,5.34-3.23ZM99.33,122H94V77c.21-.14.35-.21.56-.36,1.62-1,3.16-2,4.77-3Zm12.43.07h-5.34V69.32c1.76-1,3.59-2,5.34-3Zm12.43,0h-5.34V62.58c1.76-.84,3.51-1.68,5.34-2.45Zm12.42,0h-5.33V57.32c1.75-.63,3.51-1.26,5.33-1.76ZM149,122h-5.34V53.74c1.76-.42,3.58-.77,5.34-1.05Zm12.49,0h-5.33V51.77c1.75-.14,3.51-.28,5.33-.28Z"/><path class="cls-2" d="M161.46,146.14H0v3.51a1.54,1.54,0,0,0,.07.56.26.26,0,0,0,.07.21c1,31.66,21.62,43,40.86,43,5.47,0,13.69,2.11,19.16,7.93a17.27,17.27,0,0,1,4.57,13.27C58.41,297.14,57,332,68.66,344.59,72,348.24,76.38,350,82,350h4.63c5.61,0,10-1.76,13.34-5.41,11.65-12.56,10.25-47.45,3.93-130a16.67,16.67,0,0,1,4.56-13.27c5.48-5.82,13.69-7.93,19.17-7.93,19.3,0,39.87-11.37,40.85-43a.26.26,0,0,0,.07-.21,1.54,1.54,0,0,0,.07-.56v-3.51Zm-109,25.16a5.2,5.2,0,1,1,5-5.2A5.1,5.1,0,0,1,52.48,171.3Zm31.8,155.92a5.2,5.2,0,1,1,5-5.2A5.1,5.1,0,0,1,84.28,327.22Zm31.8-155.92a5.2,5.2,0,1,1,5-5.2A5.1,5.1,0,0,1,116.08,171.3Z"/><path class="cls-3" d="M0,90.72s4.46,7.87,37.28,8.45c0,0,20,1.65,49.63-17.69,0,0,34.19-22.89,49.7-25.9a132.34,132.34,0,0,1,32-4.31l-.07-47.71s.09-4-4-3.51L3.09,20.62A3.29,3.29,0,0,0,0,24.13Z"/></g></g></svg>