<svg xmlns="http://www.w3.org/2000/svg" viewBox="0 0 300 300"><defs><style>.cls-1{fill:#f79449;}.cls-2{fill:#d37533;}.cls-3{fill:#edf0f0;}.cls-4{fill:#2b424f;}</style></defs><title>hosting-no-shadow</title><g id="Layer_2" data-name="Layer 2"><g id="Layer_1-2" data-name="Layer 1"><g id="Rounded_Rectangle_5_copy_26" data-name="Rounded Rectangle 5 copy 26"><path class="cls-1" d="M246,0H54A54,54,0,0,0,0,54V246a54,54,0,0,0,54,54H246a54,54,0,0,0,54-54V54A54,54,0,0,0,246,0Z"/></g><g id="Shape_313_copy" data-name="Shape 313 copy"><path class="cls-2" d="M300,246.84V208.55L168.62,77.1,131,114.85l17.11,22.24V154.2l-24,1.71-10.27-1.71-24.52.19-1.92,24.7,12.83,16.17L92.2,205.73l-16.42,10L160,300h86.81A53.16,53.16,0,0,0,300,246.84Z"/></g><g id="Shape_321" data-name="Shape 321"><path class="cls-3" d="M222,188.6H198.77a3.19,3.19,0,0,0-3.18,3.18v23.27a3.19,3.19,0,0,0,3.18,3.17H222a3.19,3.19,0,0,0,3.18-3.17V191.78A3.19,3.19,0,0,0,222,188.6Z"/></g><g id="Shape_320" data-name="Shape 320"><path class="cls-3" d="M161.55,188.6H138.27a3.19,3.19,0,0,0-3.18,3.18v23.27a3.19,3.19,0,0,0,3.18,3.17h23.28a3.18,3.18,0,0,0,3.17-3.17V191.78A3.19,3.19,0,0,0,161.55,188.6Z"/></g><g id="Shape_319" data-name="Shape 319"><path class="cls-3" d="M100.83,188.6H77.57a3.19,3.19,0,0,0-3.18,3.18v23.27a3.19,3.19,0,0,0,3.18,3.17h23.26a3.18,3.18,0,0,0,3.17-3.17V191.78A3.18,3.18,0,0,0,100.83,188.6Z"/></g><g id="Shape_318" data-name="Shape 318"><path class="cls-4" d="M132.52,117.31H167a3.19,3.19,0,0,0,3.17-3.18V79.67A3.19,3.19,0,0,0,167,76.49H132.52a3.19,3.19,0,0,0-3.17,3.18v34.46A3.19,3.19,0,0,0,132.52,117.31Zm77.58,33.93H153.71V128.31a3.71,3.71,0,0,0-7.42,0v22.93H89.42A3.71,3.71,0,0,0,85.71,155v22.51a3.71,3.71,0,0,0,7.42,0v-18.8h53.16v19.17a3.71,3.71,0,1,0,7.42,0V158.66h52.68v18.8a3.71,3.71,0,0,0,7.42,0V155A3.71,3.71,0,0,0,210.1,151.24Z"/></g></g></g></svg>