<svg xmlns="http://www.w3.org/2000/svg" viewBox="0 0 757.5 158.84"><defs><style>.cls-1{fill:#fff;}.cls-2{fill:#f69448;}</style></defs><title>logo</title><g id="Layer_2" data-name="Layer 2"><g id="Layer_1-2" data-name="Layer 1"><path class="cls-1" d="M482,.15v24.4H461.67v82H437.28v-82H417.07V.15Z"/><path class="cls-1" d="M522.63,78.88c-1.27.19-2.52.34-3.79.43s-2.56.2-3.92.29v26.93h-24.6V.15h24.6a48.05,48.05,0,0,1,17.17,3.34,47.47,47.47,0,0,1,14,8.58,39.52,39.52,0,0,1,9.46,12.5A34.75,34.75,0,0,1,559,39.82a35.31,35.31,0,0,1-3.64,15.92,38.35,38.35,0,0,1-10.19,12.71l23.58,38.08h-29Zm-7.71-24a25.27,25.27,0,0,0,7.49-1.38,22.38,22.38,0,0,0,6.26-3.27,15.6,15.6,0,0,0,4.22-4.73,11.43,11.43,0,0,0,1.52-5.75,11.07,11.07,0,0,0-1.52-5.68,16.06,16.06,0,0,0-4.22-4.65,22.66,22.66,0,0,0-6.26-3.28,25.59,25.59,0,0,0-7.49-1.37Z"/><path class="cls-1" d="M599.6,106.53H575.14V.15H599.6Z"/><path class="cls-1" d="M679.63,44.93a43.63,43.63,0,0,1-3.41,17.17,44.87,44.87,0,0,1-9.41,14.13,45.85,45.85,0,0,1-14,9.63,43.11,43.11,0,0,1-17.1,3.7v17H611.24V.15h24.48a42.49,42.49,0,0,1,17.1,3.77,46.77,46.77,0,0,1,14,9.7,44.87,44.87,0,0,1,9.41,14.13A43.65,43.65,0,0,1,679.63,44.93ZM635.72,65.07a19.25,19.25,0,0,0,7.61-1.82,21,21,0,0,0,6.16-4.36,20.16,20.16,0,0,0,4.13-6.33,20.29,20.29,0,0,0,0-15.41,20.16,20.16,0,0,0-4.13-6.33,21,21,0,0,0-6.16-4.36,19.25,19.25,0,0,0-7.61-1.82Z"/><path class="cls-1" d="M757.5,24.53H713.67v16.1h35.55V65.16H713.67V82H757.5v24.53H689.15V.15L757.5,0Z"/><path class="cls-1" d="M407.18,55.2A32.9,32.9,0,0,0,392.87,43Q390.38,41.84,388,41t-4.8-1.53q-2.64-.84-5-1.74a31.31,31.31,0,0,1-4.31-2,6.64,6.64,0,0,1-2.78-3.82,6.2,6.2,0,0,1,.42-4.67,5.44,5.44,0,0,1,2.22-2.43,8.12,8.12,0,0,1,2.72-1,7.78,7.78,0,0,1,2.36,0c.71.08,3.7.7,4.87,1.87a5.36,5.36,0,0,1,2,4.46h23.39a29.79,29.79,0,0,0-1.66-9.88,28.52,28.52,0,0,0-4.77-8.56,30.31,30.31,0,0,0-7.4-6.53,31.15,31.15,0,0,0-9.56-4A32.45,32.45,0,0,0,375,.25a30.43,30.43,0,0,0-9.88,2.43,29.61,29.61,0,0,0-11.62,9.09l.34.27a39.67,39.67,0,0,1,9.45,12.49,34.83,34.83,0,0,1,3.41,15.24A35.34,35.34,0,0,1,363,55.66c-.12.25-.26.49-.39.74a39.66,39.66,0,0,0,6.19,3q3.76,1.4,7.24,2.5c1.3.47,2.52.89,3.69,1.26A32.2,32.2,0,0,1,383,64.38a11.86,11.86,0,0,1,3.12,2.16A9,9,0,0,1,388,69a7.54,7.54,0,0,1,.77,2.36,16.08,16.08,0,0,1,.14,1.81,15.75,15.75,0,0,1-.14,1.81,6.79,6.79,0,0,1-.77,2.3,10.9,10.9,0,0,1-1.81,2.43A9.17,9.17,0,0,1,383,81.77a12.3,12.3,0,0,1-5.71,1.11,10.47,10.47,0,0,1-5.42-1.81,12.87,12.87,0,0,1-3.2-3.13,10.21,10.21,0,0,1-1.81-6.47h-12.1l21.58,34.87c.55,0,1.1,0,1.65,0a37.6,37.6,0,0,0,7.51-.76,33.38,33.38,0,0,0,7.35-2.44A32.81,32.81,0,0,0,407.18,91a33.38,33.38,0,0,0,0-35.75Z"/><path class="cls-2" d="M65.61.25v24.3H45.05V106.2H20.41V24.55H0V.25Z"/><path class="cls-2" d="M99.29,106.37H75L75.12,0H99.29Z"/><path class="cls-2" d="M199.5,47.1v59.25H175v-2.6a44.45,44.45,0,0,1-8.28,2.09,56.29,56.29,0,0,1-8.44.65,54,54,0,0,1-20-3.89,51.76,51.76,0,0,1-17.58-11.68A51,51,0,0,1,109,73.41a54.27,54.27,0,0,1,0-40,50.7,50.7,0,0,1,11.61-17.59A51.62,51.62,0,0,1,138.23,4.14a53.56,53.56,0,0,1,40.08,0A51.66,51.66,0,0,1,195.9,15.82l-17.3,17.3a27.66,27.66,0,0,0-9.52-6.28,29,29,0,0,0-21.62,0A27.53,27.53,0,0,0,138,33.12a28.31,28.31,0,0,0-6.35,9.51A28.64,28.64,0,0,0,138,73.77a27.66,27.66,0,0,0,8.43,5.83A28.2,28.2,0,0,0,156,82.05a30.05,30.05,0,0,0,9.88-.93A27.31,27.31,0,0,0,175,76.8V71.46H153.8V47.1Z"/><path class="cls-2" d="M276.8,24.5H233V40.58h35.51v24.5H233V81.89H276.8v24.49H208.54V.15L276.8,0Z"/><path class="cls-2" d="M320.4,78.7c-1.26.19-2.52.34-3.78.44l-3.93.28v26.89H288.13V.07h24.56A47.81,47.81,0,0,1,343.87,12a39.52,39.52,0,0,1,9.45,12.48,34.83,34.83,0,0,1,3.41,15.24,35.35,35.35,0,0,1-3.63,15.9,38.47,38.47,0,0,1-10.17,12.69l23.54,38H337.55Zm-7.71-24a25.53,25.53,0,0,0,7.49-1.38,22.7,22.7,0,0,0,6.25-3.26,15.66,15.66,0,0,0,4.21-4.73,11.43,11.43,0,0,0,1.53-5.74,11,11,0,0,0-1.53-5.67,15.76,15.76,0,0,0-4.21-4.65A22.45,22.45,0,0,0,320.18,26a25.86,25.86,0,0,0-7.49-1.38Z"/><path class="cls-2" d="M618,113h10.84l2.68,45.8H621l-1.12-18.69-6.36,18.69H603l-6.73-19.44L595,158.84H584.42l2.93-45.8h10.84l10,28.66Z"/><path class="cls-2" d="M663.37,123.63H644.56v6.92h15.26v10.53H644.56v7.23h18.81v10.53H634V113.16l29.35-.06Z"/><path class="cls-2" d="M677.9,112.92a22.24,22.24,0,0,1,8.56,2.18,23.35,23.35,0,0,1,11.66,12.27,22.65,22.65,0,0,1,1.71,8.79,22.17,22.17,0,0,1-1.68,8.63,22.53,22.53,0,0,1-4.64,7.07,23,23,0,0,1-7,4.89,23.3,23.3,0,0,1-8.66,2.09H667.36v-46H677.9Zm0,35.33a13.18,13.18,0,0,0,4.51-1.28,12.78,12.78,0,0,0,3.62-2.62,11.77,11.77,0,0,0,3.27-8.19,12.63,12.63,0,0,0-.87-4.65,12.85,12.85,0,0,0-2.43-3.92,13.6,13.6,0,0,0-3.62-2.81,12.14,12.14,0,0,0-4.48-1.33Z"/><path class="cls-2" d="M712.79,158.84H702.26V113h10.53Z"/><path class="cls-2" d="M745.19,158.84l-1.8-5.54H729l-1.87,5.54H716l15.58-45.74h10l14.77,45.74Zm-12.58-16.08H740l-3.61-11.09Z"/></g></g></svg>