<svg xmlns="http://www.w3.org/2000/svg" viewBox="0 0 594 594"><defs><style>.cls-1{fill:#222a32;}.cls-2,.cls-4{opacity:0.9;}.cls-3,.cls-4{fill:#fff;}</style></defs><title>managed-link</title><g id="Layer_2" data-name="Layer 2"><g id="Layer_1-2" data-name="Layer 1"><circle class="cls-1" cx="297" cy="297" r="297"/><g class="cls-2"><path class="cls-3" d="M361.13,377.72c-.06-43.23,35.08-78.38,78.48-78.51a78.48,78.48,0,1,1-78.48,78.51Zm4.73,0a73.79,73.79,0,1,0,73.87-73.81A73.66,73.66,0,0,0,365.86,377.72Z"/><path class="cls-3" d="M399.63,347.1c2.41-.2,4.4-.31,6.38-.55,2.51-.3,3.74-1.43,3.45-3.15-.36-2.18-1.93-2.48-3.82-2.38-5.78.31-11.56.56-17.34.79-.9,0-1.81-.1-2.83-.16,20.36-33,69.21-39.45,97.71-12.39-5.81.47-9.42,3.54-10.85,9.05a12.86,12.86,0,0,0,1,8.8,57.74,57.74,0,0,0,4.06,7.51A35.45,35.45,0,0,1,482,386c-3.12,10.23-6.26,20.46-9.6,31.39l-23.58-70.14c1.28-.18,2.37-.34,3.46-.47,1.38-.16,2.91,0,4.09-.54a4.17,4.17,0,0,0,2.15-2.74c.17-1.5-1-2.54-2.69-2.46-2.54.11-5.08.44-7.62.43-8.1,0-16.19-.22-24.28-.34-1.08,0-2.3-.39-3.2,0a4.44,4.44,0,0,0-2.33,2.34,2.13,2.13,0,0,0,1.94,2.84c1.91.29,3.86.32,5.74.7a3,3,0,0,1,1.92,1.49c3.15,8.36,6.2,16.76,9.22,25.17a4.07,4.07,0,0,1,.07,2.44q-6.69,20.29-13.5,40.56c0,.13-.19.22-.54.61C415.36,393.88,407.56,370.67,399.63,347.1Z"/><path class="cls-3" d="M440.79,383.5l20.29,55.61c-8.91,4.3-26.62,5.54-39.83,1.21Z"/><path class="cls-3" d="M411,436.3c-32.52-15.81-44.81-54.46-31-84.92C390.33,379.81,400.57,407.85,411,436.3Z"/><path class="cls-3" d="M472.71,433.88c4.48-12.95,8.79-25.47,13.14-38,2.65-7.63,5.47-15.22,8-22.9a77.9,77.9,0,0,0,3.11-12.54c.63-4.2.5-8.52.68-12.43C512.55,373.66,505.5,415,472.71,433.88Z"/></g><path class="cls-4" d="M338.58,252.93A57.55,57.55,0,1,0,281,195.39,57.53,57.53,0,0,0,338.58,252.93Z"/><g id="infinity" class="cls-2"><path class="cls-3" d="M227,232.16c-23.93,0-38.92,13.49-50.36,28.4-11.44-14.91-26.42-28.4-50.35-28.4-20.23,0-50.36,13.41-50.36,50.36s30.13,50.35,50.36,50.35c23.93,0,38.91-13.49,50.35-28.4,11.44,14.91,26.43,28.4,50.36,28.4,20.22,0,50.36-13.41,50.36-50.35S247.2,232.16,227,232.16ZM126.27,307.69c-4.19,0-25.18-1.2-25.18-25.17,0-23,19.33-25.1,25.18-25.18,15.38,0,24.25,9.42,35.12,25.18C150.52,298.31,141.65,307.69,126.27,307.69Zm100.63,0c-15.35,0-24.21-9.42-35.09-25.17,10.92-15.76,19.74-25.18,35.17-25.18,4.19,0,25.18,1.21,25.18,25.18C252.16,305.48,232.9,307.61,226.9,307.69Z"/></g><path class="cls-4" d="M418.49,290.78c-21.82-14-49.62-22.39-79.91-22.39A156.12,156.12,0,0,0,290,276a69.18,69.18,0,0,1,1,12.12c0,42.67-34.8,58.17-58.16,58.17A65,65,0,0,1,215.54,344a80.62,80.62,0,0,0-3.9,24.73H349.17A78.49,78.49,0,0,1,418.49,290.78Z"/></g></g></svg>