<svg xmlns="http://www.w3.org/2000/svg" viewBox="0 0 400 400"><defs><style>.cls-1{fill:#f79449;}.cls-2{fill:#37444f;}.cls-3,.cls-6,.cls-7{fill:none;}.cls-4,.cls-6{opacity:0.5;}.cls-5{fill:#edf0f1;}.cls-6{stroke:#ebeced;stroke-miterlimit:10;}.cls-6,.cls-7,.cls-9{stroke-linecap:round;stroke-width:5.43px;}.cls-7{stroke:#5c6c75;}.cls-7,.cls-9{stroke-linejoin:round;}.cls-8,.cls-9{fill:#5c6c75;}.cls-9{stroke:#009447;}.cls-10{fill:#ebeced;}</style></defs><title>managed</title><g id="Layer_2" data-name="Layer 2"><g id="Layer_1-2" data-name="Layer 1"><circle class="cls-1" cx="200" cy="200" r="184.65"/><path class="cls-2" d="M200,30.7a169.3,169.3,0,0,1,119.71,289A169.3,169.3,0,1,1,80.29,80.29,168.16,168.16,0,0,1,200,30.7M200,0C89.54,0,0,89.54,0,200S89.54,400,200,400s200-89.54,200-200S310.46,0,200,0Z"/><path class="cls-3" d="M200,0C89.54,0,0,89.54,0,200A199.13,199.13,0,0,0,40,320c20.74-24.8,56.33-41.17,96.75-41.17,64,0,115.89,41,115.84,91.59H95.25A199.14,199.14,0,0,0,200,400c110.46,0,200-89.54,200-200S310.46,0,200,0ZM136.72,264.69a52.54,52.54,0,1,1,52.53-52.53A52.51,52.51,0,0,1,136.72,264.69Z"/><g class="cls-4"><path class="cls-5" d="M136.72,278.81c-40.42,0-76,16.37-96.75,41.17A201.09,201.09,0,0,0,95.25,370.4H252.56C252.61,319.83,200.72,278.81,136.72,278.81Z"/><circle class="cls-5" cx="136.72" cy="212.16" r="52.53" transform="translate(-109.97 158.82) rotate(-45)"/></g><path class="cls-2" d="M200,27.85A172.15,172.15,0,0,1,321.73,321.73,172.15,172.15,0,0,1,78.27,78.27,171.06,171.06,0,0,1,200,27.85M200,0C89.54,0,0,89.54,0,200S89.54,400,200,400s200-89.54,200-200S310.46,0,200,0Z"/><line class="cls-6" x1="216.29" y1="193.63" x2="343.47" y2="193.63"/><line class="cls-6" x1="216.29" y1="272.07" x2="343.47" y2="272.07"/><line class="cls-6" x1="319.74" y1="232.76" x2="216.29" y2="232.76"/><line class="cls-7" x1="201.8" y1="179.14" x2="328.97" y2="179.14"/><line class="cls-7" x1="303.79" y1="218.27" x2="328.97" y2="218.27"/><line class="cls-7" x1="201.8" y1="257.58" x2="328.97" y2="257.58"/><path class="cls-8" d="M225.53,198.88a20.29,20.29,0,1,1,20.29-20.29A20.26,20.26,0,0,1,225.53,198.88Z"/><circle class="cls-9" cx="225.53" cy="178.41" r="13.04"/><path class="cls-8" d="M225.53,277.87a20.29,20.29,0,1,1,20.29-20.29A20.26,20.26,0,0,1,225.53,277.87Z"/><circle class="cls-9" cx="225.53" cy="257.58" r="13.04"/><line class="cls-7" x1="305.24" y1="218.27" x2="201.8" y2="218.27"/><path class="cls-8" d="M305.24,238.74a20.29,20.29,0,1,1,20.29-20.29A20.26,20.26,0,0,1,305.24,238.74Z"/><circle class="cls-9" cx="305.24" cy="218.27" r="13.04"/><g id="gear" class="cls-4"><path class="cls-10" d="M221.63,77.18a5.38,5.38,0,0,0,1.76-7.39l-3.74-6.08A5.38,5.38,0,0,0,212.27,62l-3.14,1.94c-2.5,1.53-6.11,1.46-8-.15s-6.9-7.27-6.24-10.14l.88-3.6a5.42,5.42,0,0,0-4-6.47l-6.93-1.65a5.4,5.4,0,0,0-6.46,4l-.87,3.63c-.68,2.84-3.26,5.35-5.72,5.52s-10.09-.27-11.63-2.77l-1.93-3.14a5.38,5.38,0,0,0-7.39-1.76l-6.08,3.74A5.38,5.38,0,0,0,143,58.46L145,61.63c1.54,2.5,1.47,6.1-.14,8s-7.27,6.89-10.13,6.19L131.07,75a5.42,5.42,0,0,0-6.47,4L123,85.85a5.42,5.42,0,0,0,4,6.47l3.63.86c2.85.68,5.35,3.26,5.53,5.72s-.25,10.08-2.78,11.64l-3.16,1.94a5.38,5.38,0,0,0-1.76,7.39l3.74,6.08a5.38,5.38,0,0,0,7.38,1.76l3.17-1.95c2.5-1.54,6.1-1.47,8,.14s6.9,7.27,6.19,10.13l-.86,3.63a5.34,5.34,0,0,0,4,6.46l6.93,1.66a5.41,5.41,0,0,0,6.46-4l.87-3.63c.68-2.84,3.26-5.35,5.72-5.52s10.08.24,11.63,2.77l1.93,3.14a5.37,5.37,0,0,0,7.36,1.78L207,138.6a5.38,5.38,0,0,0,1.76-7.38l-1.95-3.17c-1.54-2.5-1.46-6.11.17-8s7.27-6.9,10.16-6.21l3.63.87a5.41,5.41,0,0,0,6.46-4l1.65-6.93a5.41,5.41,0,0,0-4-6.46l-3.63-.86c-2.85-.68-5.35-3.26-5.53-5.72s.27-10.1,2.78-11.64l3.11-1.91ZM188,114.59a23.21,23.21,0,1,1,7.61-31.92A23.22,23.22,0,0,1,188,114.59Zm96.55.33c1.69-1,2-3.6.72-5.69s-3.72-3-5.4-1.92-3.84,1.2-4.78.4-3.36-4-2.9-6-1.1-4-3.49-4.54-4.71.54-5.17,2.47-1.85,3.57-3.06,3.68-5.26-.49-6.3-2.18-3.6-2-5.69-.72-3,3.72-1.92,5.4,1.21,3.87.4,4.79-4.06,3.34-6,2.89-4,1.1-4.54,3.5.55,4.73,2.45,5.18,3.57,1.85,3.65,3.07-.49,5.27-2.18,6.3-2,3.57-.74,5.67,3.72,3,5.41,1.92,3.86-1.22,4.81-.42,3.33,4,2.89,6,1.12,4,3.52,4.52,4.73-.55,5.17-2.47,1.85-3.57,3-3.67,5.27.49,6.31,2.17,3.59,2,5.69.73,3-3.72,1.92-5.41-1.22-3.86-.41-4.78,4-3.33,6-2.89,4-1.11,4.53-3.5-.53-4.71-2.47-5.17-3.57-1.85-3.65-3.07S282.9,116,284.59,114.92Zm-14.45,3.64a8.93,8.93,0,1,1-12.29-2.93A8.93,8.93,0,0,1,270.14,118.56Z"/></g></g></g></svg>