<svg xmlns="http://www.w3.org/2000/svg" viewBox="0 0 372.01 350"><defs><style>.cls-1{fill:#f79449;}.cls-2{fill:#edf0f1;}.cls-3{fill:none;}.cls-4{fill:#edf0f0;}.cls-5{fill:#2b424f;}</style></defs><title>managed-hosting</title><g id="Layer_2" data-name="Layer 2"><g id="Layer_1-2" data-name="Layer 1"><path class="cls-1" d="M143.38,100.69h85.06a7.87,7.87,0,0,0,7.83-7.84v-85A7.86,7.86,0,0,0,228.44,0H143.38a7.86,7.86,0,0,0-7.82,7.83v85A7.87,7.87,0,0,0,143.38,100.69Z"/><path class="cls-1" d="M334.74,184.37H195.64V127.82a9.15,9.15,0,1,0-18.29,0v56.55H37.07a9.15,9.15,0,0,0-9.15,9.15v55.53a9.15,9.15,0,0,0,18.29,0V202.68H177.35V250a9.15,9.15,0,1,0,18.29,0V202.68h130v46.37a9.15,9.15,0,0,0,18.29,0V193.52A9.14,9.14,0,0,0,334.74,184.37Z"/><path class="cls-2" d="M185.93,55.86a22.28,22.28,0,1,0-22.28-22.27A22.26,22.26,0,0,0,185.93,55.86Z"/><path class="cls-3" d="M228.45,0H143.39a7.87,7.87,0,0,0-7.82,7.83v85A7.79,7.79,0,0,0,137,97.3c2.17-19.86,23.26-35.45,49-35.45s46.79,15.61,48.93,35.48a7.82,7.82,0,0,0,1.42-4.48v-85A7.86,7.86,0,0,0,228.45,0Z"/><path class="cls-2" d="M185.93,61.85c-25.69,0-46.78,15.59-49,35.45a7.83,7.83,0,0,0,6.41,3.39h85.06a7.85,7.85,0,0,0,6.41-3.36C232.72,77.46,211.63,61.85,185.93,61.85Z"/><g id="Shape_319" data-name="Shape 319"><path class="cls-4" d="M65.21,277H7.83A7.86,7.86,0,0,0,0,284.78v57.39A7.85,7.85,0,0,0,7.83,350H65.21A7.85,7.85,0,0,0,73,342.17V284.78A7.85,7.85,0,0,0,65.21,277Z"/></g><path class="cls-5" d="M4,313.49A32.52,32.52,0,1,1,36.55,346,32.57,32.57,0,0,1,4,313.49Zm2,0a30.58,30.58,0,1,0,30.61-30.58A30.52,30.52,0,0,0,6,313.49Z"/><path class="cls-5" d="M20,300.8c1-.08,1.82-.13,2.64-.23,1-.12,1.55-.59,1.43-1.3-.15-.9-.8-1-1.58-1-2.4.13-4.79.23-7.19.33a9.76,9.76,0,0,1-1.17-.07c8.43-13.68,28.67-16.34,40.48-5.13a4.65,4.65,0,0,0-4.49,3.75,5.3,5.3,0,0,0,.4,3.65,23.87,23.87,0,0,0,1.68,3.11,14.7,14.7,0,0,1,1.9,13c-1.29,4.24-2.59,8.47-4,13-3.31-9.83-6.52-19.38-9.77-29.06l1.43-.19a5.78,5.78,0,0,0,1.7-.23,1.73,1.73,0,0,0,.89-1.13c.07-.63-.42-1.06-1.12-1-1,0-2.1.18-3.15.17-3.36,0-6.71-.08-10.07-.14a3.65,3.65,0,0,0-1.32,0,1.86,1.86,0,0,0-1,1,.88.88,0,0,0,.8,1.18c.79.12,1.6.13,2.38.29a1.19,1.19,0,0,1,.79.62c1.31,3.46,2.57,6.94,3.82,10.43a1.66,1.66,0,0,1,0,1q-2.77,8.4-5.59,16.8c0,.06-.08.09-.22.26C26.47,320.19,23.24,310.57,20,300.8Z"/><path class="cls-5" d="M37,315.89c2.86,7.83,5.63,15.44,8.41,23-3.7,1.78-11,2.29-16.51.5Z"/><path class="cls-5" d="M24.64,337.76A27,27,0,0,1,11.8,302.57Z"/><path class="cls-5" d="M50.23,336.76c1.86-5.37,3.65-10.56,5.45-15.74,1.1-3.17,2.26-6.31,3.3-9.49a32.39,32.39,0,0,0,1.29-5.2,48.42,48.42,0,0,0,.28-5.15C66.74,311.81,63.82,328.94,50.23,336.76Z"/><g id="Shape_320" data-name="Shape 320"><path class="cls-4" d="M215,277H157.55a7.85,7.85,0,0,0-7.82,7.83v57.39a7.85,7.85,0,0,0,7.82,7.83H215a7.83,7.83,0,0,0,7.81-7.83V284.78A7.84,7.84,0,0,0,215,277Z"/></g><path class="cls-5" d="M153.74,313.49A32.52,32.52,0,1,1,186.29,346,32.57,32.57,0,0,1,153.74,313.49Zm2,0a30.58,30.58,0,1,0,30.61-30.58A30.52,30.52,0,0,0,155.7,313.49Z"/><path class="cls-5" d="M169.7,300.8c1-.08,1.82-.13,2.64-.23,1-.12,1.55-.59,1.43-1.3-.15-.9-.8-1-1.58-1-2.4.13-4.79.23-7.19.33a9.76,9.76,0,0,1-1.17-.07c8.43-13.68,28.68-16.34,40.48-5.13a4.65,4.65,0,0,0-4.49,3.75,5.3,5.3,0,0,0,.4,3.65,23.87,23.87,0,0,0,1.68,3.11,14.73,14.73,0,0,1,1.91,13c-1.3,4.24-2.59,8.47-4,13-3.31-9.83-6.52-19.38-9.77-29.06.53-.07,1-.14,1.44-.19a5.75,5.75,0,0,0,1.69-.23,1.73,1.73,0,0,0,.89-1.13.94.94,0,0,0-1.11-1c-1.06,0-2.11.18-3.16.17-3.36,0-6.71-.08-10.06-.14a3.71,3.71,0,0,0-1.33,0,1.86,1.86,0,0,0-1,1,.88.88,0,0,0,.8,1.18c.79.12,1.6.13,2.38.29a1.19,1.19,0,0,1,.79.62c1.31,3.46,2.57,6.94,3.82,10.43a1.66,1.66,0,0,1,0,1q-2.78,8.4-5.59,16.8c0,.06-.08.09-.22.26C176.21,320.19,173,310.57,169.7,300.8Z"/><path class="cls-5" d="M186.75,315.89c2.86,7.83,5.63,15.44,8.41,23-3.7,1.78-11,2.29-16.51.5Z"/><path class="cls-5" d="M174.39,337.76a27,27,0,0,1-12.85-35.19C165.84,314.36,170.08,326,174.39,337.76Z"/><path class="cls-5" d="M200,336.76c1.86-5.37,3.65-10.56,5.45-15.74,1.1-3.17,2.26-6.31,3.3-9.49a32.39,32.39,0,0,0,1.29-5.2,48.42,48.42,0,0,0,.28-5.15C216.48,311.81,213.56,328.94,200,336.76Z"/><g id="Shape_321" data-name="Shape 321"><path class="cls-4" d="M364.18,277H306.79a7.87,7.87,0,0,0-7.85,7.83v57.39a7.86,7.86,0,0,0,7.85,7.83h57.39a7.85,7.85,0,0,0,7.83-7.83V284.78A7.86,7.86,0,0,0,364.18,277Z"/></g><path class="cls-5" d="M303,313.49A32.52,32.52,0,1,1,335.5,346,32.55,32.55,0,0,1,303,313.49Zm2,0a30.58,30.58,0,1,0,30.61-30.58A30.51,30.51,0,0,0,304.92,313.49Z"/><path class="cls-5" d="M318.91,300.8c1-.08,1.82-.13,2.64-.23,1-.12,1.55-.59,1.43-1.3-.15-.9-.8-1-1.58-1-2.39.13-4.79.23-7.18.33a9.8,9.8,0,0,1-1.18-.07c8.44-13.68,28.68-16.34,40.49-5.13a4.67,4.67,0,0,0-4.5,3.75,5.36,5.36,0,0,0,.41,3.65,22.73,22.73,0,0,0,1.68,3.11,14.7,14.7,0,0,1,1.9,13c-1.29,4.24-2.59,8.47-4,13l-9.78-29.06,1.44-.19a5.75,5.75,0,0,0,1.69-.23,1.67,1.67,0,0,0,.89-1.13c.07-.63-.41-1.06-1.11-1-1.05,0-2.11.18-3.16.17-3.35,0-6.71-.08-10.06-.14a3.71,3.71,0,0,0-1.33,0,1.89,1.89,0,0,0-1,1,.89.89,0,0,0,.81,1.18c.78.12,1.59.13,2.37.29a1.21,1.21,0,0,1,.8.62q2,5.19,3.82,10.43a1.66,1.66,0,0,1,0,1q-2.78,8.4-5.59,16.8c0,.06-.08.09-.23.26C325.43,320.19,322.19,310.57,318.91,300.8Z"/><path class="cls-5" d="M336,315.89c2.86,7.83,5.64,15.44,8.41,23-3.69,1.78-11,2.29-16.5.5C330.54,331.67,333.21,323.91,336,315.89Z"/><path class="cls-5" d="M323.6,337.76a27,27,0,0,1-12.85-35.19C315.06,314.36,319.3,326,323.6,337.76Z"/><path class="cls-5" d="M349.19,336.76c1.85-5.37,3.64-10.56,5.44-15.74,1.1-3.17,2.27-6.31,3.31-9.49a33.48,33.48,0,0,0,1.29-5.2,51.2,51.2,0,0,0,.28-5.15C365.7,311.81,362.78,328.94,349.19,336.76Z"/></g></g></svg>