<svg xmlns="http://www.w3.org/2000/svg" xmlns:xlink="http://www.w3.org/1999/xlink" viewBox="0 0 151.02 151.02"><defs><style>.cls-1,.cls-10{fill:#fff;}.cls-1{opacity:0.3;}.cls-2{fill:#45b39c;}.cls-3{fill:#3a3a3a;}.cls-4{fill:#ecf0f0;}.cls-5{fill:url(#linear-gradient);}.cls-6{fill:url(#linear-gradient-2);}.cls-7{fill:#2b414f;}.cls-8{fill:#222a32;}.cls-9{opacity:0.5;}</style><linearGradient id="linear-gradient" x1="-26.99" y1="-359.48" x2="-26.99" y2="-373.67" gradientTransform="translate(102.5 481)" gradientUnits="userSpaceOnUse"><stop offset="0" stop-color="#fff" stop-opacity="0"/><stop offset="1" stop-opacity="0.5"/></linearGradient><linearGradient id="linear-gradient-2" x1="-26.99" y1="-359.36" x2="-26.99" y2="-373.58" xlink:href="#linear-gradient"/></defs><title>need-website</title><g id="Layer_2" data-name="Layer 2"><g id="Layer_1-2" data-name="Layer 1"><circle class="cls-1" cx="75.51" cy="75.51" r="75.51"/><polygon class="cls-2" points="89.7 122.57 61.28 122.57 61.28 121.36 89.73 121.36 89.73 122.57 89.7 122.57"/><rect class="cls-3" x="61.28" y="121.36" width="28.45" height="1.21"/><path class="cls-4" d="M24.82,93.31v9.11a5,5,0,0,0,5,5H66.05c-.06,1.06-.12,2-.18,2.85.06-.85.12-1.79.18-2.85h54.46a5.71,5.71,0,0,0,5.69-5.69V93.31C124.54,93.28,24.82,93.31,24.82,93.31Zm50.64,10.47A3.52,3.52,0,1,1,79,100.26,3.48,3.48,0,0,1,75.46,103.78Z"/><path class="cls-4" d="M75.5,121c.06,0,0,.51,0,.51S75.56,121,75.5,121Z"/><path class="cls-4" d="M75.36,114.94c.09-.66.21-1.48.3-2.48C75.57,113.46,75.45,114.28,75.36,114.94Z"/><path class="cls-4" d="M75.51,44v0Z"/><path class="cls-4" d="M75.4,112.46c.06-.67.12-1.42.21-2.27C75.52,111,75.46,111.76,75.4,112.46Z"/><path class="cls-2" d="M74.54,117.51S75.93,121,77.87,121c-1.94,0-3.33-3.52-3.33-3.52s-1-1.81-1.39-10.16h0C73.57,115.7,74.54,117.51,74.54,117.51Z"/><path class="cls-5" d="M74.54,117.51S75.93,121,77.87,121c-1.94,0-3.33-3.52-3.33-3.52s-1-1.81-1.39-10.16h0C73.57,115.7,74.54,117.51,74.54,117.51Z"/><path class="cls-4" d="M86.38,117.63s-1-1.82-1.39-10.19H66c-.06,1.06-.12,2-.18,2.85s-.12,1.61-.21,2.28c-.09,1-.22,1.82-.31,2.48a13.12,13.12,0,0,1-.54,2.58s-1.46,3.52-3.46,3.52c.06,0,0,.52,0,.52H89.72s-.06-.52,0-.52C87.78,121.15,86.38,117.63,86.38,117.63Z"/><path class="cls-6" d="M86.38,117.63s-1-1.82-1.39-10.19H66c-.06,1.06-.12,2-.18,2.85s-.12,1.61-.21,2.28c-.09,1-.22,1.82-.31,2.48a13.12,13.12,0,0,1-.54,2.58s-1.46,3.52-3.46,3.52c.06,0,0,.52,0,.52H89.72s-.06-.52,0-.52C87.78,121.15,86.38,117.63,86.38,117.63Z"/><path class="cls-7" d="M121.18,37.84H29.84a5,5,0,0,0-5,5V93.22s99.72,0,101.35,0h0V42.82A5,5,0,0,0,121.18,37.84Zm-1,49.45c-.21,0-89.52.06-89.58,0V43.63s89.58,0,89.58,0Z"/><circle class="cls-7" cx="75.51" cy="100.26" r="3.51"/><path class="cls-8" d="M30.72,43.63V87.29c0,.06,89.37,0,89.58,0V43.63S30.72,43.63,30.72,43.63Z"/><g id="Heip" class="cls-9"><path class="cls-10" d="M75.28,49A16.87,16.87,0,1,0,92.38,65.6,16.88,16.88,0,0,0,75.28,49Zm0,27.18h-.1a2.46,2.46,0,0,1,0-4.92h.09a2.46,2.46,0,1,1,0,4.92Zm6.05-12a11.3,11.3,0,0,1-2,1.81l-1,.71a2.82,2.82,0,0,0-1,1.27,2.48,2.48,0,0,0-.15,1v.17h-4l0-.33c0-1.37.08-2.18.65-2.84a16.78,16.78,0,0,1,3-2.38,2.89,2.89,0,0,0,.69-.71,2.47,2.47,0,0,0,.6-1.46,2.83,2.83,0,0,0-.54-1.68,2.27,2.27,0,0,0-2-.73,2.14,2.14,0,0,0-2,.91,3.63,3.63,0,0,0-.6,2V62H68.84v-.18c.11-2.49,1-4.29,2.65-5.34a7,7,0,0,1,3.84-1,8.25,8.25,0,0,1,5,1.42,4.94,4.94,0,0,1,2,4.26A5,5,0,0,1,81.29,64.1Z"/></g></g></g></svg>