<svg xmlns="http://www.w3.org/2000/svg" viewBox="0 0 220.02 200"><defs><style>.cls-1{fill:#f79449;}.cls-2{fill:#37444f;}.cls-3,.cls-6{fill:#fff;}.cls-3,.cls-5{opacity:0.5;}.cls-4{fill:#009444;}</style></defs><title>one-click</title><g id="Layer_2" data-name="Layer 2"><g id="Layer_1-2" data-name="Layer 1"><rect class="cls-1" x="9.99" y="6.03" width="200" height="187.48"/><path class="cls-2" d="M200,0H20A20,20,0,0,0,0,20V180a20,20,0,0,0,20,20H200a20,20,0,0,0,20-20V20A20.1,20.1,0,0,0,200,0ZM10,20A10,10,0,0,1,20,10H200a10,10,0,0,1,10,10V50H10ZM210,180a10,10,0,0,1-10,10H20a10,10,0,0,1-10-10V60H210Z"/><circle class="cls-3" cx="60.01" cy="30" r="9.99"/><path class="cls-3" d="M90,20a10,10,0,1,0,10,10A10,10,0,0,0,90,20Z"/><circle class="cls-3" cx="30" cy="30" r="9.99"/><rect class="cls-2" x="18.23" y="153.98" width="183.55" height="29.32" rx="5.35"/><rect class="cls-4" x="18.23" y="154.09" width="132.75" height="29.32" rx="5.35"/><path class="cls-3" d="M18.23,166.67,30.8,154.1H44.92L19.08,179.94a7,7,0,0,1-.85-3.89Z"/><polygon class="cls-3" points="25.87 183.4 55.18 154.09 69.29 154.09 39.98 183.4 25.87 183.4"/><polygon class="cls-3" points="50.25 183.4 79.55 154.09 93.67 154.09 64.36 183.4 50.25 183.4"/><polygon class="cls-3" points="74.62 183.4 103.93 154.09 118.04 154.09 88.73 183.4 74.62 183.4"/><polygon class="cls-3" points="99 183.4 128.3 154.09 142.42 154.09 113.11 183.4 99 183.4"/><path class="cls-3" d="M123.37,183.4,149.78,157a6.92,6.92,0,0,1,1.21,3.82v9.09l-13.51,13.5Z"/><g class="cls-5"><path class="cls-6" d="M68,106.44a42,42,0,1,1,42.06,42A42.08,42.08,0,0,1,68,106.44Zm2.54,0a39.52,39.52,0,1,0,39.56-39.53A39.45,39.45,0,0,0,70.52,106.44Z"/><path class="cls-6" d="M88.6,90c1.29-.11,2.36-.17,3.42-.29,1.34-.17,2-.77,1.84-1.69-.19-1.17-1-1.33-2-1.27-3.1.16-6.19.29-9.29.42A13.54,13.54,0,0,1,81,87.12c10.9-17.68,37.06-21.12,52.32-6.63a6,6,0,0,0-5.81,4.85,6.91,6.91,0,0,0,.52,4.71,30,30,0,0,0,2.18,4,19,19,0,0,1,2.45,16.8c-1.66,5.48-3.34,11-5.13,16.81-4.28-12.71-8.43-25.05-12.63-37.57.68-.09,1.27-.18,1.85-.24a7.34,7.34,0,0,0,2.19-.29,2.26,2.26,0,0,0,1.16-1.47c.08-.81-.54-1.36-1.45-1.32-1.36.06-2.72.24-4.08.23-4.33,0-8.67-.11-13-.18a4.52,4.52,0,0,0-1.72,0,2.37,2.37,0,0,0-1.24,1.25,1.14,1.14,0,0,0,1,1.52c1,.16,2.06.17,3.07.38a1.56,1.56,0,0,1,1,.8c1.69,4.47,3.32,9,4.94,13.48a2.14,2.14,0,0,1,0,1.3q-3.58,10.88-7.22,21.72c0,.07-.1.12-.29.33C97,115.09,92.84,102.67,88.6,90Z"/><path class="cls-6" d="M110.64,109.54c3.7,10.13,7.28,20,10.87,29.77-4.77,2.31-14.26,3-21.33.65Z"/><path class="cls-6" d="M94.66,137.81a34.93,34.93,0,0,1-16.6-45.48Z"/><path class="cls-6" d="M127.73,136.51c2.4-6.93,4.71-13.64,7-20.34,1.42-4.09,2.93-8.15,4.27-12.27a42.19,42.19,0,0,0,1.67-6.71c.33-2.25.26-4.56.36-6.66C149.07,104.26,145.29,126.41,127.73,136.51Z"/></g></g></g></svg>