<svg xmlns="http://www.w3.org/2000/svg" viewBox="0 0 417.11 400"><defs><style>.cls-1{fill:#f79449;}.cls-2{fill:#37444f;}.cls-3{opacity:0.5;}.cls-4,.cls-6{fill:#fff;}.cls-4{fill-rule:evenodd;}.cls-5{fill:#009444;}</style></defs><title>premium-support</title><g id="Layer_2" data-name="Layer 2"><g id="Layer_1-2" data-name="Layer 1"><circle class="cls-1" cx="181.43" cy="181.43" r="167.5" transform="translate(-75.15 181.43) rotate(-45)"/><path class="cls-2" d="M181.43,27.85A153.58,153.58,0,0,1,290,290,153.58,153.58,0,0,1,72.83,72.83a152.6,152.6,0,0,1,108.6-45m0-27.85A181.43,181.43,0,0,0,0,181.43C0,281.62,81.23,362.85,181.43,362.85A181.43,181.43,0,0,0,362.85,181.43C362.85,81.23,281.62,0,181.43,0Z"/><g id="Chat_icon" data-name="Chat icon" class="cls-3"><path class="cls-4" d="M271.63,255.26c0,9.4,5.26,17.9,8.35,24.15h0c.26,0,.39,2.1.39,2.77,0,2.64-2.12,5.66-4.75,5.66-.38,0-1-.07-1.25-.07-.06,0-.09,0-.07.05-16.42-2.68-35.61-19.83-39.2-24.21-3.7.55-12.54.23-14.19.16-34.21-1.57-50.07-11.35-65.33-23.86h.62c5.8,0,13-1.54,18.6-2.21,12.92,9,33.4,14,47.86,13.71s18.49-1.23,18.49-1.23l4.8,5.69c1.48,1.75,8.14,9.73,17,14.67,0,0-4.82-15-2.73-22.45l6.25-3.49c17.92-9.16,27.63-24,27.63-40.72,0-16-8.66-30.23-25.13-39.48a68,68,0,0,0,1-11.18c0-.78-.12-1.55-.15-2.34,23.27,11.19,36.77,30.72,36.77,53C306.59,225.51,293.78,243.91,271.63,255.26ZM156.37,225.18l-5.19,0a66.81,66.81,0,0,1-11-.75c-4.28,5.21-25.78,22.49-45.33,25.68h-.1c-.27,0-1,.09-1.5.09a5.66,5.66,0,0,1-5.21-7.9h0c3.69-6.35,10-18.69,10-29.9,0-.18,0-.29,0-.46-26.47-13.52-41.76-36-41.76-61.85C56.26,108.64,101.07,75,156.37,75s100.11,33.63,100.11,75.09S211.66,225.18,156.37,225.18Zm0-137.65c-48.31,0-87.6,28.06-87.6,62.57,0,20.87,12.73,39.35,35,50.72l6.81,3.48V213l-.06.38a60.89,60.89,0,0,1-4.28,19.86c11.65-5.58,22.2-14.25,24.27-16.75l4.5-5.44,7,1a54.24,54.24,0,0,0,9.2.62h5.19c48.3,0,87.6-28.07,87.6-62.57S204.67,87.53,156.37,87.53Z"/></g><path class="cls-5" d="M397.53,274.77a52.78,52.78,0,1,0-52.79,52.79A52.83,52.83,0,0,0,397.53,274.77Z"/><g class="cls-3"><path class="cls-6" d="M366.84,257.93h-9.93l-3.06-9.39a9.58,9.58,0,0,0-18.22,0l-3.07,9.39h-9.89A9.59,9.59,0,0,0,317,275.27l8,5.8-3.06,9.4a9.58,9.58,0,0,0,14.74,10.71l8-5.8,8,5.8a9.57,9.57,0,0,0,14.73-10.71l-3.06-9.4,7.8-5.66a9.66,9.66,0,0,0,4.16-7.9A9.52,9.52,0,0,0,366.84,257.93Zm-13.66,19.51,5.19,16-13.63-9.9-13.63,9.9,5.19-16-13.63-9.89h16.87l5.2-16,5.2,16h16.87Z"/></g><path class="cls-5" d="M416.22,376.76,391.69,322a4.79,4.79,0,0,0-7.69-1.49,51.88,51.88,0,0,1-32.11,14.38,4.82,4.82,0,0,0-4,6.76l24.88,55.53a4.78,4.78,0,0,0,4.38,2.85h.14a4.81,4.81,0,0,0,4.34-3.1l8-20.86,20.86,8a4.83,4.83,0,0,0,1.7.32h.11a4.79,4.79,0,0,0,4.81-4.81A4.67,4.67,0,0,0,416.22,376.76Z"/><path class="cls-5" d="M337.12,334.54a51.77,51.77,0,0,1-32-14.63,4.83,4.83,0,0,0-4.24-1.28,4.9,4.9,0,0,0-3.49,2.7l-25.31,55.39A4.79,4.79,0,0,0,273,382a4.87,4.87,0,0,0,5.19,1.24l20.93-7.79,7.8,20.93a4.82,4.82,0,0,0,4.31,3.13h.17a4.74,4.74,0,0,0,4.35-2.81l25.34-55.39a4.84,4.84,0,0,0-.21-4.41A4.65,4.65,0,0,0,337.12,334.54Z"/></g></g></svg>