<svg xmlns="http://www.w3.org/2000/svg" viewBox="0 0 800 196.49"><defs><style>.cls-1,.cls-2,.cls-4{fill:#fff;}.cls-1{opacity:0.9;}.cls-2,.cls-3{opacity:0.8;}.cls-5{fill:none;}</style></defs><title>shopify</title><g id="Layer_2" data-name="Layer 2"><g id="Layer_1-2" data-name="Layer 1"><path class="cls-1" d="M86.06,162.72c.15-4.05.24-8.11.49-12.16q.27-4.2.46-8.41c.23-5,.54-10,.73-15.07.1-2.92.32-5.83.45-8.76.23-5,.52-10,.72-15.07.13-3,.32-6,.47-9,.24-4.83.5-9.65.71-14.48.13-3,.32-6,.46-9,.24-4.86.5-9.73.72-14.6.16-3.31.43-6.61.44-9.93,1-.21,1.51.44,2.08,1q3.34,3.3,6.65,6.66a1.85,1.85,0,0,0,1.32.56c3.25.2,6.49.44,9.73.7a1.24,1.24,0,0,1,1.16,1.11c.56,3.87,1.08,7.75,1.66,11.62s1.28,7.86,1.86,11.8c.52,3.5.93,7,1.44,10.5.42,2.84,1,5.66,1.38,8.5s.78,5.94,1.21,8.91,1,5.82,1.38,8.74.75,5.71,1.22,8.55.88,5.91,1.33,8.86.87,5.85,1.26,8.78c.46,3.42,1,6.81,1.59,10.22.12.75.09,1.23-.88,1.42-4.26.85-8.51,1.78-12.76,2.7-3.36.72-6.7,1.48-10.06,2.2l-12.75,2.74A40.19,40.19,0,0,1,86.06,162.72Z"/><path class="cls-2" d="M91,46.25c-1.81-.39-3.36.64-5,1-.47.09-.5.08-.66-.36a28.26,28.26,0,0,0-2.77-5.79c-2-3.08-4.47-5.57-8.15-6.29-2.1-.41-4-.73-5.58-2.44-1.16-1.27-3-1.47-4.65-1.92H61.8c-1.17.29-2.4.15-3.57.56a25.23,25.23,0,0,0-11.29,8c-5.21,6.34-8.3,13.72-10.34,21.58A3,3,0,0,1,34.28,63c-3.81,1.08-7.58,2.31-11.36,3.5a4.06,4.06,0,0,0-3.09,3.69q-1.29,10-2.6,20.06-1.73,13.29-3.44,26.59c-.9,7-1.8,14.08-2.74,21.11-.43,3.26-.75,6.52-1.05,9.79v.94a8.75,8.75,0,0,0,.88.23c4.42.8,8.84,1.55,13.25,2.38,4.74.9,9.46,1.9,14.2,2.79,5.32,1,10.65,1.89,16,2.86,3.69.68,7.38,1.4,11.06,2.11s7.14,1.4,10.72,2.07c3.09.58,6.18,1.1,9.27,1.65.4-.41.33-.94.37-1.44.11-1.88.18-3.76.28-5.63.34-6.14.63-12.29.93-18.43.08-1.8.12-3.6.26-5.4.3-3.82.42-7.66.61-11.49.2-4,.35-8.07.57-12.09q.45-8,.83-16.07c.28-5.56.61-11.11.8-16.67.06-1.72.12-3.44.25-5.16.3-4,.39-8.06.64-12.09.17-2.57.25-5.16.4-7.74C91.38,49.09,91.69,47.63,91,46.25ZM68.9,41a30.11,30.11,0,0,1,1.16,6.31c.08,1.2.21,2.39.24,3.6,0,.92-.21,1.28-1.18,1.56-3.84,1.09-7.63,2.35-11.57,3.58A32.13,32.13,0,0,1,62.26,45.5a16.71,16.71,0,0,1,5.59-4.92C68.35,40.29,68.68,40.25,68.9,41ZM42.51,58.79a52.14,52.14,0,0,1,6.33-13.72,23.27,23.27,0,0,1,9.7-8.66c2.39-1.08,5.43-1.52,6.91-.43-5.52,2.8-8.81,7.45-11,13.08A42.89,42.89,0,0,0,52.13,57a1.29,1.29,0,0,1-1,1.09c-3,.86-6,1.83-9,2.77C41.81,60,42.31,59.42,42.51,58.79Zm29,19.69c-1.55,4.48-3,9-4.49,13.5-.25.78-.53,1-1.29.61a23.62,23.62,0,0,0-7.07-1.92,13,13,0,0,0-5.91.48,5.6,5.6,0,0,0-4.06,4.28c-.47,2.17.49,3.94,2.11,5.42,2.08,1.92,4.59,3.22,6.81,4.94,4.07,3.15,7.26,7,8.34,12.11a23.74,23.74,0,0,1-.47,11.17A18.82,18.82,0,0,1,60,138.3a17,17,0,0,1-8.44,4.2c-6.2,1.22-12-.07-17.56-2.83a21.34,21.34,0,0,1-5.43-3.87,1.78,1.78,0,0,1-.5-2.07c1.11-3.48,2.11-7,3.2-10.65a28.64,28.64,0,0,0,10.52,5.7c3.09.79,5.51-.27,6.5-2.1a6,6,0,0,0-.14-6.13c-1.3-2.28-3.38-3.8-5.42-5.34-3.83-2.9-6.72-6.44-7.86-11.22a20.86,20.86,0,0,1-.22-6.92,22.72,22.72,0,0,1,2.42-8.22,21.89,21.89,0,0,1,9.31-9.52A31.6,31.6,0,0,1,59,75.82a29.23,29.23,0,0,1,11.83,1.46C71.52,77.5,71.78,77.66,71.49,78.48Zm9.36-29.82c-.4.67-1.82.76-2.8,1.06s-2,.58-3,.88a38.82,38.82,0,0,0-1.34-10.54c-.06-.24-.15-.49.06-.63s.43,0,.65.13c2.94,1.1,4.24,3.65,5.55,6.21,0,0,0,.08,0,.11C80.26,46.84,81.25,48,80.85,48.66Z"/><g class="cls-3"><path class="cls-4" d="M427,166.06c-1.43-4.42-3-8.79-4.29-13.24-.2-.68,0-.7.51-.92a38.9,38.9,0,0,0,8.17-4.18,30.85,30.85,0,0,0,8.81-9.46c.88-1.5.44-3,.17-4.5-.63-3.28-1.23-6.58-1.84-9.87-.67-3.58-1.48-7.15-2.07-10.75s-1.29-7.12-1.93-10.67-1.47-7.32-2.07-11c-.43-2.59-.89-5.18-1.44-7.75-.14-.68.34-.55.71-.55,2.08,0,4.15,0,6.23,0,3.1,0,6.2,0,9.3,0,.8,0,.89.25,1,1,.28,2.83.53,5.66.86,8.49.21,1.79.34,3.6.52,5.41.29,2.9.63,5.81.89,8.71.2,2.42.57,4.82.79,7.23.24,2.65.61,5.29.72,8.23.83-2.44,1.52-4.66,2.32-6.83q2.81-7.59,5.69-15.14c1.93-5.08,3.89-10.14,5.83-15.21.18-.46.33-.93.49-1.39a.65.65,0,0,1,.71-.46l16.36,0s0,0,.12.16c-1.25,2.65-2.52,5.35-3.78,8.05q-4.28,9.13-8.54,18.28c-2.15,4.59-4.35,9.15-6.42,13.77-1.69,3.78-3.57,7.45-5.55,11.07A110,110,0,0,1,449.35,150a65,65,0,0,1-5.6,6.45,38.44,38.44,0,0,1-14.54,9c-.66.22-1.41.17-2,.64Z"/><path class="cls-4" d="M214.21,90c1.32-1.09,2.41-2.41,3.75-3.46A21.37,21.37,0,0,1,228.6,82a17,17,0,0,1,7.81.7,11,11,0,0,1,6.92,6.94,18.63,18.63,0,0,1,1.15,7.91,79.62,79.62,0,0,1-1.77,12.37c-.71,3.16-1.14,6.37-1.74,9.55-.56,3-1.19,6-1.76,8.95q-.92,4.77-1.75,9.55a11.61,11.61,0,0,0-.3,1.58c0,.39-.33.66-.89.66q-7.41-.06-14.83,0c-.68,0-.79-.22-.68-.82.86-4.44,1.67-8.9,2.57-13.33,1-4.77,1.81-9.56,2.75-14.34a62.26,62.26,0,0,0,1.32-8.86,17.5,17.5,0,0,0-.32-4.64,4.47,4.47,0,0,0-4.78-3.08c-4.16.57-6.52,3.38-8.48,6.66a32.78,32.78,0,0,0-3.89,10.6c-1,5.23-1.85,10.5-2.88,15.73-.73,3.7-1.5,7.38-2.11,11.1a1,1,0,0,1-1.18,1q-7.19-.08-14.37,0c-.91,0-1-.34-.87-1.09.86-4.05,1.61-8.13,2.33-12.22.52-3,1.22-6,1.79-8.94.68-3.59,1.3-7.19,2-10.79.47-2.54,1-5.07,1.46-7.62.7-3.66,1.37-7.33,2.07-11,.58-3,1.22-6,1.79-8.94.61-3.18,1.15-6.37,1.74-9.55.57-3,1.16-6,1.74-9a10.43,10.43,0,0,0,.36-1.9c0-1,.39-1.23,1.33-1.22,4.75,0,9.5,0,14.25,0,1,0,.93.26.74,1.15-.74,3.34-1.3,6.72-1.94,10.08-.61,3.18-1.28,6.34-1.87,9.52-.66,3.51-1.27,7-1.9,10.56C214.34,89.5,214,89.64,214.21,90Z"/><path class="cls-4" d="M417.1,82.94h9.72c1.41,0,1.39,0,1.12,1.41-.49,2.66-1,5.32-1.4,8a12.11,12.11,0,0,0-.29,1.82c0,.66-.34,1.08-1.23,1.06-3-.09-6,0-9.06-.06a1,1,0,0,0-1.2,1c-.88,4.71-1.68,9.44-2.63,14.14-.7,3.5-1.31,7-2,10.52-.94,4.43-1.6,8.92-2.42,13.38-.32,1.68-.77,3.33-1,5-.06.52-.23,1-1.08,1-4.82-.07-9.65-.06-14.47,0-1,0-1-.37-.85-1.11.71-3.66,1.36-7.33,2.07-11,.83-4.25,1.71-8.49,2.52-12.75.61-3.17,1.13-6.37,1.72-9.55.48-2.58,1-5.15,1.5-7.73.18-.93.34-1.87.52-2.87h-7.41c.71-3.73,1.43-7.37,2.07-11,.16-.92.48-1.27,1.45-1.23,1.84.08,3.68,0,5.53,0,.52,0,.73,0,.85-.71a42.15,42.15,0,0,1,3.56-12.15c3.36-6.72,8.61-11.23,16.07-12.73a27.15,27.15,0,0,1,14,.6c.56.19.68.26.5.92-1,3.73-1.93,7.48-2.81,11.24-.17.75-.26.93-1.08.69a11.86,11.86,0,0,0-6.36-.35c-2.79.7-4.45,2.72-5.77,5.07a20.51,20.51,0,0,0-1.93,6.38C417.28,82.2,417.2,82.49,417.1,82.94Z"/><path class="cls-4" d="M161.18,141.09a33.48,33.48,0,0,1-14.86-2.83c-1.84-.82-1.83-.89-1.17-2.79,1.07-3.11,2.19-6.19,3.22-9.31.18-.53.23-.67.78-.38a28.41,28.41,0,0,0,10.1,3.24c2.85.33,5.8.35,8.11-2a5,5,0,0,0,.31-6.38c-1.7-2.44-4.4-3.57-6.77-5.13-3.81-2.49-7.31-5.34-8.69-9.89-1.77-5.85-.46-11.16,3.41-15.84,3.55-4.29,8.31-6.31,13.64-7.34a40,40,0,0,1,9.65-.4,25.61,25.61,0,0,1,9.07,2c.86.38,1,.77.69,1.6-1.12,3.21-2.22,6.42-3.22,9.67-.26.83-.5.83-1.2.55A22.7,22.7,0,0,0,174.08,94c-2.6.18-5.4,1.27-6.14,4.06a4.24,4.24,0,0,0,1,4c1.7,2.12,4.2,3.14,6.43,4.53,3.6,2.24,6.8,4.9,8.72,8.77a14.28,14.28,0,0,1,1.16,8.38,18.44,18.44,0,0,1-3.32,8.71,18.75,18.75,0,0,1-5.37,4.9,27.71,27.71,0,0,1-9.79,3.43A24.75,24.75,0,0,1,161.18,141.09Z"/><path class="cls-4" d="M360.18,140.15c.62-3.34,1.21-6.59,1.83-9.84.56-3,1.17-6,1.74-9,.61-3.21,1.18-6.43,1.79-9.65.55-3,1.11-5.91,1.68-8.86q.91-4.7,1.85-9.4c.63-3.21,1.27-6.41,1.85-9.63.09-.48.17-.65.68-.64q7.59,0,15.18,0c.56,0,.69.08.56.73-.8,3.83-1.51,7.68-2.26,11.53-.69,3.5-1.42,7-2.09,10.51-.59,3.1-1.09,6.22-1.69,9.33s-1.26,6-1.85,9c-.67,3.48-1.27,7-1.91,10.45-.3,1.64-.65,3.28-.92,4.93-.06.35-.14.47-.49.47Z"/><path class="cls-4" d="M676.05,94.12a47.16,47.16,0,0,1,5.63-6.28A21.48,21.48,0,0,1,692.6,82c4.42-.79,8.57,0,11.88,3.3a12.78,12.78,0,0,1,3.43,7.89c.57,4.9-.56,9.6-1.38,14.36-.63,3.61-1.31,7.2-1.95,10.8s-1.42,7.4-2.09,11.11q-.87,4.83-1.65,9.69c-.09.55-.3.74-.83.73-1.33,0-2.66,0-4,0-.65,0-.59-.2-.48-.77.71-3.66,1.33-7.35,2-11,.55-3,1.14-6.06,1.71-9.09.6-3.21,1.22-6.42,1.81-9.64.46-2.47,1-4.94,1.29-7.43.44-4,1-8-1-11.74a7.08,7.08,0,0,0-5-3.52c-4.75-1-8.53,1-12,3.91a31.26,31.26,0,0,0-8,10.37A37.28,37.28,0,0,0,673,111.94c-.59,3.68-1.45,7.32-2.06,11q-.69,4.13-1.44,8.23c-.49,2.69-1,5.4-1.41,8.1-.08.5-.31.67-.77.66h-4.12c-.48,0-.57-.14-.48-.62.94-4.9,1.84-9.8,2.78-14.7.68-3.58,1.42-7.16,2.08-10.75s1.27-7.28,1.92-10.92c.5-2.77,1.09-5.52,1.56-8.3.33-1.92.54-3.87.79-5.8s.49-3.81.69-5.71c.06-.52.37-.41.66-.41,1.22,0,2.43,0,3.65,0,.64,0,.72.28.65.77q-.4,2.91-.8,5.8C676.48,90.88,676.27,92.5,676.05,94.12Z"/><path class="cls-4" d="M636.36,87.41c.23-1.35.47-2.54.64-3.75.1-.68.35-1,1.1-1,2.11,0,4.23,0,6.35,0,.73,0,1-.21,1.07-1,.35-2.29,1-4.54,1.23-6.84a3.14,3.14,0,0,1,2.67-3.12,38.69,38.69,0,0,0,3.65-1.42c-.4,2-.76,3.76-1.13,5.56-.42,2-.85,4.09-1.26,6.14-.16.8.42.64.86.64,3.61,0,7.22,0,10.83,0,1,0,1.54.08,1,1.29a7.07,7.07,0,0,0-.47,2.46c0,.92-.46,1-1.18,1-3.76,0-7.53,0-11.29,0-.7,0-.9.12-1,.91-.46,3-1.08,6.07-1.65,9.1-.53,2.84-1.06,5.68-1.61,8.52-.76,4-1.62,8-2.28,12-.42,2.6-1,5.17-1.3,7.8a44.82,44.82,0,0,0-.17,4.77c0,2.85,1.77,4.38,4.42,4.48a9.67,9.67,0,0,0,3.89-.39c.33-.13.65-.17.62.33-.07,1,.28,1.9.28,2.88s-.29,1.2-1,1.35c-3.12.62-6.26.93-9.22-.47a7.63,7.63,0,0,1-4.37-6.29c-.54-4.06.3-8,1.12-11.94.61-3,1.11-6,1.69-9,.62-3.21,1.19-6.43,1.85-9.63.89-4.33,1.62-8.68,2.39-13,.25-1.39.22-1.4-1.23-1.4Z"/><path class="cls-4" d="M772,95.56a39.26,39.26,0,0,1,4.43-7c2.58-3.09,5.57-5.62,9.71-6.3,1-.16,1.93,0,2.89-.24.74-.18,1.22-.1.85,1a21.47,21.47,0,0,0-.74,3.93c-.06.44-.23.54-.59.45-3.32-.79-5.89.79-8.18,2.82-5.87,5.22-8.87,12.11-10.73,19.53-.9,3.58-1.28,7.28-2,10.91-.73,4-1.6,7.91-2.29,11.88-.39,2.25-.81,4.5-1.2,6.75-.1.61-.31.65-.79.65-1.49,0-3,0-4.57,0,.93-4.8,1.79-9.56,2.68-14.32.74-4,1.47-7.94,2.19-11.91.65-3.63,1.41-7.24,2.06-10.88.53-2.92,1-5.87,1.46-8.8a83.11,83.11,0,0,0,1.19-10c0-.85.31-1.58,1.51-1.38a8.81,8.81,0,0,0,2.46,0c.92-.1,1.08.32,1,1.06-.5,3.11-.6,6.26-1.13,9.37A13.93,13.93,0,0,0,772,95.56Z"/><path class="cls-4" d="M598.91,139.92c.62-3.36,1.22-6.65,1.85-9.93.69-3.66,1.42-7.32,2.1-11,.73-4,1.4-8,2.14-11.92.67-3.63,1.43-7.24,2.06-10.87.42-2.45.66-4.93,1-7.4a42.79,42.79,0,0,0,.49-5.3c0-.53.3-.88,1-.83a28.11,28.11,0,0,0,3.18,0c.59,0,.89.12.78.77-.42,2.38-.46,4.8-.9,7.18a42.54,42.54,0,0,0-.44,5,35.83,35.83,0,0,1,3.47-5.81c2.41-3.13,5.07-6,9.06-7.13,1.8-.53,3.65-.31,5.52-.76-.34,1.71-.68,3.22-.92,4.74-.11.67-.24.71-.94.61a8.53,8.53,0,0,0-6.53,1.88c-5,3.77-8,9-10.23,14.69-1.61,4.07-2.23,8.34-3,12.58-.77,4.08-1.65,8.13-2.32,12.22-.58,3.57-1.34,7.11-1.9,10.69-.06.39,0,.64-.56.63C602.13,139.9,600.53,139.92,598.91,139.92Z"/><path class="cls-4" d="M373.54,68.13a8.64,8.64,0,0,1,2.34-6.42,9.35,9.35,0,0,1,12.31-1.13,7.74,7.74,0,0,1,2.58,7.53,10.64,10.64,0,0,1-1.62,4.54,8.29,8.29,0,0,1-5,3.33,8.78,8.78,0,0,1-7.39-.85,7.21,7.21,0,0,1-3.21-6C373.53,68.87,373.54,68.6,373.54,68.13Z"/><path class="cls-4" d="M359.91,101.58a28.87,28.87,0,0,0-1.68-9.66,15.31,15.31,0,0,0-18.18-9.85,21.73,21.73,0,0,0-13.51,8.78,11.49,11.49,0,0,1,.07-2.19c.31-1.69.37-3.44.55-5.16.06-.57-.07-.82-.74-.81-4.32,0-8.63,0-12.95,0-.46,0-.63.07-.71.61q-.39,2.79-.72,5.59c-.29,2.42-.73,4.82-1.13,7.23s-.84,5-1.31,7.55c-.56,3-1.18,6-1.74,8.95-.6,3.18-1.13,6.38-1.74,9.56-.57,3-1.23,5.95-1.79,8.94-.68,3.59-1.28,7.19-1.95,10.79S301,149,300.31,152.55c-.61,3.14-1.21,6.27-1.85,9.4-.16.8,0,1.07.91,1.06,4.28,0,8.56,0,12.83,0,.78,0,1.73.23,2.29-.13s.38-1.3.55-2c0-.19.07-.38.11-.56.56-3.15,1.11-6.3,1.7-9.45.67-3.62,1.41-7.23,2-10.87.14-.79.4-.76.93-.45a16.16,16.16,0,0,0,7,1.75A25.45,25.45,0,0,0,337.17,140a29.38,29.38,0,0,0,13.45-9.69,39.66,39.66,0,0,0,6.45-11.55A46.27,46.27,0,0,0,359.91,101.58Zm-17,2.8a34.27,34.27,0,0,1-6.76,20c-2,2.58-4.58,4.56-8,4.68a9.41,9.41,0,0,1-6.37-2.08c-.22-.17-.28-.35-.21-.75.87-4.72,1.59-9.48,2.48-14.2a28.16,28.16,0,0,1,5.27-12.54,10.39,10.39,0,0,1,7.34-4.25c2.19-.2,4.68,1.72,5.5,4.07A13,13,0,0,1,343,104.38Z"/><path class="cls-4" d="M301.73,98a20.57,20.57,0,0,0-6.84-11.63c-3.61-3-8-4.27-12.62-4.62a28.11,28.11,0,0,0-8.63.75,30,30,0,0,0-17,11,39.67,39.67,0,0,0-6.83,14,46.25,46.25,0,0,0-1.47,11.25,23.68,23.68,0,0,0,.84,6.81c1.64,5.93,4.89,10.55,10.44,13.36a22.82,22.82,0,0,0,8,2.17,29.42,29.42,0,0,0,25.08-9.69,36.5,36.5,0,0,0,5.92-9,42.79,42.79,0,0,0,3.84-17.75A25.61,25.61,0,0,0,301.73,98Zm-20.41,24a13.62,13.62,0,0,1-5.2,5.76,6.88,6.88,0,0,1-9.5-2.57,16.16,16.16,0,0,1-1.45-9.34,46.39,46.39,0,0,1,1.71-8.61A24.18,24.18,0,0,1,272,97.51c2.89-3.13,6.37-4,9.81-2.25,2.13,1.11,3.14,3.11,3.65,5.41a20.44,20.44,0,0,1,.25,3.83A38.26,38.26,0,0,1,281.32,122Z"/><path class="cls-4" d="M543.28,91.43c-1.46-4.26-4.12-7.54-8.55-8.85a16.8,16.8,0,0,0-12.62,1.2c-4.81,2.42-8.44,6.14-11.58,10.89.13-1.17.2-2,.34-2.91.44-2.83.9-5.65,1.35-8.48.08-.49-.15-.59-.59-.58-1.26,0-2.51,0-3.77,0-.62,0-.77.4-.79.77-.19,3-.76,5.93-1.21,8.88-.38,2.49-.78,5-1.24,7.45-.65,3.6-1.36,7.18-2.05,10.77-.62,3.25-1.25,6.49-1.87,9.75-.56,3-1.12,6-1.66,9-.65,3.64-1.24,7.29-1.91,10.93-.58,3.1-1.26,6.18-1.85,9.28-.78,4.11-1.5,8.24-2.29,12.35-.11.57,0,.69.52.68,1.33,0,2.67,0,4,0,.44,0,.74-.1.82-.61.38-2.37.73-4.75,1.19-7.11q1.51-7.62,2.82-15.27c.14-.81.41-1.22,1.45-.93,4.36,1.23,8.74,2.34,13.36,1.57a22.52,22.52,0,0,0,7-2.24,32,32,0,0,0,10.58-9.08A47.12,47.12,0,0,0,541,117.8a48.17,48.17,0,0,0,3.31-13.33C544.67,100.06,544.74,95.68,543.28,91.43Zm-4.17,8.21a43.68,43.68,0,0,1-3.22,15.79,40.66,40.66,0,0,1-6.46,11.18,24.94,24.94,0,0,1-8.08,6.74,17.25,17.25,0,0,1-10.4,1.42,16.52,16.52,0,0,1-6.6-2.29,1.14,1.14,0,0,1-.54-1.43c.77-4.12,1.49-8.24,2.3-12.34.88-4.42,1.5-8.92,3.07-13.17a39.15,39.15,0,0,1,7.45-12.82,19.64,19.64,0,0,1,9-6.07,9.55,9.55,0,0,1,9.62,2,12,12,0,0,1,3.37,6.47A15.24,15.24,0,0,1,539.11,99.64Z"/><path class="cls-4" d="M594.66,82.92a33.73,33.73,0,0,0-5.4-1,38.84,38.84,0,0,0-10.22.11,29.11,29.11,0,0,0-10.37,3.84,37.76,37.76,0,0,0-10,9,45.34,45.34,0,0,0-6,10.29A48,48,0,0,0,549,120.75a26.15,26.15,0,0,0,.93,9.39,14.48,14.48,0,0,0,5.2,7.89c3.87,2.84,8.23,2.87,12.62,1.78,5.23-1.3,9-4.76,12.11-9a58.37,58.37,0,0,0,3.41-5.32,6.71,6.71,0,0,1-.21,2.86c-.41,2.78-.73,5.56-.88,8.36,0,1-.36,2.37.15,2.95s2,.17,3,.22c.62,0,1.39.19,1.84-.1s-.16-1-.1-1.59c.27-2.66.27-5.33.46-8,.25-3.53.63-7,1.22-10.53.62-3.72,1.16-7.46,1.92-11.15,1-4.77,1.9-9.55,2.79-14.33.62-3.33,1.21-6.66,2-10C595.64,83.33,595.43,83.13,594.66,82.92Zm-5.28,4.91c-.77,3.84-1.5,7.69-2.29,11.52-1,4.79-1.59,9.66-3.23,14.31a43.22,43.22,0,0,1-7.41,13.48,23.68,23.68,0,0,1-7.94,6.75c-3.34,1.57-6.73,1.74-9.91-.35-2-1.32-2.94-3.46-3.51-5.72a23.74,23.74,0,0,1-.7-7.69,43.42,43.42,0,0,1,3.73-15.08,40.16,40.16,0,0,1,6.31-9.72,27.06,27.06,0,0,1,12.27-8.24,16.42,16.42,0,0,1,6.5-.83,20.13,20.13,0,0,1,5.51.42C589.5,86.86,589.5,87.21,589.38,87.83Z"/><path class="cls-4" d="M755.4,90.6a10.24,10.24,0,0,0-4.06-6.52c-3.51-2.54-7.38-2.87-11.49-2.33-4.66.61-8.43,3-11.75,6.08a38.47,38.47,0,0,0-8.86,13.09,45,45,0,0,0-3.85,18.47,24.4,24.4,0,0,0,1,7.4c1.15,4.2,3.13,7.84,6.91,10.28a17.83,17.83,0,0,0,9.45,2.58,34.84,34.84,0,0,0,5.18-.45,27.27,27.27,0,0,0,9.44-3.11c.77-.4,1.1-.92.59-1.83a16.34,16.34,0,0,1-.79-2.23c-.21-.58-.42-.89-1.2-.46a26.27,26.27,0,0,1-4.63,2.13,20,20,0,0,1-10.52,1c-4.49-1-7.3-4-8.74-8.16-1.55-4.48-1.42-9.18-1-13.85,0-.47.32-.76.93-.76,1.82,0,3.65-.08,5.48-.15a63.44,63.44,0,0,0,8.28-.82c4.63-.82,9.21-2,13.19-4.65a14.68,14.68,0,0,0,5.57-6.4A15.37,15.37,0,0,0,755.4,90.6Zm-5,4.84c-.87,5.53-4.85,8-9.62,9.62a40.22,40.22,0,0,1-8.37,1.69,76.44,76.44,0,0,1-10.06.43,39.24,39.24,0,0,1,6.16-12.82c2.4-3.2,5.21-6.06,9.18-7.44,3.6-1.26,8.45-1,10.93,1.79A7.85,7.85,0,0,1,750.37,95.44Z"/></g><rect class="cls-5" width="800" height="196.49"/></g></g></svg>