<svg xmlns="http://www.w3.org/2000/svg" viewBox="0 0 711.25 126.65"><defs><style>.cls-1{fill:#231f20;}</style></defs><title>signiture</title><g id="Layer_2" data-name="Layer 2"><g id="Layer_1-2" data-name="Layer 1"><path class="cls-1" d="M155.74,110.34c-2,0-3.4-.53-4.19-1.59a6,6,0,0,1-1-4.11,20,20,0,0,1,1.19-5.46,52.64,52.64,0,0,1,2.37-5.7q1.35-2.78,2.61-4.9l1.74-2.93q2.22-3.16,4.44-6t4.59-5.69l-8.08.31c-2.64.11-5.27.27-7.91.48q-12.83.94-25.32,2.21T101,79.79a3.94,3.94,0,0,1-1.26.16L75.19,109.7,62.84,124.9a3.94,3.94,0,0,1-3.32,1.74,6.87,6.87,0,0,1-3.41-1.35A21.13,21.13,0,0,1,53,122.6a34.21,34.21,0,0,0-2.54-2.45q-4.91-4.12-10-8T29.76,104.8q-5.07-3.17-10.84-6.25A44.46,44.46,0,0,0,7.13,94.19c-1-.21-2-.39-3.09-.55a5.15,5.15,0,0,1-2.93-1.5,4.28,4.28,0,0,1-1-3.8,4.13,4.13,0,0,1,2.29-3.17,9.82,9.82,0,0,1,4.12-1.1c1.58-.11,3.06-.27,4.43-.48L27.7,81.06q16.94-2.53,33.72-4.83t33.71-4.51q3.32-4.11,6.64-8.07l6.81-8.07,23.74-27.7q5.38-6,10.68-12A152,152,0,0,1,154.16,4.46c.84-.85,1.82-1.77,2.93-2.77A6,6,0,0,1,160.65,0a3.64,3.64,0,0,1,2.69.72,4.85,4.85,0,0,1,1.58,2.05,4.34,4.34,0,0,1,.16,2.61,5.18,5.18,0,0,1-1.42,2.54,130.45,130.45,0,0,0-12.27,11.23q-5.77,6-11.32,12.43T129.16,44.66q-5.39,6.65-10.77,13L108,70.14q6.48-.8,12.82-1.43t13-1.42q10.29-.95,20.66-1.82a182.76,182.76,0,0,1,20.81-.56l7.6-8.23q7.13-7.59,14.32-14.72t14.8-14.24l2.14-2.14q1.65-1.65,3.87-3.56t4.59-3.72A16.52,16.52,0,0,1,227,15.77a4.74,4.74,0,0,1,3.49-.08c1,.43,1.47,1.64,1.58,3.64a4.74,4.74,0,0,1-.63,2.38,9.66,9.66,0,0,1-1.59,2.05,16.33,16.33,0,0,1-2.05,1.75,13.71,13.71,0,0,0-1.9,1.58q-6.18,5.39-12.19,11.23-7,6.66-13.61,13.38t-13.3,13.85a36.41,36.41,0,0,1,7.52,1.5,8.36,8.36,0,0,1,5.46,4.67,4.46,4.46,0,0,1,0,4,5,5,0,0,1-6,2.37,3.35,3.35,0,0,1-2.22-2.77,10.87,10.87,0,0,0-5.38-1.58,51,51,0,0,0-6.8-.16q-4.61,5.22-9,10.76a82.44,82.44,0,0,0-7.75,11.56c-.63,1-1.27,2.21-1.9,3.48a10.68,10.68,0,0,0-1.11,4v2.3a9.66,9.66,0,0,1-.24,2.21,3.29,3.29,0,0,1-1,1.75A3.78,3.78,0,0,1,155.74,110.34ZM58.57,116q7.12-8.7,14.16-17.33T86.9,81.53Q70.6,83.75,54.53,86T22.32,90.71a112.56,112.56,0,0,1,18.84,11.71Q50,109.23,58.57,116Z"/><path class="cls-1" d="M233.93,75a9.41,9.41,0,0,1,1.42.72,6.1,6.1,0,0,1,1.11.87,13.22,13.22,0,0,1,6.33,1q3.17,1.74,3.32,3.72a7.26,7.26,0,0,1-1.1,4.19,44.05,44.05,0,0,0,7-1.58q3.55-1.11,7-2.54c2.32-1,4.62-1.89,6.89-2.84a65,65,0,0,1,6.56-2.38c1.16-.32,2.4-.63,3.72-1A4.38,4.38,0,0,1,280,76a4.47,4.47,0,0,1,1.74,2.38,3.94,3.94,0,0,1-.15,2.45A5.63,5.63,0,0,1,280,83a4.64,4.64,0,0,1-2.53,1.11,40.38,40.38,0,0,0-10,2.92q-4.91,2.15-9.66,3.72c-1.47.53-3.06,1.11-4.74,1.74A42.81,42.81,0,0,1,247.85,94a27.47,27.47,0,0,1-5.38.71,14.77,14.77,0,0,1-5.06-.71,5.55,5.55,0,0,1-3.33-7.44A45,45,0,0,0,227.75,88q-4.11,1.28-8.15,2.85a45.78,45.78,0,0,1-8.15,2.37,16.1,16.1,0,0,1-5.54,0,5.69,5.69,0,0,1-4.27-3.16,6.46,6.46,0,0,1-.24-6.25A14,14,0,0,1,206,78.76a30.4,30.4,0,0,1,6.73-3.48,29.67,29.67,0,0,1,6-1.66,34.79,34.79,0,0,1,7.76-.08A40.05,40.05,0,0,1,233.93,75ZM213,84.38c1.06-.21,2.11-.47,3.17-.79s2.11-.69,3.17-1.11A17.3,17.3,0,0,0,213,84.38Z"/><path class="cls-1" d="M277.77,75.2a5.3,5.3,0,0,1,4.59,2.22c1.05,1.48,1.29,2.79.71,4a18.56,18.56,0,0,1-2.3,3.49,23.36,23.36,0,0,0,5.86-.79,49.69,49.69,0,0,0,5.93-2q2.93-1.19,5.7-2.46a46.5,46.5,0,0,1,5.3-2,16.93,16.93,0,0,1,4-.8,9.91,9.91,0,0,1,4,.48,7.36,7.36,0,0,1,3,1.9,6.28,6.28,0,0,1,1.51,3.48A131.87,131.87,0,0,1,340,76.15c.73-.1,1.66-.26,2.77-.47s2.24-.4,3.4-.56a14.33,14.33,0,0,1,3.32-.08,6.86,6.86,0,0,1,2.69.79A4.19,4.19,0,0,1,354,78.21,5,5,0,0,1,354,81a4.06,4.06,0,0,1-1.58,2.21,4.51,4.51,0,0,1-2.77.88,71.13,71.13,0,0,0-17,1.42,125.22,125.22,0,0,0-16.54,4.59,16.61,16.61,0,0,1-2.93,5.62,50,50,0,0,1-4.67,5.22,66.09,66.09,0,0,1-5.14,4.51c-1.75,1.37-3.25,2.59-4.51,3.64s-3,2.27-5.23,4a62,62,0,0,1-7,4.59,28.27,28.27,0,0,1-7.36,2.93,7.68,7.68,0,0,1-6.41-1c-2.43-1.69-3.4-3.64-2.93-5.86a14.15,14.15,0,0,1,4-6.72,52.17,52.17,0,0,1,8.39-6.81q5.06-3.41,10.05-6.25t9-4.75c2.69-1.27,4.45-2.11,5.3-2.53l1.11-.48c-.22-.52-1.51-.37-3.88.48s-5.17,1.82-8.39,2.93-6.54,2.08-10,2.92a21.69,21.69,0,0,1-8.78.64,8.75,8.75,0,0,1-4.75-1.82,4.54,4.54,0,0,1-1.51-3.17,9.06,9.06,0,0,1,.8-3.88,23.94,23.94,0,0,1,2.13-4,4.32,4.32,0,0,1,4.28-5.07ZM294.86,101a26.84,26.84,0,0,1,2.85-2.3q2.06-1.5,3.48-2.76c-.95.52-2.14,1.21-3.56,2s-2.56,1.53-3.4,2.06c-.64.32-1.67.89-3.09,1.74s-3,1.82-4.59,2.93a51.3,51.3,0,0,0-4.67,3.56,15.18,15.18,0,0,0-3.16,3.48,24.32,24.32,0,0,0,8.62-4.67Z"/><path class="cls-1" d="M428.91,32.47q-7.28,6-14.4,12.27T400.58,57.63q-3.31,3.18-6.88,6.49t-7,6.89a94.46,94.46,0,0,0-6.41,7.44,41.1,41.1,0,0,0-4.9,8,46.13,46.13,0,0,0,10.84-3.64,106.13,106.13,0,0,1,10.68-4.43q3.17-1.11,6.41-2a39.72,39.72,0,0,1,6.57-1.19,6.65,6.65,0,0,1,2.85.32,5.87,5.87,0,0,1,2.37,1.42,4.2,4.2,0,0,1,1.19,2.3,3.93,3.93,0,0,1-.87,2.93,4.81,4.81,0,0,1-3.8,1.9,23.92,23.92,0,0,0-4.43.63,45.86,45.86,0,0,0-8.31,2.37q-4,1.59-8.15,3.33l-9,3.64a23.49,23.49,0,0,1-9.5,1.74c-3.38-.22-5.43-1.17-6.17-2.85a8.31,8.31,0,0,1,.16-6.17Q361,89,355.32,91a41.34,41.34,0,0,1-11.24,2.29,14.75,14.75,0,0,1-3.17-.31,5.56,5.56,0,0,1-2.69-1.58q-2.06-2.05-1.58-4.2A9.7,9.7,0,0,1,338.78,83a20.66,20.66,0,0,1,3.88-3.56,29.31,29.31,0,0,1,3.79-2.38,34.44,34.44,0,0,1,12.19-3.48,36.52,36.52,0,0,1,12.66.95.63.63,0,0,0,.48.16,4.12,4.12,0,0,1,1.18-.4,5.18,5.18,0,0,0,1-.24q2.22-2.85,4.51-5.38T382.78,64q2-2.13,3.48-3.64l2.13-2.13q6.33-6.33,12.9-12.35t13.38-11.87q2.06-1.89,4.82-4.83a12.53,12.53,0,0,1,5.62-3.71,3.84,3.84,0,0,1,2.77.07,3.9,3.9,0,0,1,1.82,1.75,4.44,4.44,0,0,1,.48,2.61A4.19,4.19,0,0,1,428.91,32.47Z"/><path class="cls-1" d="M485.57,83.91a48.69,48.69,0,0,0-7.2,1.18q-3.57.87-7.2,1.67Q461.67,89,452.33,91a174.92,174.92,0,0,1-19,2.93c-1.69.21-3.46.37-5.3.47a32,32,0,0,1-5.54-.16A24.76,24.76,0,0,1,417.2,93a14.15,14.15,0,0,1-4.59-2.61,10.87,10.87,0,0,1-2.77-3.33,10.75,10.75,0,0,1-1.27-4,9.52,9.52,0,0,1,.4-4,8.1,8.1,0,0,1,2.37-3.56,8.19,8.19,0,0,1,3.56-1.82,31,31,0,0,1,5.46-1,39,39,0,0,1,6-.16,15.46,15.46,0,0,1,5.22,1.11,6,6,0,0,1,3.09,2.61,4.79,4.79,0,0,1-.24,4.19,5.42,5.42,0,0,1-2.85,2.69,14.61,14.61,0,0,1-4.27,1,25.17,25.17,0,0,1-4.91,0c-1.69-.15-3.17-.34-4.43-.55a5.19,5.19,0,0,0,2.53,1,30.78,30.78,0,0,0,4,.55c1.42.11,2.74.16,3.95.16h2.3a126.57,126.57,0,0,0,15.43-2.22q7.68-1.58,15.27-3.32,5.53-1.26,11-2.61a86.61,86.61,0,0,1,11-2,5.58,5.58,0,0,1,4,1.11,5.86,5.86,0,0,1,2.06,2.93,3.73,3.73,0,0,1-.4,3.08C488.55,83.27,487.36,83.8,485.57,83.91Z"/><path class="cls-1" d="M485.25,75.2a7.81,7.81,0,0,1,2.45.4,4.25,4.25,0,0,1,2,1.34A4.91,4.91,0,0,1,491,80.19a6.84,6.84,0,0,1-.87,2.92q4.11-.78,8.23-1.89L506.62,79c1.26-.32,2.63-.68,4.11-1.11a34.41,34.41,0,0,1,4.51-1,26.16,26.16,0,0,1,4.59-.23,10.08,10.08,0,0,1,4.2,1c1.79.85,2.85,1.85,3.16,3a5.52,5.52,0,0,1-.31,3.64c1.47-.42,3-.81,4.43-1.19a44.7,44.7,0,0,0,4.43-1.34q4.28-1.26,8.62-2.61c2.91-.9,5.83-1.77,8.79-2.61Q555.2,76,558,75.28a5.64,5.64,0,0,1,4.82.71,4,4,0,0,1,1.59,2.3,5.23,5.23,0,0,1-.08,2.69,4.27,4.27,0,0,1-1.51,2.21,3.94,3.94,0,0,1-2.53.88,43.29,43.29,0,0,0-12.19,2.84Q541.92,89.3,536.21,91c-1.16.32-2.5.74-4,1.26s-3.09,1-4.67,1.43a25.33,25.33,0,0,1-4.75.79,9.52,9.52,0,0,1-4.27-.63,5.53,5.53,0,0,1-3.09-3.25,7.46,7.46,0,0,1-.24-4.67,50.48,50.48,0,0,0-6.8,1.11l-6.65,1.58c-1.48.43-3,.9-4.67,1.43l-4.9,1.58a42.73,42.73,0,0,1-4.91,1.27,18.85,18.85,0,0,1-4.83.31,7.44,7.44,0,0,1-2.85-.95,4.68,4.68,0,0,1-2.21-2.69,4.86,4.86,0,0,1,.23-2.84,13.15,13.15,0,0,1,1.59-2.85c.69-1,1.34-1.85,2-2.69a5.2,5.2,0,0,1,.39-4A3.82,3.82,0,0,1,485.25,75.2Z"/><path class="cls-1" d="M627.06,94.19a4.93,4.93,0,0,1-3.72-1.58,6.48,6.48,0,0,1-1.82-3.4,4.79,4.79,0,0,1,.55-3.32c.58-1,1.77-1.51,3.56-1.51a5,5,0,0,1,3.72,1.51,6.17,6.17,0,0,1,1.82,3.4,4.73,4.73,0,0,1-.63,3.4C629.91,93.69,628.74,94.19,627.06,94.19Zm9.18-12.34a5,5,0,0,1-3.72-1.56,6.35,6.35,0,0,1-1.82-3.35,4.93,4.93,0,0,1,.55-3.35c.58-1,1.77-1.55,3.56-1.55a4.81,4.81,0,0,1,3.56,1.55,7,7,0,0,1,1.9,3.35,4.42,4.42,0,0,1-.55,3.35A3.74,3.74,0,0,1,636.24,81.85Z"/><path class="cls-1" d="M646.05,112.87a4.21,4.21,0,0,1-2.45-.71,4.28,4.28,0,0,1-1.51-1.82,5.13,5.13,0,0,1-.39-2.38,4.47,4.47,0,0,1,.87-2.37,6.61,6.61,0,0,1,2.84-2.06,36.72,36.72,0,0,1,4.12-1.42q2.22-.63,4.35-1.11a36.26,36.26,0,0,0,3.56-1q7.13-2.7,13.85-5.86a81.63,81.63,0,0,0,12.9-7.59,79.15,79.15,0,0,0,10.68-9.26,28,28,0,0,0,7-12.27,17,17,0,0,0,.47-7,8.55,8.55,0,0,0-3.32-5.86,3.94,3.94,0,0,1-1.58-2.37,4.62,4.62,0,0,1,.15-2.69,4.38,4.38,0,0,1,4.28-2.85A6.53,6.53,0,0,1,707.3,47a17,17,0,0,1,3,6.09,27.48,27.48,0,0,1,.94,7.21,29.27,29.27,0,0,1-.47,5.93A30.49,30.49,0,0,1,706.11,77a62.42,62.42,0,0,1-7.52,9.1,64.38,64.38,0,0,1-10.68,8.63q-5.77,3.72-11.79,6.88-3.64,1.74-7.2,3.33t-7.2,3c-2.33.85-4.91,1.88-7.76,3.09A20.36,20.36,0,0,1,646.05,112.87Z"/></g></g></svg>