<svg xmlns="http://www.w3.org/2000/svg" viewBox="0 0 157.22 200"><defs><style>.cls-1{fill:#37444f;}.cls-2,.cls-5{fill:#fff;}.cls-2,.cls-4{opacity:0.5;}.cls-3{fill:#f79449;}.cls-6{fill:#009444;}</style></defs><title>ssd</title><g id="Layer_2" data-name="Layer 2"><g id="Layer_1-2" data-name="Layer 1"><rect class="cls-1" width="157.22" height="200" rx="12"/><circle class="cls-2" cx="11.63" cy="11.92" r="7.71"/><circle class="cls-2" cx="145.6" cy="11.92" r="7.71"/><circle class="cls-2" cx="11.62" cy="187.76" r="7.71"/><circle class="cls-2" cx="145.6" cy="187.76" r="7.71"/><rect class="cls-3" x="29.82" y="39.95" width="97.58" height="78.33" rx="12"/><g class="cls-4"><path class="cls-5" d="M56.75,79.45A10.35,10.35,0,0,1,54,79.08a9.27,9.27,0,0,1-2.59-1.17,9.74,9.74,0,0,1-3.32-3.58,9.86,9.86,0,0,1-1.19-4.81h6.69a2.92,2.92,0,0,0,.51,1.84,3.69,3.69,0,0,0,.91.89,3,3,0,0,0,1.54.52,3.57,3.57,0,0,0,1.63-.32,2.94,2.94,0,0,0,.89-.59,3.58,3.58,0,0,0,.51-.69,2.05,2.05,0,0,0,.22-.66c0-.21,0-.38,0-.51s0-.31,0-.52a2.18,2.18,0,0,0-.22-.67,2.67,2.67,0,0,0-.51-.69,3.39,3.39,0,0,0-.89-.61,6.41,6.41,0,0,0-.93-.36c-.33-.11-.68-.22-1-.36-.66-.21-1.35-.45-2.06-.71A11.55,11.55,0,0,1,52,65a8.32,8.32,0,0,1-2.33-2.17A8.56,8.56,0,0,1,48,56.92a8.21,8.21,0,0,1,.89-3.07,8.74,8.74,0,0,1,1.78-2.33,8.52,8.52,0,0,1,5.18-2.26,9.65,9.65,0,0,1,3,.28,8.89,8.89,0,0,1,2.72,1.13,8.5,8.5,0,0,1,2.1,1.86A8.17,8.17,0,0,1,65.11,55a8.59,8.59,0,0,1,.47,2.81H58.93a1.35,1.35,0,0,0-.58-1.26,3.92,3.92,0,0,0-1-.48L57,56a1.88,1.88,0,0,0-.67,0,2.38,2.38,0,0,0-.78.28,1.52,1.52,0,0,0-.63.69,1.8,1.8,0,0,0-.12,1.33,1.88,1.88,0,0,0,.79,1.08,7.78,7.78,0,0,0,1.23.58c.45.17.92.33,1.43.49s.9.28,1.36.44.93.34,1.4.55A9.28,9.28,0,0,1,66.52,70a9.2,9.2,0,0,1-1.47,5.06A9.3,9.3,0,0,1,61,78.54a9.52,9.52,0,0,1-2.09.7A11.09,11.09,0,0,1,56.75,79.45Z"/><path class="cls-5" d="M78,79.45a10.29,10.29,0,0,1-2.75-.37,9.14,9.14,0,0,1-2.59-1.17,9.68,9.68,0,0,1-3.33-3.58,10,10,0,0,1-1.18-4.81h6.68a2.86,2.86,0,0,0,.52,1.84,3.53,3.53,0,0,0,.91.89,3,3,0,0,0,1.54.52,3.56,3.56,0,0,0,1.62-.32,2.71,2.71,0,0,0,.89-.59,3.28,3.28,0,0,0,.52-.69,2.05,2.05,0,0,0,.22-.66q0-.32,0-.51c0-.13,0-.31,0-.52a2.18,2.18,0,0,0-.22-.67,2.51,2.51,0,0,0-.52-.69,3.09,3.09,0,0,0-.89-.61,6.41,6.41,0,0,0-.93-.36c-.33-.11-.68-.22-1-.36-.66-.21-1.34-.45-2-.71A11,11,0,0,1,73.25,65a8.32,8.32,0,0,1-2.33-2.17A8.63,8.63,0,0,1,69.55,60a8.76,8.76,0,0,1-.28-3.11,8.4,8.4,0,0,1,.89-3.07,9,9,0,0,1,1.78-2.33A8.59,8.59,0,0,1,74.32,50a8.47,8.47,0,0,1,2.81-.7,9.57,9.57,0,0,1,3,.28,8.78,8.78,0,0,1,2.72,1.13A8.38,8.38,0,0,1,85,52.53,8.17,8.17,0,0,1,86.36,55a8.59,8.59,0,0,1,.47,2.81H80.17a1.36,1.36,0,0,0-.57-1.26,3.92,3.92,0,0,0-1-.48L78.22,56a1.94,1.94,0,0,0-.68,0,2.33,2.33,0,0,0-.77.28,1.52,1.52,0,0,0-.63.69A1.8,1.8,0,0,0,76,58.27a1.88,1.88,0,0,0,.79,1.08,7.78,7.78,0,0,0,1.23.58c.45.17.92.33,1.42.49s.91.28,1.37.44.92.34,1.4.55A9.28,9.28,0,0,1,87.77,70a9.2,9.2,0,0,1-1.47,5.06,9.36,9.36,0,0,1-4.07,3.48,9.6,9.6,0,0,1-2.1.7A11,11,0,0,1,78,79.45Z"/><path class="cls-5" d="M96.4,49.74a14.47,14.47,0,0,1,5.44,1.38,14.89,14.89,0,0,1,7.4,7.8,14.45,14.45,0,0,1,1.08,5.58A14.08,14.08,0,0,1,109.26,70a14.37,14.37,0,0,1-7.36,7.59,14.77,14.77,0,0,1-5.5,1.33H89.71V49.7H96.4Zm0,22.43a8.29,8.29,0,0,0,5.16-2.47,7.55,7.55,0,0,0,2.08-5.2,8.14,8.14,0,0,0-2.1-5.44,8.26,8.26,0,0,0-2.29-1.78,7.62,7.62,0,0,0-2.85-.85Z"/></g><rect class="cls-2" x="46.9" y="88.34" width="63.43" height="7.25" rx="3.4"/><rect class="cls-2" x="46.9" y="101.73" width="63.43" height="7.25" rx="3.4"/><path class="cls-6" d="M119.12,168.44h2.63a5.65,5.65,0,0,1,5.65,5.65V200a0,0,0,0,1,0,0H113.47a0,0,0,0,1,0,0V174.09A5.65,5.65,0,0,1,119.12,168.44Z"/><path class="cls-6" d="M35.47,168.44H38.1a5.65,5.65,0,0,1,5.65,5.65V200a0,0,0,0,1,0,0H29.82a0,0,0,0,1,0,0V174.09A5.65,5.65,0,0,1,35.47,168.44Z"/><path class="cls-6" d="M56.38,168.44H59a5.65,5.65,0,0,1,5.65,5.65V200a0,0,0,0,1,0,0H50.74a0,0,0,0,1,0,0V174.09A5.65,5.65,0,0,1,56.38,168.44Z"/><path class="cls-6" d="M77.3,168.44h2.63a5.65,5.65,0,0,1,5.65,5.65V200a0,0,0,0,1,0,0H71.65a0,0,0,0,1,0,0V174.09A5.65,5.65,0,0,1,77.3,168.44Z"/><path class="cls-6" d="M98.21,168.44h2.63a5.65,5.65,0,0,1,5.65,5.65V200a0,0,0,0,1,0,0H92.56a0,0,0,0,1,0,0V174.09A5.65,5.65,0,0,1,98.21,168.44Z"/></g></g></svg>