<svg xmlns="http://www.w3.org/2000/svg" viewBox="0 0 209.1 200"><defs><style>.cls-1{fill:#f79449;}.cls-2{fill:#fff;opacity:0.5;}.cls-3{fill:#37444f;}.cls-4{fill:#009444;}</style></defs><title>ssl</title><g id="Layer_2" data-name="Layer 2"><g id="Layer_1-2" data-name="Layer 1"><rect class="cls-1" x="8.95" y="5.41" width="179.25" height="168.03"/><path class="cls-2" d="M31.35,80.68H85.13a4.5,4.5,0,0,0,0-9H31.35a4.5,4.5,0,1,0,0,9Z"/><path class="cls-2" d="M31.35,116.52H85.13a4.5,4.5,0,1,0,0-9H31.35a4.49,4.49,0,0,0-4.5,4.49A4.55,4.55,0,0,0,31.35,116.52Z"/><path class="cls-2" d="M165.81,71.68H112a4.5,4.5,0,0,0-4.49,4.5v71.68a4.49,4.49,0,0,0,4.49,4.5h53.79a4.49,4.49,0,0,0,4.49-4.5V76.18A4.5,4.5,0,0,0,165.81,71.68Zm-4.5,71.73H116.52V80.68h44.79Z"/><path class="cls-3" d="M179.21,0H17.94A18,18,0,0,0,0,17.94V161.31a18,18,0,0,0,17.94,17.94H179.25a18,18,0,0,0,17.94-17.94V17.94A18,18,0,0,0,179.21,0ZM9,17.94a9,9,0,0,1,9-9H179.21a9,9,0,0,1,8.95,9V44.83H9ZM188.2,161.31a8.94,8.94,0,0,1-8.95,8.95H17.94a9,9,0,0,1-9-8.95V53.78H188.2Z"/><circle class="cls-2" cx="53.78" cy="26.89" r="8.95"/><path class="cls-2" d="M80.64,17.94a9,9,0,1,0,9,9A9,9,0,0,0,80.64,17.94Z"/><path class="cls-2" d="M31.35,152.36H85.13a4.5,4.5,0,1,0,0-9H31.35a4.49,4.49,0,0,0-4.5,4.49A4.55,4.55,0,0,0,31.35,152.36Z"/><circle class="cls-2" cx="26.89" cy="26.89" r="8.95"/><g id="shield"><g id="_828-shield-toolbar-selected_2x.png" data-name="828-shield-toolbar-selected@2x.png"><path class="cls-4" d="M207.36,112.6c-23.25,0-41.88-14.06-42.06-14.21l-1-.78-1,.78c-.18.15-18.82,14.21-42.07,14.21h-1.71v20c0,50.27,41.17,67.37,44.8,67.37s44.81-17.08,44.81-67.37v-20Z"/></g></g><path class="cls-2" d="M188.36,138.25h-5.22v-9.43a18.59,18.59,0,1,0-37.18,0v9.43h-5.74a3,3,0,0,0-3,3v32.67a3,3,0,0,0,3,3h48.14a3,3,0,0,0,3-3V141.24A3,3,0,0,0,188.36,138.25Zm-34.71-9.43a10.83,10.83,0,0,1,21.66,0v9.43H153.65Zm2.3,36a6.68,6.68,0,0,1-4.16,2.82,7,7,0,0,1-1.44.15,7.31,7.31,0,0,1-1.86-.25,6.41,6.41,0,0,1-1.75-.79,6.69,6.69,0,0,1-2.25-2.42,6.77,6.77,0,0,1-.8-3.25h4.52a1.89,1.89,0,0,0,.35,1.24,2.47,2.47,0,0,0,.61.61,2,2,0,0,0,1,.34,2.35,2.35,0,0,0,1.1-.21,1.8,1.8,0,0,0,.6-.4,2.28,2.28,0,0,0,.35-.47,1.13,1.13,0,0,0,.14-.44,2.6,2.6,0,0,0,0-.35,2.47,2.47,0,0,0,0-.34,1.21,1.21,0,0,0-.14-.46,2,2,0,0,0-.35-.47,2.17,2.17,0,0,0-.6-.41,5.87,5.87,0,0,0-.63-.24l-.71-.24c-.44-.14-.91-.3-1.39-.48a8.06,8.06,0,0,1-1.44-.72,6,6,0,0,1-1.58-1.47,5.8,5.8,0,0,1-.51-6.07,6.32,6.32,0,0,1,1.21-1.58,5.83,5.83,0,0,1,1.6-1.05,5.7,5.7,0,0,1,1.9-.47,6.34,6.34,0,0,1,2.06.19,5.87,5.87,0,0,1,3.25,2,5.29,5.29,0,0,1,.92,1.64,5.74,5.74,0,0,1,.32,1.9h-4.49a.93.93,0,0,0-.39-.86,2.68,2.68,0,0,0-.68-.32l-.26,0a1.13,1.13,0,0,0-.45,0,1.56,1.56,0,0,0-.52.19,1,1,0,0,0-.43.47,1.19,1.19,0,0,0-.08.89,1.33,1.33,0,0,0,.53.74,5.78,5.78,0,0,0,.83.38c.3.12.63.23,1,.34s.61.18.93.29.62.23.94.37a6.31,6.31,0,0,1,3.75,5.8A6.22,6.22,0,0,1,156,164.86Zm14.35,0a6.25,6.25,0,0,1-2.75,2.35,6.15,6.15,0,0,1-1.41.47,7.07,7.07,0,0,1-1.45.15,7.29,7.29,0,0,1-1.85-.25,6.41,6.41,0,0,1-1.75-.79,6.69,6.69,0,0,1-2.25-2.42,6.77,6.77,0,0,1-.8-3.25h4.52a2,2,0,0,0,.34,1.24,2.66,2.66,0,0,0,.62.61,2,2,0,0,0,1,.34,2.37,2.37,0,0,0,1.1-.21,1.8,1.8,0,0,0,.6-.4,2.72,2.72,0,0,0,.35-.47,1.32,1.32,0,0,0,.14-.44,2.6,2.6,0,0,0,0-.35,2.47,2.47,0,0,0,0-.34,1.42,1.42,0,0,0-.14-.46,2.38,2.38,0,0,0-.35-.47,2.17,2.17,0,0,0-.6-.41,5.87,5.87,0,0,0-.63-.24l-.71-.24c-.45-.14-.91-.3-1.39-.48a8.06,8.06,0,0,1-1.44-.72,5.79,5.79,0,0,1-2.5-3.37,5.91,5.91,0,0,1-.19-2.1,5.47,5.47,0,0,1,.6-2.07,6.09,6.09,0,0,1,1.21-1.58,5.83,5.83,0,0,1,1.6-1.05,5.7,5.7,0,0,1,1.9-.47,6.26,6.26,0,0,1,2,.19,5.85,5.85,0,0,1,3.26,2,5.29,5.29,0,0,1,.92,1.64,5.74,5.74,0,0,1,.32,1.9h-4.5a1,1,0,0,0-.38-.86,2.68,2.68,0,0,0-.68-.32l-.26,0a1.13,1.13,0,0,0-.45,0,1.56,1.56,0,0,0-.52.19,1,1,0,0,0-.43.47,1.19,1.19,0,0,0-.08.89,1.33,1.33,0,0,0,.53.74,5.78,5.78,0,0,0,.83.38c.3.12.62.23,1,.34s.61.18.92.29.63.23,1,.37A6.34,6.34,0,0,1,170.3,158a6.44,6.44,0,0,1,0,6.86Zm14.6,2.6H173.22V147.82h4.51v15.12h7.17Z"/></g></g></svg>