<svg xmlns="http://www.w3.org/2000/svg" viewBox="0 0 372.01 350"><defs><style>.cls-1{fill:#f79449;}.cls-2{fill:#edf0f0;}</style></defs><title>standard-hosting</title><g id="Layer_2" data-name="Layer 2"><g id="Layer_1-2" data-name="Layer 1"><path class="cls-1" d="M143.38,100.69h85.06a7.87,7.87,0,0,0,7.83-7.84v-85A7.86,7.86,0,0,0,228.44,0H143.38a7.86,7.86,0,0,0-7.82,7.83v85A7.87,7.87,0,0,0,143.38,100.69Z"/><path class="cls-1" d="M334.74,184.37H195.64V127.82a9.15,9.15,0,1,0-18.29,0v56.55H37.07a9.15,9.15,0,0,0-9.15,9.15v55.53a9.15,9.15,0,0,0,18.29,0V202.68H177.35V250a9.15,9.15,0,1,0,18.29,0V202.68h130v46.37a9.15,9.15,0,0,0,18.29,0V193.52A9.14,9.14,0,0,0,334.74,184.37Z"/><g id="Shape_319" data-name="Shape 319"><path class="cls-2" d="M65.21,277H7.83A7.86,7.86,0,0,0,0,284.78v57.39A7.85,7.85,0,0,0,7.83,350H65.21A7.85,7.85,0,0,0,73,342.17V284.78A7.85,7.85,0,0,0,65.21,277Z"/></g><g id="Shape_320" data-name="Shape 320"><path class="cls-2" d="M215,277H157.55a7.85,7.85,0,0,0-7.82,7.83v57.39a7.85,7.85,0,0,0,7.82,7.83H215a7.83,7.83,0,0,0,7.81-7.83V284.78A7.84,7.84,0,0,0,215,277Z"/></g><g id="Shape_321" data-name="Shape 321"><path class="cls-2" d="M364.18,277H306.79a7.87,7.87,0,0,0-7.85,7.83v57.39a7.86,7.86,0,0,0,7.85,7.83h57.39a7.85,7.85,0,0,0,7.83-7.83V284.78A7.86,7.86,0,0,0,364.18,277Z"/></g></g></g></svg>