<svg xmlns="http://www.w3.org/2000/svg" viewBox="0 0 207.28 200"><defs><style>.cls-1{fill:#37444f;}.cls-2{fill:#f79449;}.cls-3{opacity:0.5;}.cls-4{fill:#fff;}.cls-5{fill:#009444;}</style></defs><title>technology</title><g id="Layer_2" data-name="Layer 2"><g id="Layer_1-2" data-name="Layer 1"><circle class="cls-1" cx="99.17" cy="99.17" r="99.17"/><circle class="cls-2" cx="99.17" cy="99.17" r="81.19"/><g id="power" class="cls-3"><path class="cls-4" d="M99.17,110.43a8.39,8.39,0,0,0,8.39-8.42V45.66a8.4,8.4,0,0,0-16.79,0V102A8.38,8.38,0,0,0,99.17,110.43Z"/><path class="cls-4" d="M132.78,55.56h0c-.13-.08-.23-.2-.37-.27a8.46,8.46,0,0,0-11.68,2.14,8.18,8.18,0,0,0,2.17,11.49l.3.15,0,.05a41,41,0,0,1,18,33.9c0,22.84-18.82,41.34-42,41.34s-42-18.52-42-41.34a41,41,0,0,1,18-33.9l0-.05.29-.15a8.19,8.19,0,0,0,2.2-11.49,8.48,8.48,0,0,0-11.68-2.14l-.35.29h0A57.43,57.43,0,0,0,40.32,103c0,32,26.35,57.88,58.85,57.88S158,135,158,103A57.54,57.54,0,0,0,132.78,55.56Z"/></g><circle class="cls-5" cx="173.31" cy="166.03" r="33.97"/><g id="World" class="cls-3"><path class="cls-4" d="M197.33,142a34,34,0,1,0,9.95,24A33.74,33.74,0,0,0,197.33,142Zm-45.47,2.58c.23-.24.46-.48.69-.7,0,0,.06,0,.1,0h7.47a4,4,0,0,1,2.65.59,3.84,3.84,0,0,1,.6,1.85,5.87,5.87,0,0,0,1.3,3.21c1.87,2,4.72,1.19,6.82.59l.2-.05a9,9,0,0,1,5.49-.13,4.43,4.43,0,0,1,3,3.47,1.66,1.66,0,0,1-.13.86,3.34,3.34,0,0,1-1.6,1l-.88.4a10.32,10.32,0,0,0-5.09,7.16,14.78,14.78,0,0,0-.23,3.28,11.08,11.08,0,0,1-.23,2.89c-.1.34-.24.69-.36,1-.53,1.41-1.2,3.17.45,5.32a9.36,9.36,0,0,0,4,2.66,7.42,7.42,0,0,1,2.94,1.82,6.41,6.41,0,0,1,1,3,44.37,44.37,0,0,1-.58,12.87v0c-.59.13-1.17.22-1.76.32a20.93,20.93,0,0,0-.8-2.7,8,8,0,0,0-1.89-3.09,9.39,9.39,0,0,0-2.8-1.7l-.67-.32a14,14,0,0,1-3.78-2.66,5,5,0,0,1-1.7-2.93,4,4,0,0,1,1.23-3,12.57,12.57,0,0,1,1.63-1.41,4,4,0,0,0,1.81-2.23c.22-1-.07-2-1-3.61a3.44,3.44,0,0,0-1.33-1.43,3.19,3.19,0,0,0-1.6-.3c-.87,0-1.79.07-2.68.14-3.05.23-5.94.44-7.65-1.6a9.43,9.43,0,0,1-1.18-2.11c-.19-.41-.38-.83-.6-1.24a5.62,5.62,0,0,0-4-3.29,7.32,7.32,0,0,0-1.22-.05,3.48,3.48,0,0,1-.91-.06,1.8,1.8,0,0,1-.1-.57,23.06,23.06,0,0,1,.1-3.18c.2-3.13.43-6.64-1-8.83A29.45,29.45,0,0,1,151.86,144.58Zm0,42.9a30.48,30.48,0,0,1-6-34.34,28.14,28.14,0,0,1,0,5.43,25.76,25.76,0,0,0-.1,3.61,3.6,3.6,0,0,0,.74,2.11,3.56,3.56,0,0,0,3,1,6.28,6.28,0,0,1,.79,0c.93.13,1.64,1.22,2,1.86a11.48,11.48,0,0,1,.54,1.11,11.48,11.48,0,0,0,1.57,2.71c2.62,3.12,6.68,2.82,9.95,2.57.89-.07,1.73-.12,2.49-.12h.35c.06.08.17.28.23.36a4,4,0,0,1,.7,1.63,4.67,4.67,0,0,1-.78.65,14.63,14.63,0,0,0-2,1.73,6.73,6.73,0,0,0-2,5,7.58,7.58,0,0,0,2.5,4.63,16.66,16.66,0,0,0,4.51,3.2l.74.34a7.49,7.49,0,0,1,2.06,1.19,5.88,5.88,0,0,1,1.21,2.08,15.43,15.43,0,0,1,.62,2c-.56,0-1.12,0-1.68,0A30.21,30.21,0,0,1,151.86,187.48Zm42.9,0a30.21,30.21,0,0,1-12.38,7.5,44.1,44.1,0,0,0,.41-12.53,8.74,8.74,0,0,0-1.5-4.31,9.77,9.77,0,0,0-4-2.66,7.11,7.11,0,0,1-2.95-1.82c-.68-.89-.56-1.35-.05-2.68.13-.37.3-.79.42-1.24a12.15,12.15,0,0,0,.34-3.66,12.15,12.15,0,0,1,.18-2.68,7.71,7.71,0,0,1,3.64-5.31l.74-.35a5.51,5.51,0,0,0,2.92-2.21,4.23,4.23,0,0,0,.44-2.41,7.12,7.12,0,0,0-4.85-5.81,11.82,11.82,0,0,0-7.16.07l-.22.06c-1.87.54-3.36.9-4,.17a3.75,3.75,0,0,1-.6-1.83,6.05,6.05,0,0,0-1.29-3.22c-1.24-1.34-3-1.45-4.65-1.45l-4.2,0a30.34,30.34,0,0,1,47.49,21.19,13.6,13.6,0,0,0-2.28.2,7.37,7.37,0,0,0-4.42,2.49c-1.48,1.89-1.59,4.3-1.5,6.63.13,3.08,2.22,5.1,4,6.54,1,.78,1.09,1.23,1.08,1.29a1.41,1.41,0,0,0-.1.52A31,31,0,0,1,194.76,187.48Zm7-10.78a9,9,0,0,0-.77-.67c-2-1.6-2.93-2.94-3-4.49s-.06-3.57.89-4.78a4.56,4.56,0,0,1,2.78-1.5,10.65,10.65,0,0,1,2-.17c0,.32,0,.62,0,.94A30.11,30.11,0,0,1,201.71,176.7Z"/><path class="cls-4" d="M196.41,152.46a4.83,4.83,0,0,0-.38-5.17,5.08,5.08,0,0,0-4.61-2.43,3.29,3.29,0,0,0-2.66,2.39h0a3.8,3.8,0,0,0,.89,3.66,8.52,8.52,0,0,0,2.41,1.76l1.14.63a2.71,2.71,0,0,0,1.31.39,1.79,1.79,0,0,0,.55-.08A2.19,2.19,0,0,0,196.41,152.46Zm-2.22-1.75-.8-.45a6.81,6.81,0,0,1-1.69-1.17,1.2,1.2,0,0,1-.34-1c.17-.49.36-.52.44-.53a2.57,2.57,0,0,1,2,1.27A2.32,2.32,0,0,1,194.19,150.71Z"/></g></g></g></svg>