<svg xmlns="http://www.w3.org/2000/svg" viewBox="0 0 342.54 400"><defs><style>.cls-1{fill:#37444f;}.cls-2{fill:#f79449;stroke:#f79449;stroke-miterlimit:10;stroke-width:1.15px;}.cls-3{fill:#009444;}.cls-4{opacity:0.5;}.cls-5{fill:#fff;}</style></defs><title>timeline-backups</title><g id="Layer_2" data-name="Layer 2"><g id="Layer_1-2" data-name="Layer 1"><g id="server_rack" data-name="server rack"><g id="_386-server-rack.png" data-name="386-server-rack.png"><path class="cls-1" d="M328.22,185.52H14.32A14.26,14.26,0,0,0,.07,199.77v57.06a14.26,14.26,0,0,0,14.25,14.25h314a14.25,14.25,0,0,0,14.25-14.25V199.77A14.27,14.27,0,0,0,328.22,185.52ZM28.57,256.9a14.25,14.25,0,1,1,14.25-14.24A14.25,14.25,0,0,1,28.57,256.9ZM271.15,0H71.39L0,71.39H342.47Zm57.07,285.4H14.32A14.26,14.26,0,0,0,.07,299.65v57.06A14.26,14.26,0,0,0,14.32,371h314a14.25,14.25,0,0,0,14.25-14.25V299.65A14.27,14.27,0,0,0,328.22,285.4ZM28.57,356.79a14.25,14.25,0,1,1,14.25-14.25A14.25,14.25,0,0,1,28.57,356.79ZM328.22,85.63H14.32A14.26,14.26,0,0,0,.07,99.88V157A14.26,14.26,0,0,0,14.32,171.2h314A14.26,14.26,0,0,0,342.54,157V99.88A14.27,14.27,0,0,0,328.22,85.63ZM28.57,157A14.25,14.25,0,1,1,42.82,142.7,14.25,14.25,0,0,1,28.57,157Z"/></g></g><circle class="cls-2" cx="28.57" cy="142.7" r="14.28"/><circle class="cls-2" cx="28.57" cy="242.66" r="14.28"/><circle class="cls-2" cx="28.57" cy="342.61" r="14.28"/><rect class="cls-3" x="227.86" y="285.4" width="114.6" height="114.6" rx="12"/><g id="backup" class="cls-4"><path class="cls-5" d="M290,350.4l23.84-1.92a2.57,2.57,0,0,0,0-5.11l-17.13-1.16-1.39-18.64a2.56,2.56,0,0,0-5.1,0l-1.92,25.17a1.62,1.62,0,0,0,1.59,1.68l.11,0Z"/><path class="cls-5" d="M293,299.65a43.19,43.19,0,0,0-43.24,43.05v5.9l-10-11.62a3.19,3.19,0,0,0-4.82,4.17l18,20.94,18-20.92a3.19,3.19,0,0,0-4.82-4.17l-10,11.62V342.7A36.84,36.84,0,1,1,293,379.38a3.19,3.19,0,1,0,0,6.37,43.05,43.05,0,1,0,0-86.1Z"/></g></g></g></svg>