<svg xmlns="http://www.w3.org/2000/svg" viewBox="0 0 570.56 406.75"><defs><style>.cls-1{fill:none;stroke-width:9.8px;stroke-dasharray:23.53;}.cls-1,.cls-2,.cls-4{stroke:#37444f;stroke-miterlimit:10;}.cls-2,.cls-4,.cls-5{fill:#f79449;}.cls-2{stroke-width:12.92px;}.cls-10,.cls-3,.cls-7{fill:#fff;}.cls-3{fill-rule:evenodd;}.cls-3,.cls-7,.cls-9{opacity:0.5;}.cls-4{stroke-width:13.51px;}.cls-6{fill:#e4e6e6;}.cls-8{fill:#37444f;}.cls-11{fill:#009444;}</style></defs><title>unlimited-everything</title><g id="Layer_2" data-name="Layer 2"><g id="Layer_1-2" data-name="Layer 1"><line class="cls-1" x1="285.05" y1="200.05" x2="285.05" y2="264.69"/><polyline class="cls-1" points="91.76 268.62 91.76 101.99 183.06 101.99"/><polyline class="cls-1" points="475.26 268.62 475.26 101.99 383.96 101.99"/><circle class="cls-2" cx="91.76" cy="314.7" r="85.3"/><path class="cls-3" d="M91.76,321.27l53.75-39.42a6.62,6.62,0,0,0-6.72-6.57H44.73A6.61,6.61,0,0,0,38,281.85Zm0,11.79L38,293.65v53.89a6.61,6.61,0,0,0,6.71,6.57h94.06a6.62,6.62,0,0,0,6.72-6.57V293.65Z"/><circle class="cls-4" cx="285.28" cy="314.7" r="85.3"/><path class="cls-5" d="M263.9,339a21.27,21.27,0,0,0,42.53,0h53.84a79,79,0,1,0-150.22,0Zm82-30.37a6.07,6.07,0,1,1-6.07,6.07A6.07,6.07,0,0,1,345.89,308.63Zm-12.13-30.4a6.07,6.07,0,1,1-6.06,6.07A6.07,6.07,0,0,1,333.76,278.23ZM309.46,254A6.07,6.07,0,1,1,303.4,260,6.07,6.07,0,0,1,309.46,254Zm-24.3,0c6.73,0,12.13,78.34,12.13,85.06A12.13,12.13,0,0,1,273,339C273,332.27,278.44,254,285.16,254Zm-60.72,66.79a6.07,6.07,0,1,1,6.06-6.06A6.08,6.08,0,0,1,224.44,320.76Zm12.13-30.36a6.07,6.07,0,1,1,6.06-6.06A6.08,6.08,0,0,1,236.57,290.4Zm24.3-24.3a6.07,6.07,0,1,1,6.06-6.06A6.07,6.07,0,0,1,260.87,266.1Z"/><path class="cls-6" d="M285.05,393.66h0Z"/><path class="cls-7" d="M360.16,339H306.31a21.27,21.27,0,0,1-42.53,0H209.94a79.05,79.05,0,0,0,75,54.66h.23A79.07,79.07,0,0,0,360.16,339Z"/><path class="cls-7" d="M236.57,278.23a6.07,6.07,0,1,0,6.06,6.07A6.08,6.08,0,0,0,236.57,278.23Z"/><path class="cls-7" d="M224.44,308.63a6.07,6.07,0,1,0,6.06,6.07A6.08,6.08,0,0,0,224.44,308.63Z"/><path class="cls-7" d="M266.93,260a6.07,6.07,0,1,0-6.06,6.06A6.07,6.07,0,0,0,266.93,260Z"/><path class="cls-7" d="M333.76,290.4a6.07,6.07,0,1,0-6.06-6.06A6.07,6.07,0,0,0,333.76,290.4Z"/><path class="cls-7" d="M309.46,266.1A6.07,6.07,0,1,0,303.4,260,6.07,6.07,0,0,0,309.46,266.1Z"/><path class="cls-7" d="M345.89,320.76a6.07,6.07,0,1,0-6.07-6.06A6.07,6.07,0,0,0,345.89,320.76Z"/><path class="cls-8" d="M285.16,351.16A12.12,12.12,0,0,0,297.29,339c0-6.72-5.44-85.06-12.13-85.06S273,332.31,273,339A12.12,12.12,0,0,0,285.16,351.16Z"/><circle class="cls-2" cx="478.8" cy="314.7" r="85.3"/><rect class="cls-8" x="435.46" y="259.57" width="86.67" height="110.25" rx="4.17"/><circle class="cls-7" cx="441.87" cy="266.14" r="4.25"/><circle class="cls-7" cx="515.73" cy="266.14" r="4.25"/><circle class="cls-7" cx="441.87" cy="363.08" r="4.25"/><circle class="cls-7" cx="515.73" cy="363.08" r="4.25"/><rect class="cls-5" x="446.12" y="279.11" width="65.35" height="52.46" rx="4.17"/><g class="cls-9"><path class="cls-10" d="M464.16,305.57a6.81,6.81,0,0,1-1.84-.26,5.89,5.89,0,0,1-1.74-.78,6.55,6.55,0,0,1-2.22-2.4,6.65,6.65,0,0,1-.8-3.22H462a2,2,0,0,0,.34,1.24,2.49,2.49,0,0,0,.61.59,2,2,0,0,0,1,.35,2.4,2.4,0,0,0,1.08-.21,1.8,1.8,0,0,0,.6-.4,1.9,1.9,0,0,0,.34-.47,1.3,1.3,0,0,0,.15-.43,2.6,2.6,0,0,0,0-.35,2.47,2.47,0,0,0,0-.34,1.49,1.49,0,0,0-.15-.45,1.6,1.6,0,0,0-.34-.47,2.41,2.41,0,0,0-.6-.41c-.19-.09-.4-.16-.62-.24l-.7-.23q-.66-.21-1.38-.48a8,8,0,0,1-1.43-.72,5.4,5.4,0,0,1-1.56-1.45,5.75,5.75,0,0,1-1.1-4,5.55,5.55,0,0,1,.59-2.05,5.8,5.8,0,0,1,1.2-1.56,5.62,5.62,0,0,1,3.47-1.51,6.19,6.19,0,0,1,2,.18,5.89,5.89,0,0,1,1.82.76,6,6,0,0,1,1.41,1.24,5.55,5.55,0,0,1,.91,1.63,5.66,5.66,0,0,1,.31,1.88h-4.45a.91.91,0,0,0-.39-.84,2.49,2.49,0,0,0-.67-.32l-.25,0a1.14,1.14,0,0,0-.45,0,1.79,1.79,0,0,0-.52.18,1.1,1.1,0,0,0-.43.47,1.19,1.19,0,0,0-.07.89,1.17,1.17,0,0,0,.53.72,5.2,5.2,0,0,0,.82.39l.95.33.91.29c.31.11.62.23.94.37a6.29,6.29,0,0,1,2.73,2.33,6.21,6.21,0,0,1,1,3.42,6.11,6.11,0,0,1-1,3.39A6.24,6.24,0,0,1,467,305a6.56,6.56,0,0,1-1.4.46A7,7,0,0,1,464.16,305.57Z"/><path class="cls-10" d="M478.39,305.57a6.81,6.81,0,0,1-1.84-.26,5.89,5.89,0,0,1-1.74-.78,6.55,6.55,0,0,1-2.22-2.4,6.65,6.65,0,0,1-.8-3.22h4.48a2,2,0,0,0,.34,1.24,2.49,2.49,0,0,0,.61.59,2,2,0,0,0,1,.35,2.4,2.4,0,0,0,1.08-.21,1.8,1.8,0,0,0,.6-.4,2.21,2.21,0,0,0,.34-.47,1.3,1.3,0,0,0,.15-.43,2.6,2.6,0,0,0,0-.35,2.47,2.47,0,0,0,0-.34,1.49,1.49,0,0,0-.15-.45,1.8,1.8,0,0,0-.34-.47,2.41,2.41,0,0,0-.6-.41c-.19-.09-.4-.16-.62-.24l-.7-.23q-.66-.21-1.38-.48a8,8,0,0,1-1.43-.72,5.4,5.4,0,0,1-1.56-1.45,5.75,5.75,0,0,1-1.1-4,5.55,5.55,0,0,1,.59-2.05,5.8,5.8,0,0,1,1.2-1.56,5.62,5.62,0,0,1,3.47-1.51,6.19,6.19,0,0,1,2,.18,5.89,5.89,0,0,1,1.82.76,6,6,0,0,1,1.41,1.24,5.55,5.55,0,0,1,.91,1.63,5.66,5.66,0,0,1,.31,1.88h-4.45a.91.91,0,0,0-.39-.84,2.49,2.49,0,0,0-.67-.32l-.25,0a1.18,1.18,0,0,0-.46,0,1.84,1.84,0,0,0-.51.18,1.1,1.1,0,0,0-.43.47,1.26,1.26,0,0,0,.45,1.61,5.8,5.8,0,0,0,.83.39l.95.33.91.29c.31.11.62.23.94.37a6.29,6.29,0,0,1,2.73,2.33,6.2,6.2,0,0,1,1,3.42,6.1,6.1,0,0,1-1,3.39,6.24,6.24,0,0,1-2.73,2.34,6.56,6.56,0,0,1-1.4.46A7,7,0,0,1,478.39,305.57Z"/><path class="cls-10" d="M490.71,285.67a9.68,9.68,0,0,1,3.65.92,10.28,10.28,0,0,1,3,2.15,10.09,10.09,0,0,1,2,3.07,9.56,9.56,0,0,1,.73,3.74,9.35,9.35,0,0,1-.72,3.67,9.52,9.52,0,0,1-2,3,9.76,9.76,0,0,1-3,2.08,9.94,9.94,0,0,1-3.68.88h-4.48V285.64h4.48Zm0,15a5.6,5.6,0,0,0,1.92-.54,5.45,5.45,0,0,0,1.54-1.12,5.07,5.07,0,0,0,1-1.57,4.92,4.92,0,0,0,.37-1.91,5.23,5.23,0,0,0-.37-2,5.38,5.38,0,0,0-1-1.67,5.77,5.77,0,0,0-1.54-1.2,5.11,5.11,0,0,0-1.91-.57Z"/></g><rect class="cls-7" x="457.56" y="311.52" width="42.48" height="4.85"/><rect class="cls-7" x="457.56" y="320.49" width="42.48" height="4.85"/><g class="cls-9"><rect class="cls-10" x="498.02" y="352.43" width="7.68" height="17.4"/><rect class="cls-10" x="451.9" y="352.43" width="7.68" height="17.4"/><rect class="cls-10" x="463.43" y="352.43" width="7.68" height="17.4"/><rect class="cls-10" x="474.96" y="352.43" width="7.68" height="17.4"/><rect class="cls-10" x="486.49" y="352.43" width="7.68" height="17.4"/></g><circle class="cls-11" cx="285.05" cy="101.99" r="101.99"/><g id="infinity" class="cls-9"><path class="cls-10" d="M324.66,62.38c-18.82,0-30.61,10.61-39.61,22.34-9-11.73-20.79-22.34-39.61-22.34-15.91,0-39.62,10.55-39.62,39.61s23.71,39.61,39.62,39.61c18.82,0,30.61-10.62,39.61-22.34,9,11.72,20.79,22.34,39.61,22.34,15.91,0,39.61-10.55,39.61-39.61S340.57,62.38,324.66,62.38Zm-79.22,59.41c-3.3,0-19.81-1-19.81-19.8,0-18.1,15.21-19.75,19.81-19.81,12.1,0,19.07,7.42,27.63,19.81C264.51,114.41,257.54,121.79,245.44,121.79Zm79.16,0c-12.08,0-19.05-7.41-27.61-19.8,8.59-12.39,15.53-19.81,27.67-19.81,3.3,0,19.81.95,19.81,19.81C344.47,120.05,329.32,121.73,324.6,121.79Z"/></g></g></g></svg>