<svg xmlns="http://www.w3.org/2000/svg" viewBox="0 0 440.04 400"><defs><style>.cls-1{fill:#f79449;}.cls-2{fill:#37444f;}.cls-3,.cls-6{fill:#fff;}.cls-3,.cls-5{opacity:0.5;}.cls-4{fill:#009444;}</style></defs><title>updates</title><g id="Layer_2" data-name="Layer 2"><g id="Layer_1-2" data-name="Layer 1"><rect class="cls-1" x="19.97" y="12.06" width="400" height="374.96"/><path class="cls-2" d="M399.91,0H40A40.07,40.07,0,0,0,0,40V360a40.07,40.07,0,0,0,40,40H400a40.07,40.07,0,0,0,40-40V40A40.21,40.21,0,0,0,399.91,0ZM20,40a20,20,0,0,1,20-20h360a20,20,0,0,1,20,20v60H20ZM420,360a20,20,0,0,1-20,20H40a20,20,0,0,1-20-20V120H420Z"/><circle class="cls-3" cx="120.02" cy="60.01" r="19.97"/><path class="cls-3" d="M179.94,40a20,20,0,1,0,20,20A20,20,0,0,0,179.94,40Z"/><circle class="cls-3" cx="60.01" cy="60.01" r="19.97"/><rect class="cls-2" x="36.46" y="307.95" width="367.11" height="58.63" rx="5.35"/><rect class="cls-4" x="36.46" y="308.18" width="265.51" height="58.63" rx="5.35"/><path class="cls-3" d="M36.46,333.33,61.6,308.19H89.83L38.15,359.87s-1.69-2.32-1.69-7.77Z"/><polygon class="cls-3" points="51.74 366.81 110.35 308.19 138.58 308.19 79.97 366.81 51.74 366.81"/><polygon class="cls-3" points="100.49 366.81 159.1 308.19 187.33 308.19 128.72 366.81 100.49 366.81"/><polygon class="cls-3" points="149.24 366.81 207.85 308.19 236.08 308.19 177.47 366.81 149.24 366.81"/><polygon class="cls-3" points="197.99 366.81 256.61 308.19 284.83 308.19 226.22 366.81 197.99 366.81"/><path class="cls-3" d="M246.74,366.8,299.57,314s2.66,3.79,2.4,7.64V339.8l-27,27Z"/><g class="cls-5"><path class="cls-6" d="M41,210.81c-.07-46.3,37.57-83.95,84.06-84.08,46.29-.14,84,37.6,84,84a84.05,84.05,0,0,1-168.1.07Zm5.07,0a79,79,0,1,0,79.12-79.05A78.9,78.9,0,0,0,46.1,210.8Z"/><path class="cls-6" d="M82.27,178c2.58-.22,4.71-.33,6.83-.59,2.69-.32,4-1.52,3.69-3.37-.39-2.34-2.06-2.65-4.09-2.54q-9.28.48-18.57.84a29.9,29.9,0,0,1-3-.18c21.8-35.36,74.12-42.25,104.64-13.27-6.22.51-10.08,3.79-11.62,9.7a13.79,13.79,0,0,0,1,9.43,60.48,60.48,0,0,0,4.35,8q10.39,15.68,4.91,33.59c-3.33,11-6.69,21.92-10.27,33.63L134.9,178.16c1.37-.19,2.54-.36,3.71-.5,1.48-.17,3.12,0,4.38-.58a4.47,4.47,0,0,0,2.31-2.93c.17-1.61-1.08-2.72-2.89-2.64-2.72.12-5.44.47-8.16.46-8.67-.05-17.34-.23-26-.36-1.15,0-2.46-.42-3.43,0a4.77,4.77,0,0,0-2.48,2.52,2.28,2.28,0,0,0,2.08,3c2,.31,4.12.33,6.14.75a3.13,3.13,0,0,1,2.06,1.59q5.06,13.44,9.87,27a4.31,4.31,0,0,1,.07,2.61q-7.17,21.74-14.45,43.44c0,.14-.2.24-.58.65C99.11,228.12,90.75,203.26,82.27,178Z"/><path class="cls-6" d="M126.34,217c7.4,20.26,14.57,39.92,21.74,59.55-9.54,4.61-28.51,5.93-42.66,1.3C112.32,257.79,119.22,237.73,126.34,217Z"/><path class="cls-6" d="M94.39,273.54c-34.83-16.93-48-58.32-33.21-91Z"/><path class="cls-6" d="M160.53,271c4.8-13.87,9.42-27.28,14.07-40.68,2.84-8.18,5.86-16.3,8.54-24.53a83.18,83.18,0,0,0,3.34-13.43c.67-4.5.53-9.12.72-13.31C203.2,206.46,195.65,250.75,160.53,271Z"/></g><g class="cls-5"><path class="cls-6" d="M229.88,279c-.14-.52-.25-1.06-.43-1.58a12,12,0,0,1,3.9-13.51q12.6-10,25.27-19.84L260,243c-7.33-21.49-2-40.69,9.87-58.71a84,84,0,0,1,18-19.48l1.4-1.1,69.76,89c-.79.61-1.58,1.28-2.41,1.88C345,263,332.31,268.75,318.12,270.93c-13.94,2.14-29.49.59-43-8.77l-5.41,4.24-20.56,16.11c-5.08,4-10.28,4.15-15.71.49a1.48,1.48,0,0,0-.53-.14Z"/><path class="cls-6" d="M367,225c3.24,4.13,6.33,8,9.4,12,2.82,3.62,3,7.82.59,11.31-3.25,4.66-10.18,5.26-13.83.91-4.54-5.41-8.82-11.06-13.19-16.63q-27.46-35-54.94-70.07c-1.62-2.06-3-4.17-2.92-6.93a9,9,0,0,1,16.18-5.44c2.84,3.5,5.59,7.08,8.37,10.63l1.43,1.82,1.8-1.42q14.26-11.17,28.54-22.36c5.79-4.52,13.14-3.74,17.48,1.83s3.15,13-2.57,17.45l-28.68,22.49-1.42,1.12,18.81,24,1.4-1.1q14.49-11.35,29-22.7c5-3.95,12.23-3.59,16.41.82a12.16,12.16,0,0,1,.46,16.69,22.42,22.42,0,0,1-3.12,2.69Q382.37,213,368.53,223.81C368.09,224.15,367.65,224.49,367,225Z"/></g></g></g></svg>