<svg xmlns="http://www.w3.org/2000/svg" viewBox="0 0 440.04 400"><defs><style>.cls-1{fill:#f79449;}.cls-2{fill:#37444f;}.cls-3,.cls-6{fill:#fff;}.cls-3,.cls-5{opacity:0.5;}.cls-4{fill:#009444;}</style></defs><title>uptime-monitoring</title><g id="Layer_2" data-name="Layer 2"><g id="Layer_1-2" data-name="Layer 1"><rect class="cls-1" x="19.97" y="12.06" width="400" height="374.96"/><path class="cls-2" d="M399.91,0H40A40.07,40.07,0,0,0,0,40V360a40.07,40.07,0,0,0,40,40H400a40.07,40.07,0,0,0,40-40V40A40.21,40.21,0,0,0,399.91,0ZM20,40a20,20,0,0,1,20-20h360a20,20,0,0,1,20,20v60H20ZM420,360a20,20,0,0,1-20,20H40a20,20,0,0,1-20-20V120H420Z"/><circle class="cls-3" cx="120.02" cy="60.01" r="19.97"/><path class="cls-3" d="M179.94,40a20,20,0,1,0,20,20A20,20,0,0,0,179.94,40Z"/><circle class="cls-3" cx="60.01" cy="60.01" r="19.97"/><circle class="cls-4" cx="310.91" cy="253.36" r="83.99"/><g id="magnifier" class="cls-5"><path class="cls-6" d="M365.52,296.6,341.89,270a10.74,10.74,0,0,0-10.2-3.36l-2.59-2.91a43.3,43.3,0,1,0-8.05,7.14l2.58,2.91a10.76,10.76,0,0,0,2.13,10.54l23.62,26.63a10.79,10.79,0,0,0,16.14-14.32Zm-67.08-90a28.75,28.75,0,1,1-30.42,27A28.78,28.78,0,0,1,298.44,206.61Z"/></g><path class="cls-3" d="M212.08,229.54l-81-97.4a1.17,1.17,0,0,0-1.82,0l-81,97.4a1.27,1.27,0,0,0,.91,2.09H93.66a1.23,1.23,0,0,1,1.21,1.26v62.32h70.42V232.89a1.23,1.23,0,0,1,1.2-1.26h44.68A1.27,1.27,0,0,0,212.08,229.54Z"/><rect class="cls-3" x="94.87" y="303.21" width="70.48" height="12.14"/><rect class="cls-3" x="94.91" y="323.35" width="70.48" height="12.14"/><rect class="cls-3" x="94.91" y="343.49" width="70.48" height="12.14"/></g></g></svg>