<svg xmlns="http://www.w3.org/2000/svg" xmlns:xlink="http://www.w3.org/1999/xlink" viewBox="0 0 358.37 300"><defs><style>.cls-1{fill:#090b0c;}.cls-2{fill:#edf0f0;}.cls-3{fill:#44b39c;}.cls-4{fill:url(#linear-gradient);}.cls-5{fill:url(#linear-gradient-2);}.cls-6{fill:#2b424f;}.cls-7{fill:#3c5867;}.cls-8{fill:#d37533;}.cls-9{fill:#f79449;}.cls-10,.cls-13{fill:#fff;}.cls-11{fill:#dbdddd;}.cls-12,.cls-13{opacity:0.5;}</style><linearGradient id="linear-gradient" x1="-21.51" y1="-745.14" x2="-21.51" y2="-795.25" gradientTransform="translate(242.5 1041)" gradientUnits="userSpaceOnUse"><stop offset="0" stop-color="#fff" stop-opacity="0"/><stop offset="1" stop-color="#010101" stop-opacity="0.5"/></linearGradient><linearGradient id="linear-gradient-2" x1="-63.26" y1="-745.14" x2="-63.26" y2="-795.28" xlink:href="#linear-gradient"/></defs><title>websites-no-shadow</title><g id="Layer_2" data-name="Layer 2"><g id="Layer_1-2" data-name="Layer 1"><rect class="cls-1" x="128.94" y="295.83" width="100.39" height="4.17"/><path class="cls-2" d="M0,195.87v32.18a17.7,17.7,0,0,0,17.75,17.74h128c-.21,3.75-.42,7.06-.64,10.05.22-3,.43-6.3.64-10.05H338.17c9.83,0,20.1-7.91,20.1-17.74V195.87C352.39,195.76,0,195.87,0,195.87Zm179.08,37.31a12.41,12.41,0,1,1,12.4-12.4A12.27,12.27,0,0,1,179.08,233.18Z"/><path class="cls-2" d="M129,294.12c.22,0,0,1.82,0,1.82S129.26,294.12,129,294.12Z"/><path class="cls-2" d="M143.26,272.63c.33-2.35.75-5.24,1.07-8.77C144,267.39,143.59,270.28,143.26,272.63Z"/><path class="cls-2" d="M0,22.13v0Z"/><path class="cls-2" d="M144.33,263.86c.22-2.35.43-5,.75-8C144.76,258.73,144.55,261.4,144.33,263.86Z"/><path class="cls-3" d="M217.57,281.72s4.92,12.4,11.76,12.4c-6.84,0-11.76-12.4-11.76-12.4s-3.42-6.42-4.92-35.93h0C214.15,275.3,217.57,281.72,217.57,281.72Z"/><path class="cls-4" d="M217.57,281.72s4.92,12.4,11.76,12.4c-6.84,0-11.76-12.4-11.76-12.4s-3.42-6.42-4.92-35.93h0C214.15,275.3,217.57,281.72,217.57,281.72Z"/><path class="cls-2" d="M217.57,281.72s-3.42-6.42-4.92-35.93H145.72c-.21,3.75-.42,7.06-.64,10.05s-.43,5.67-.75,8c-.32,3.53-.74,6.42-1.07,8.77-1.06,7.06-1.92,9.09-1.92,9.09s-5.13,12.4-12.19,12.4c.22,0,0,1.82,0,1.82H229.33s-.21-1.82,0-1.82C222.49,294.12,217.57,281.72,217.57,281.72Z"/><path class="cls-5" d="M217.57,281.72s-3.42-6.42-4.92-35.93H145.72c-.21,3.75-.42,7.06-.64,10.05s-.43,5.67-.75,8c-.32,3.53-.74,6.42-1.07,8.77-1.06,7.06-1.92,9.09-1.92,9.09s-5.13,12.4-12.19,12.4c.22,0,0,1.82,0,1.82H229.33s-.21-1.82,0-1.82C222.49,294.12,217.57,281.72,217.57,281.72Z"/><path class="cls-6" d="M340.63,0H17.75A17.7,17.7,0,0,0,0,17.75V195.87s352.49-.11,358.27,0h.1V17.64A17.68,17.68,0,0,0,340.63,0Zm-3.21,175c-.75,0-316.57.21-316.79,0V20.63s316.79.11,316.79,0Z"/><circle class="cls-6" cx="179.08" cy="220.78" r="12.4"/><path class="cls-7" d="M20.63,20.63V175c.11.21,316,0,316.79,0V20.63C337.53,20.74,20.63,20.63,20.63,20.63Z"/><path class="cls-8" d="M337.42,172.09c0,1.67-2.24,3-5,3H25.66c-2.78,0-5-1.34-5-3V40.43H337.42Z"/><path class="cls-9" d="M337.42,168c0,1.67-2.24,3-5,3H25.66c-2.78,0-5-1.34-5-3V36.33H337.42Z"/><path class="cls-10" d="M337.42,24.16c0-1.95-2.24-3.53-5-3.53H25.66c-2.78,0-5,1.58-5,3.53V36.52H337.42Z"/><path class="cls-11" d="M317.22,31c0,.77-1,1.44-2.18,1.44H52.29c-1.16,0-2.18-.62-2.18-1.44V26.41c0-.77.94-1.44,2.18-1.44H315c1.16,0,2.18.62,2.18,1.44V31Z"/><circle class="cls-11" cx="28.84" cy="28.69" r="2.34"/><circle class="cls-11" cx="35.52" cy="28.69" r="2.34"/><circle class="cls-11" cx="41.86" cy="28.69" r="2.34"/><g class="cls-12"><rect class="cls-10" x="55.02" y="63.6" width="92.19" height="5.53"/><rect class="cls-10" x="55.02" y="75.71" width="66.73" height="5.53"/><rect class="cls-10" x="55.02" y="103.33" width="152.48" height="5.53"/><rect class="cls-10" x="55.02" y="115.4" width="152.48" height="5.53"/><rect class="cls-10" x="55.02" y="127.46" width="152.48" height="5.53"/><rect class="cls-10" x="55.02" y="138.34" width="152.48" height="5.53"/></g><path class="cls-11" d="M331.32,25.69a.83.83,0,0,1-.81.81H324a.83.83,0,0,1-.81-.81h0a.83.83,0,0,1,.81-.81h6.53a.83.83,0,0,1,.81.81Z"/><path class="cls-11" d="M331.28,31.46a.84.84,0,0,1-.82.81h-6.53a.83.83,0,0,1-.81-.81h0a.83.83,0,0,1,.81-.81h6.53a.88.88,0,0,1,.82.81Z"/><path class="cls-11" d="M331.32,28.6a.83.83,0,0,1-.81.81H324a.83.83,0,0,1-.81-.81h0a.83.83,0,0,1,.81-.81h6.53a.8.8,0,0,1,.81.81Z"/><rect class="cls-13" x="233.58" y="63.6" width="83.64" height="80.27"/></g></g></svg>