<svg id="Layer_1" data-name="Layer 1" xmlns="http://www.w3.org/2000/svg" xmlns:xlink="http://www.w3.org/1999/xlink" viewBox="0 0 919.13 919.13"><defs><style>.cls-1{fill:none;}.cls-2{clip-path:url(#clip-path);}.cls-3{fill:#fafbfc;}.cls-4{opacity:0.8;}.cls-5{fill:#eaeaea;}</style><clipPath id="clip-path" transform="translate(59.57 59.57)"><rect class="cls-1" x="0.27" width="798.73" height="798.73"/></clipPath></defs><title>website-background</title><g class="cls-2"><rect class="cls-3" width="919.13" height="919.13"/><g class="cls-4"><rect class="cls-5" x="73.9" y="51.9" width="21.33" height="21.33" rx="10.67"/><rect class="cls-5" x="180.4" y="131.9" width="21.33" height="21.33" rx="10.67"/><rect class="cls-5" x="238.4" y="164.9" width="21.33" height="21.33" rx="10.67"/><rect class="cls-5" x="285.4" y="107.4" width="21.33" height="21.33" rx="10.67"/><rect class="cls-5" x="215.73" y="48.9" width="21.33" height="21.33" rx="10.67"/><rect class="cls-5" x="73.9" y="183.4" width="21.33" height="21.33" rx="10.67"/><rect class="cls-5" x="111.4" y="232.9" width="21.33" height="21.33" rx="10.67"/><rect class="cls-5" x="48.9" y="226.9" width="21.33" height="21.33" rx="10.67"/><rect class="cls-5" x="230.9" y="311.9" width="21.33" height="21.33" rx="10.67"/><rect class="cls-5" x="226.4" y="349.9" width="21.33" height="21.33" rx="10.67"/><rect class="cls-5" x="293.9" y="276.9" width="21.33" height="21.33" rx="10.67"/><rect class="cls-5" x="366.9" y="232.4" width="21.33" height="21.33" rx="10.67"/><rect class="cls-5" x="413.9" y="168.4" width="21.33" height="21.33" rx="10.67"/><rect class="cls-5" x="514.63" y="230.02" width="21.33" height="21.33" rx="10.67"/><rect class="cls-5" x="553.13" y="214.02" width="21.33" height="21.33" rx="10.67"/><rect class="cls-5" x="587.63" y="183.02" width="21.33" height="21.33" rx="10.67"/><rect class="cls-5" x="517.63" y="352.52" width="21.33" height="21.33" rx="10.67"/><rect class="cls-5" x="615.13" y="339.02" width="21.33" height="21.33" rx="10.67"/><rect class="cls-5" x="719.13" y="317.68" width="21.33" height="21.33" rx="10.67"/><rect class="cls-5" x="736.13" y="211.07" width="21.33" height="21.33" rx="10.67"/><rect class="cls-5" x="725.46" y="136.07" width="21.33" height="21.33" rx="10.67"/><rect class="cls-5" x="764.96" y="118.15" width="21.33" height="21.33" rx="10.67"/><rect class="cls-5" x="675.56" y="27.25" width="28.83" height="21.33" rx="10.67" transform="translate(288.47 -417.21) rotate(45)"/><rect class="cls-5" x="741.17" y="41.6" width="38.3" height="21.33" rx="10.67" transform="translate(319.22 -462.76) rotate(45)"/><rect class="cls-5" x="695.69" y="-5.66" width="52.23" height="21.33" rx="10.67" transform="translate(274.52 -449.36) rotate(45)"/><rect class="cls-5" x="748.5" y="9.54" width="78.26" height="21.33" rx="10.67" transform="translate(304.54 -491.45) rotate(45)"/><rect class="cls-5" x="628.89" y="-15.58" width="46.55" height="21.33" rx="10.67" transform="translate(247.1 -403.03) rotate(45)"/><rect class="cls-5" x="555.56" y="-22.58" width="46.55" height="21.33" rx="10.67" transform="translate(220.68 -353.22) rotate(45)"/><rect class="cls-5" x="546.49" y="24.76" width="72.04" height="21.33" rx="10.67" transform="translate(255.23 -341.96) rotate(45)"/><rect class="cls-5" x="602.88" y="96.58" width="46.71" height="21.33" rx="10.67" transform="translate(318.82 -351.84) rotate(45)"/><rect class="cls-5" x="686.22" y="109.55" width="37.56" height="21.33" rx="10.67" transform="translate(351.06 -403.74) rotate(45)"/><rect class="cls-5" x="716.68" y="155.69" width="49.4" height="21.33" rx="10.67" transform="translate(394.34 -415.94) rotate(45)"/><rect class="cls-5" x="737.59" y="117.01" width="61.36" height="21.33" rx="10.67" transform="translate(374.87 -446.29) rotate(45)"/><rect class="cls-5" x="710.79" y="190.43" width="41.79" height="21.33" rx="10.67" transform="translate(416.07 -398.92) rotate(45)"/><rect class="cls-5" x="761.41" y="243.72" width="67.14" height="21.33" rx="10.67" transform="translate(472.29 -428.06) rotate(45)"/><rect class="cls-5" x="666.08" y="326.59" width="90.35" height="21.33" rx="10.67" transform="translate(506.36 -344.58) rotate(45)"/><rect class="cls-5" x="503.99" y="233.02" width="159.23" height="21.33" rx="10.67" transform="translate(402.81 -281.73) rotate(45)"/><rect class="cls-5" x="562.31" y="158.7" width="141.1" height="21.33" rx="10.67" transform="translate(364.69 -338.33) rotate(45)"/><rect class="cls-5" x="692.82" y="260.3" width="46.57" height="21.33" rx="10.67" transform="translate(460.91 -367.43) rotate(45)"/><rect class="cls-5" x="593.15" y="192.97" width="46.57" height="21.33" rx="10.67" transform="translate(384.11 -316.68) rotate(45)"/><rect class="cls-5" x="549.89" y="160.77" width="39.24" height="21.33" rx="10.67" transform="translate(347.6 -292.93) rotate(45)"/><rect class="cls-5" x="458.79" y="120.55" width="34.85" height="21.33" rx="10.67" transform="translate(291.83 -238.74) rotate(45)"/><rect class="cls-5" x="489.37" y="21.62" width="42.26" height="21.33" rx="10.67" transform="translate(231.92 -291.95) rotate(45)"/><rect class="cls-5" x="532.14" y="73.15" width="59.78" height="21.33" rx="10.67" transform="translate(283.44 -313.3) rotate(45)"/><rect class="cls-5" x="471.06" y="80.82" width="56.43" height="21.33" rx="10.67" transform="translate(270.49 -266.68) rotate(45)"/><rect class="cls-5" x="401.77" y="0.91" width="77.86" height="21.33" rx="10.67" transform="translate(196.83 -248.67) rotate(45)"/><rect class="cls-5" x="417.75" y="76.28" width="44.99" height="21.33" rx="10.67" transform="translate(249.99 -226.26) rotate(45)"/><rect class="cls-5" x="363.04" y="103.56" width="97.63" height="21.33" rx="10.67" transform="translate(260.97 -198.2) rotate(45)"/><rect class="cls-5" x="301.04" y="-24.77" width="97.63" height="21.33" rx="10.67" transform="translate(152.06 -191.95) rotate(45)"/><rect class="cls-5" x="311.57" y="24.2" width="43.91" height="21.33" rx="10.67" transform="translate(181.91 -166.06) rotate(45)"/><rect class="cls-5" x="262.31" y="-13.53" width="52.02" height="21.33" rx="10.67" transform="translate(141.99 -145.15) rotate(45)"/><rect class="cls-5" x="195.79" y="3.77" width="104.76" height="21.33" rx="10.67" transform="translate(142.46 -111.69) rotate(45)"/><rect class="cls-5" x="258.92" y="112.96" width="100.61" height="21.33" rx="10.67" transform="translate(237.56 -122.88) rotate(45)"/><rect class="cls-5" x="161.61" y="73.83" width="93.66" height="21.33" rx="10.67" transform="translate(180.36 -63.07) rotate(45)"/><rect class="cls-5" x="84.35" y="14.21" width="75.61" height="21.33" rx="10.67" transform="translate(112.94 -19.52) rotate(45)"/><rect class="cls-5" x="184.53" y="16.54" width="41.36" height="21.33" rx="10.67" transform="translate(138.91 -77.57) rotate(45)"/><rect class="cls-5" x="40.11" y="27.21" width="71.53" height="21.33" rx="10.67" transform="translate(108.57 17.01) rotate(45)"/><rect class="cls-5" x="-33.55" y="23.21" width="71.53" height="21.33" rx="10.67" transform="translate(84.17 67.93) rotate(45)"/><rect class="cls-5" x="57.87" y="71.39" width="27.67" height="21.33" rx="10.67" transform="translate(138.59 32.9) rotate(45)"/><rect class="cls-5" x="-15.8" y="89.39" width="27.67" height="21.33" rx="10.67" transform="translate(129.75 90.26) rotate(45)"/><rect class="cls-5" x="102.1" y="122.45" width="45.92" height="21.33" rx="10.67" transform="translate(190.32 10.13) rotate(45)"/><rect class="cls-5" x="42.06" y="133.79" width="66.68" height="21.33" rx="10.67" transform="translate(183.8 48.56) rotate(45)"/><rect class="cls-5" x="-2.09" y="203.96" width="35.5" height="21.33" rx="10.67" transform="translate(215.92 111.35) rotate(45)"/><rect class="cls-5" x="95.66" y="187.85" width="41.8" height="21.33" rx="10.67" transform="translate(234.08 35.29) rotate(45)"/><rect class="cls-5" x="148.19" y="193.42" width="43.4" height="21.33" rx="10.67" transform="translate(253.64 -0.79) rotate(45)"/><rect class="cls-5" x="149" y="142.27" width="67.38" height="21.33" rx="10.67" transform="translate(221.22 -24.82) rotate(45)"/><rect class="cls-5" x="245.96" y="131.8" width="56.26" height="21.33" rx="10.67" transform="translate(240.58 -92.52) rotate(45)"/><rect class="cls-5" x="244.71" y="185.96" width="39.76" height="21.33" rx="10.67" transform="translate(276.1 -69.94) rotate(45)"/><rect class="cls-5" x="111.92" y="246.24" width="37.7" height="21.33" rx="10.67" transform="translate(279.53 42.34) rotate(45)"/><rect class="cls-5" x="46.52" y="338.06" width="29.07" height="21.33" rx="10.67" transform="translate(324.03 118.53) rotate(45)"/><rect class="cls-5" x="-25.71" y="301.1" width="60.51" height="21.33" rx="10.67" transform="translate(281.35 147.67) rotate(45)"/><rect class="cls-5" x="-9.36" y="366.39" width="58.29" height="21.33" rx="10.67" transform="translate(331.98 156.02) rotate(45)"/><rect class="cls-5" x="118.02" y="409.53" width="47.69" height="21.33" rx="10.67" transform="translate(398.24 82.33) rotate(45)"/><rect class="cls-5" x="64.22" y="432.57" width="80.81" height="21.33" rx="10.67" transform="translate(403.62 115.41) rotate(45)"/><rect class="cls-5" x="28.73" y="472.86" width="75.04" height="21.33" rx="10.67" transform="translate(420.88 154.34) rotate(45)"/><rect class="cls-5" x="-34.31" y="474.73" width="84.85" height="21.33" rx="10.67" transform="translate(405.17 196) rotate(45)"/><rect class="cls-5" x="121.9" y="372.55" width="73.91" height="21.33" rx="10.67" transform="translate(377.07 59.48) rotate(45)"/><rect class="cls-5" x="210.3" y="271.76" width="73.91" height="21.33" rx="10.67" transform="translate(331.69 -32.55) rotate(45)"/><rect class="cls-5" x="297.94" y="272.6" width="92.34" height="21.33" rx="10.67" transform="translate(360.66 -100.78) rotate(45)"/><rect class="cls-5" x="201.5" y="384.09" width="62.2" height="21.33" rx="10.67" transform="translate(406.83 10.71) rotate(45)"/><rect class="cls-5" x="205.37" y="323.26" width="47.61" height="21.33" rx="10.67" transform="translate(362.82 -4.68) rotate(45)"/><rect class="cls-5" x="273.9" y="275.99" width="49.34" height="21.33" rx="10.67" transform="translate(349.71 -67.59) rotate(45)"/><rect class="cls-5" x="345.3" y="336.42" width="43.71" height="21.33" rx="10.67" transform="translate(412.53 -98.39) rotate(45)"/><rect class="cls-5" x="311.6" y="360.42" width="37.11" height="21.33" rx="10.67" transform="translate(418.66 -65.2) rotate(45)"/><rect class="cls-5" x="261.5" y="376.06" width="34.88" height="21.33" rx="10.67" transform="translate(414.72 -24.41) rotate(45)"/><rect class="cls-5" x="399.83" y="363.43" width="42.86" height="21.33" rx="10.67" transform="translate(447.48 -128.74) rotate(45)"/><rect class="cls-5" x="370" y="440.92" width="48.94" height="21.33" rx="10.67" transform="translate(494.42 -87.1) rotate(45)"/><rect class="cls-5" x="308.81" y="415.04" width="27.62" height="21.33" rx="10.67" transform="translate(455.08 -43.87) rotate(45)"/><rect class="cls-5" x="269.1" y="450.68" width="25.58" height="21.33" rx="10.67" transform="translate(468.35 -4.64) rotate(45)"/><rect class="cls-5" x="267.45" y="524.51" width="50.57" height="21.33" rx="10.67" transform="translate(523.73 9.33) rotate(45)"/><rect class="cls-5" x="200.76" y="531.31" width="60.41" height="21.33" rx="10.67" transform="translate(510.45 54.99) rotate(45)"/><rect class="cls-5" x="319.31" y="574.7" width="47.21" height="21.33" rx="10.67" transform="translate(573.92 -11.46) rotate(45)"/><rect class="cls-5" x="281.13" y="599.53" width="43.91" height="21.33" rx="10.67" transform="translate(579.81 23.98) rotate(45)"/><rect class="cls-5" x="201.49" y="613.13" width="95.58" height="21.33" rx="10.67" transform="translate(573.67 66.01) rotate(45)"/><rect class="cls-5" x="128.29" y="540.86" width="74.07" height="21.33" rx="10.67" transform="translate(497.98 104.21) rotate(45)"/><rect class="cls-5" x="98" y="551.97" width="55.53" height="21.33" rx="10.67" transform="translate(494.25 135.43) rotate(45)"/><rect class="cls-5" x="125.82" y="611.06" width="45.39" height="21.33" rx="10.67" transform="translate(542.69 136.65) rotate(45)"/><rect class="cls-5" x="30.33" y="717.32" width="63.2" height="21.33" rx="10.67" transform="translate(592.47 228.99) rotate(45)"/><rect class="cls-5" x="93.19" y="712" width="69.85" height="21.33" rx="10.67" transform="translate(608.1 180.64) rotate(45)"/><rect class="cls-5" x="102.62" y="760.27" width="39.58" height="21.33" rx="10.67" transform="translate(640.55 198.81) rotate(45)"/><rect class="cls-5" x="144.34" y="676.46" width="41.86" height="21.33" rx="10.67" transform="translate(593.85 143.96) rotate(45)"/><rect class="cls-5" x="228.08" y="671.21" width="43.66" height="21.33" rx="10.67" transform="translate(614.93 82.57) rotate(45)"/><rect class="cls-5" x="282.46" y="696.97" width="75.02" height="21.33" rx="10.67" transform="translate(653.66 40.58) rotate(45)"/><rect class="cls-5" x="195.12" y="717.32" width="75.02" height="21.33" rx="10.67" transform="translate(642.47 108.29) rotate(45)"/><rect class="cls-5" x="193.79" y="787.83" width="75.02" height="21.33" rx="10.67" transform="translate(691.94 129.89) rotate(45)"/><rect class="cls-5" x="252.82" y="789.33" width="75.02" height="21.33" rx="10.67" transform="translate(710.29 88.58) rotate(45)"/><rect class="cls-5" x="315.49" y="779" width="75.02" height="21.33" rx="10.67" transform="translate(721.34 41.25) rotate(45)"/><rect class="cls-5" x="362.35" y="770.28" width="94.2" height="21.33" rx="10.67" transform="translate(731.7 -1.22) rotate(45)"/><rect class="cls-5" x="428" y="692.71" width="98.82" height="21.33" rx="10.67" transform="translate(696.76 -72) rotate(45)"/><rect class="cls-5" x="522.3" y="762.96" width="85.38" height="21.33" rx="10.67" transform="translate(772.09 -113.35) rotate(45)"/><rect class="cls-5" x="52.35" y="615.13" width="95.15" height="21.33" rx="10.67" transform="translate(531.34 172.2) rotate(45)"/><rect class="cls-5" x="-42.24" y="579.92" width="95.15" height="21.33" rx="10.67" transform="translate(478.74 228.77) rotate(45)"/><rect class="cls-5" x="-61.58" y="621.92" width="95.15" height="21.33" rx="10.67" transform="translate(502.77 254.75) rotate(45)"/><rect class="cls-5" x="-66.24" y="677.92" width="95.15" height="21.33" rx="10.67" transform="translate(541 274.45) rotate(45)"/><rect class="cls-5" x="212.22" y="477.33" width="55.06" height="21.33" rx="10.67" transform="translate(474.85 32.97) rotate(45)"/><rect class="cls-5" x="301.97" y="501.12" width="69.79" height="21.33" rx="10.67" transform="translate(520.12 -28.73) rotate(45)"/><rect class="cls-5" x="384.62" y="506.7" width="67.67" height="21.33" rx="10.67" transform="translate(547.96 -84.79) rotate(45)"/><rect class="cls-5" x="424.28" y="477.33" width="67.67" height="21.33" rx="10.67" transform="translate(538.81 -121.44) rotate(45)"/><rect class="cls-5" x="427.3" y="429.5" width="67.67" height="21.33" rx="10.67" transform="translate(505.87 -137.58) rotate(45)"/><rect class="cls-5" x="362.09" y="291.57" width="115.95" height="21.33" rx="10.67" transform="translate(396.32 -148.94) rotate(45)"/><rect class="cls-5" x="339.73" y="210.92" width="93.35" height="21.33" rx="10.67" transform="translate(329.42 -148.76) rotate(45)"/><rect class="cls-5" x="385.39" y="176.68" width="54.9" height="21.33" rx="10.67" transform="translate(312.96 -177.48) rotate(45)"/><rect class="cls-5" x="445.96" y="244.23" width="62.17" height="21.33" rx="10.67" transform="translate(379.53 -203.09) rotate(45)"/><rect class="cls-5" x="482.88" y="216.29" width="53.1" height="21.33" rx="10.67" transform="translate(369.26 -234.18) rotate(45)"/><rect class="cls-5" x="517.55" y="274.74" width="26.08" height="21.33" rx="10.67" transform="translate(416.78 -232.02) rotate(45)"/><rect class="cls-5" x="461.12" y="379.16" width="21.33" height="21.33" rx="10.67" transform="translate(473.4 -159.86) rotate(45)"/><rect class="cls-5" x="524.18" y="324.05" width="38.01" height="21.33" rx="10.67" transform="translate(455.34 -226.48) rotate(45)"/><rect class="cls-5" x="486.15" y="360.18" width="52.53" height="21.33" rx="10.67" transform="translate(471.88 -194.15) rotate(45)"/><rect class="cls-5" x="592.53" y="328.84" width="46.85" height="21.33" rx="10.67" transform="translate(480.04 -276.54) rotate(45)"/><rect class="cls-5" x="654.66" y="337.06" width="36.43" height="21.33" rx="10.67" transform="translate(502.52 -314.38) rotate(45)"/><rect class="cls-5" x="571.08" y="373.5" width="60.91" height="21.33" rx="10.67" transform="translate(507.4 -253.27) rotate(45)"/><rect class="cls-5" x="491.47" y="442.8" width="98.54" height="21.33" rx="10.67" transform="translate(538.6 -189.98) rotate(45)"/><rect class="cls-5" x="510.73" y="531.12" width="49.93" height="21.33" rx="10.67" transform="translate(599.57 -160.55) rotate(45)"/><rect class="cls-5" x="580.85" y="517.67" width="38" height="21.33" rx="10.67" transform="translate(608.85 -209.85) rotate(45)"/><rect class="cls-5" x="579.78" y="450.2" width="45.31" height="21.33" rx="10.67" transform="translate(561.9 -231.43) rotate(45)"/><rect class="cls-5" x="629.59" y="447.6" width="37.94" height="21.33" rx="10.67" transform="translate(573.57 -264.82) rotate(45)"/><rect class="cls-5" x="672.27" y="481.21" width="61.72" height="21.33" rx="10.67" transform="translate(613.32 -293.55) rotate(45)"/><rect class="cls-5" x="632.73" y="397.95" width="104.67" height="21.33" rx="10.67" transform="translate(549.15 -305.17) rotate(45)"/><rect class="cls-5" x="747.61" y="333.91" width="30.34" height="21.33" rx="10.67" transform="translate(526.63 -378.88) rotate(45)"/><rect class="cls-5" x="745.44" y="454.16" width="80.68" height="21.33" rx="10.67" transform="translate(618.4 -359.92) rotate(45)"/><rect class="cls-5" x="746.45" y="509.61" width="66.27" height="21.33" rx="10.67" transform="translate(655.79 -339.3) rotate(45)"/><rect class="cls-5" x="778.45" y="587.11" width="66.27" height="21.33" rx="10.67" transform="translate(719.97 -339.23) rotate(45)"/><rect class="cls-5" x="760.39" y="629.12" width="66.27" height="21.33" rx="10.67" transform="translate(744.39 -314.15) rotate(45)"/><rect class="cls-5" x="770.89" y="700.12" width="66.27" height="21.33" rx="10.67" transform="translate(797.66 -300.78) rotate(45)"/><rect class="cls-5" x="787.6" y="759.16" width="23.83" height="21.33" rx="10.67" transform="translate(838.09 -280.3) rotate(45)"/><rect class="cls-5" x="756.31" y="792.04" width="31.47" height="21.33" rx="10.67" transform="translate(853.29 -251.25) rotate(45)"/><rect class="cls-5" x="699.63" y="790.52" width="36.95" height="21.33" rx="10.67" transform="translate(836.42 -213.54) rotate(45)"/><rect class="cls-5" x="629.4" y="786.92" width="52.21" height="21.33" rx="10.67" transform="translate(815.53 -170.34) rotate(45)"/><rect class="cls-5" x="514.94" y="699.57" width="79.54" height="21.33" rx="10.67" transform="translate(724.25 -124.65) rotate(45)"/><rect class="cls-5" x="371.46" y="641.05" width="52.07" height="21.33" rx="10.67" transform="translate(636.83 -30.62) rotate(45)"/><rect class="cls-5" x="360.07" y="696.89" width="44.49" height="21.33" rx="10.67" transform="translate(671.86 -3.53) rotate(45)"/><rect class="cls-5" x="421.01" y="714.95" width="42.07" height="21.33" rx="10.67" transform="translate(702.12 -40.48) rotate(45)"/><rect class="cls-5" x="436.12" y="587.98" width="60.26" height="21.33" rx="10.67" transform="translate(619.43 -94.78) rotate(45)"/><rect class="cls-5" x="563.64" y="564.41" width="66" height="21.33" rx="10.67" transform="translate(640.96 -193.88) rotate(45)"/><rect class="cls-5" x="672.65" y="552.38" width="84.17" height="21.33" rx="10.67" transform="translate(667.04 -280.92) rotate(45)"/><rect class="cls-5" x="618.73" y="578.42" width="104.1" height="21.33" rx="10.67" transform="translate(672.58 -242.21) rotate(45)"/><rect class="cls-5" x="657.11" y="718.67" width="114.63" height="21.33" rx="10.67" transform="translate(784.54 -231.99) rotate(45)"/><rect class="cls-5" x="483.89" y="582.78" width="95.08" height="21.33" rx="10.67" transform="translate(634.85 -142.39) rotate(45)"/><rect class="cls-5" x="594.15" y="660.94" width="60.19" height="21.33" rx="10.67" transform="translate(717.3 -185.13) rotate(45)"/><rect class="cls-5" x="739.51" y="711.03" width="49.12" height="21.33" rx="10.67" transform="translate(793.67 -269.33) rotate(45)"/><rect class="cls-5" x="735.33" y="645.31" width="31.56" height="21.33" rx="10.67" transform="translate(743.4 -279.42) rotate(45)"/><rect class="cls-5" x="643.63" y="635.81" width="31.56" height="21.33" rx="10.67" transform="translate(709.83 -217.36) rotate(45)"/><rect class="cls-5" x="674.63" y="735.31" width="31.56" height="21.33" rx="10.67" transform="translate(789.27 -210.14) rotate(45)"/><rect class="cls-5" x="596.53" y="752.31" width="31.56" height="21.33" rx="10.67" transform="translate(778.41 -149.94) rotate(45)"/><rect class="cls-5" x="498.56" y="632.06" width="27.97" height="21.33" rx="10.67" transform="translate(664.17 -114.61) rotate(45)"/><rect class="cls-5" x="435.16" y="619.33" width="27.97" height="21.33" rx="10.67" transform="translate(636.6 -73.51) rotate(45)"/><rect class="cls-5" x="496.66" y="770.28" width="27.97" height="21.33" rx="10.67" transform="translate(761.34 -72.78) rotate(45)"/><rect class="cls-5" x="28.51" y="533.33" width="27.97" height="21.33" rx="10.67" transform="translate(456.68 188.85) rotate(45)"/><rect class="cls-5" x="28.47" y="281.54" width="56.54" height="21.33" rx="10.67" transform="translate(282.81 105.03) rotate(45)"/><rect class="cls-5" x="35.76" y="273.96" width="147.88" height="21.33" rx="10.67" transform="translate(292.96 65.36) rotate(45)"/><rect class="cls-5" x="-37.67" y="243.27" width="64.04" height="21.33" rx="10.67" transform="translate(237.47 137.94) rotate(45)"/><rect class="cls-5" x="763.88" y="293.72" width="67.14" height="21.33" rx="10.67" transform="translate(508.37 -415.17) rotate(45)"/><rect class="cls-5" x="691.96" y="78.57" width="21.33" height="21.33" rx="10.67"/><rect class="cls-5" x="691.96" y="120.23" width="21.33" height="21.33" rx="10.67"/><rect class="cls-5" x="789.46" y="296.35" width="21.33" height="21.33" rx="10.67"/><rect class="cls-5" x="848.9" y="226.85" width="21.33" height="21.33" rx="10.67"/><rect class="cls-5" x="847.9" y="150.23" width="21.33" height="21.33" rx="10.67"/><rect class="cls-5" x="378.57" y="130.9" width="21.33" height="21.33" rx="10.67"/><rect class="cls-5" x="448.9" y="99.9" width="21.33" height="21.33" rx="10.67"/><rect class="cls-5" x="382.57" y="269.4" width="21.33" height="21.33" rx="10.67"/><rect class="cls-5" x="336.07" y="385.17" width="21.33" height="21.33" rx="10.67"/><rect class="cls-5" x="238.4" y="400.67" width="21.33" height="21.33" rx="10.67"/><rect class="cls-5" x="146.73" y="421.01" width="21.33" height="21.33" rx="10.67"/><rect class="cls-5" x="57.23" y="487.07" width="21.33" height="21.33" rx="10.67"/><rect class="cls-5" x="226.4" y="510.97" width="21.33" height="21.33" rx="10.67"/><rect class="cls-5" x="255.4" y="489.07" width="21.33" height="21.33" rx="10.67"/><rect class="cls-5" x="391.22" y="524.07" width="21.33" height="21.33" rx="10.67"/><rect class="cls-5" x="441.22" y="451.07" width="21.33" height="21.33" rx="10.67"/><rect class="cls-5" x="227.73" y="549.9" width="21.33" height="21.33" rx="10.67"/><rect class="cls-5" x="132.23" y="613.4" width="21.33" height="21.33" rx="10.67"/><rect class="cls-5" x="43.57" y="584.53" width="21.33" height="21.33" rx="10.67"/><rect class="cls-5" x="80.73" y="731.4" width="21.33" height="21.33" rx="10.67"/><rect class="cls-5" x="258.73" y="694.9" width="21.33" height="21.33" rx="10.67"/><rect class="cls-5" x="132.23" y="722.9" width="21.33" height="21.33" rx="10.67"/><rect class="cls-5" x="49.17" y="819.87" width="21.33" height="21.33" rx="10.67"/><rect class="cls-5" x="107.23" y="830.4" width="21.33" height="21.33" rx="10.67"/><rect class="cls-5" x="73.23" y="851.73" width="21.33" height="21.33" rx="10.67"/><rect class="cls-5" x="152.57" y="854.73" width="21.33" height="21.33" rx="10.67"/><rect class="cls-5" x="216.07" y="847.4" width="21.33" height="21.33" rx="10.67"/><rect class="cls-5" x="237.4" y="796.9" width="21.33" height="21.33" rx="10.67"/><rect class="cls-5" x="349.9" y="791.4" width="21.33" height="21.33" rx="10.67"/><rect class="cls-5" x="385.4" y="703.57" width="21.33" height="21.33" rx="10.67"/><rect class="cls-5" x="442.4" y="616.57" width="21.33" height="21.33" rx="10.67"/><rect class="cls-5" x="526.4" y="598.07" width="21.33" height="21.33" rx="10.67"/><rect class="cls-5" x="583.4" y="548.9" width="21.33" height="21.33" rx="10.67"/><rect class="cls-5" x="620.22" y="714.23" width="21.33" height="21.33" rx="10.67"/><rect class="cls-5" x="661.22" y="772.73" width="21.33" height="21.33" rx="10.67"/><rect class="cls-5" x="508.72" y="833.73" width="21.33" height="21.33" rx="10.67"/><rect class="cls-5" x="655.22" y="668.23" width="21.33" height="21.33" rx="10.67"/><rect class="cls-5" x="767.88" y="727.9" width="21.33" height="21.33" rx="10.67"/><rect class="cls-5" x="806.22" y="600.57" width="21.33" height="21.33" rx="10.67"/><rect class="cls-5" x="783.22" y="529.57" width="21.33" height="21.33" rx="10.67"/><rect class="cls-5" x="699.55" y="468.9" width="21.33" height="21.33" rx="10.67"/><rect class="cls-5" x="617.22" y="465.73" width="21.33" height="21.33" rx="10.67"/><rect class="cls-5" x="783.22" y="448.9" width="21.33" height="21.33" rx="10.67"/><rect class="cls-5" x="823.88" y="455.07" width="21.33" height="21.33" rx="10.67"/><rect class="cls-5" x="854.55" y="413.4" width="21.33" height="21.33" rx="10.67"/><rect class="cls-5" x="857.22" y="487.07" width="21.33" height="21.33" rx="10.67"/><rect class="cls-5" x="704.72" y="553.23" width="21.33" height="21.33" rx="10.67"/></g></g></svg>