<svg xmlns="http://www.w3.org/2000/svg" xmlns:xlink="http://www.w3.org/1999/xlink" viewBox="0 0 418.1 350"><defs><style>.cls-1{fill:#090b0c;}.cls-2{fill:#edf0f0;}.cls-3{fill:#44b39c;}.cls-4{fill:url(#linear-gradient);}.cls-5{fill:url(#linear-gradient-2);}.cls-6{fill:#2b424f;}.cls-7{fill:#3c5867;}.cls-8{fill:#d37533;}.cls-9{fill:#f79449;}.cls-10,.cls-13{fill:#fff;}.cls-11{fill:#dbdddd;}.cls-12,.cls-13{opacity:0.5;}</style><linearGradient id="linear-gradient" x1="15.32" y1="-695.83" x2="15.32" y2="-754.29" gradientTransform="translate(242.5 1041)" gradientUnits="userSpaceOnUse"><stop offset="0" stop-color="#fff" stop-opacity="0"/><stop offset="1" stop-color="#010101" stop-opacity="0.5"/></linearGradient><linearGradient id="linear-gradient-2" x1="-33.39" y1="-695.83" x2="-33.39" y2="-754.33" xlink:href="#linear-gradient"/></defs><title>website-design</title><g id="Layer_2" data-name="Layer 2"><g id="Layer_1-2" data-name="Layer 1"><rect class="cls-1" x="150.43" y="345.14" width="117.12" height="4.86"/><path class="cls-2" d="M0,228.51v37.54a20.66,20.66,0,0,0,20.71,20.71H170c-.25,4.37-.5,8.23-.75,11.73.25-3.5.5-7.36.75-11.73H394.53c11.47,0,23.45-9.23,23.45-20.71V228.51C411.12,228.39,0,228.51,0,228.51ZM208.93,272a14.47,14.47,0,1,1,14.47-14.47A14.33,14.33,0,0,1,208.93,272Z"/><path class="cls-2" d="M150.55,343.14c.25,0,0,2.12,0,2.12S150.8,343.14,150.55,343.14Z"/><path class="cls-2" d="M167.14,318.07c.38-2.75.87-6.11,1.25-10.23C168,312,167.52,315.32,167.14,318.07Z"/><path class="cls-2" d="M0,25.82v0Z"/><path class="cls-2" d="M168.39,307.84c.25-2.74.5-5.86.87-9.35C168.89,301.85,168.64,305,168.39,307.84Z"/><path class="cls-3" d="M253.83,328.67s5.74,14.47,13.72,14.47c-8,0-13.72-14.47-13.72-14.47s-4-7.48-5.74-41.91h0C249.84,321.19,253.83,328.67,253.83,328.67Z"/><path class="cls-4" d="M253.83,328.67s5.74,14.47,13.72,14.47c-8,0-13.72-14.47-13.72-14.47s-4-7.48-5.74-41.91h0C249.84,321.19,253.83,328.67,253.83,328.67Z"/><path class="cls-2" d="M253.83,328.67s-4-7.48-5.74-41.91H170c-.25,4.37-.5,8.23-.75,11.73s-.5,6.61-.87,9.35c-.38,4.12-.87,7.48-1.25,10.23-1.25,8.23-2.24,10.6-2.24,10.6s-6,14.47-14.22,14.47c.25,0,0,2.12,0,2.12H267.55s-.25-2.12,0-2.12C259.57,343.14,253.83,328.67,253.83,328.67Z"/><path class="cls-5" d="M253.83,328.67s-4-7.48-5.74-41.91H170c-.25,4.37-.5,8.23-.75,11.73s-.5,6.61-.87,9.35c-.38,4.12-.87,7.48-1.25,10.23-1.25,8.23-2.24,10.6-2.24,10.6s-6,14.47-14.22,14.47c.25,0,0,2.12,0,2.12H267.55s-.25-2.12,0-2.12C259.57,343.14,253.83,328.67,253.83,328.67Z"/><path class="cls-6" d="M397.4,0H20.71A20.66,20.66,0,0,0,0,20.71v207.8s411.24-.12,418,0h.12V20.58A20.63,20.63,0,0,0,397.4,0Zm-3.74,204.19c-.88,0-369.34.25-369.59,0V24.07s369.59.13,369.59,0Z"/><circle class="cls-6" cx="208.93" cy="257.57" r="14.47"/><path class="cls-7" d="M24.07,24.07V204.19c.13.25,368.71,0,369.59,0V24.07C393.78,24.2,24.07,24.07,24.07,24.07Z"/><path class="cls-8" d="M393.66,200.78c0,1.94-2.62,3.5-5.87,3.5H29.94c-3.25,0-5.87-1.56-5.87-3.5V47.16H393.66Z"/><path class="cls-9" d="M393.66,196c0,1.95-2.62,3.51-5.87,3.51H29.94c-3.25,0-5.87-1.56-5.87-3.51V42.38H393.66Z"/><path class="cls-10" d="M393.66,28.19c0-2.28-2.62-4.12-5.87-4.12H29.94c-3.25,0-5.87,1.84-5.87,4.12V42.6H393.66Z"/><path class="cls-11" d="M370.09,36.15c0,.89-1.1,1.67-2.54,1.67H61c-1.35,0-2.54-.73-2.54-1.67V30.81c0-.89,1.1-1.67,2.54-1.67H367.55c1.35,0,2.54.72,2.54,1.67v5.34Z"/><circle class="cls-11" cx="33.64" cy="33.48" r="2.73"/><circle class="cls-11" cx="41.43" cy="33.48" r="2.73"/><circle class="cls-11" cx="48.84" cy="33.48" r="2.73"/><g class="cls-12"><rect class="cls-10" x="64.19" y="74.2" width="107.56" height="6.45"/><rect class="cls-10" x="64.19" y="88.33" width="77.85" height="6.45"/><rect class="cls-10" x="64.19" y="120.55" width="177.9" height="6.45"/><rect class="cls-10" x="64.19" y="134.63" width="177.9" height="6.45"/><rect class="cls-10" x="64.19" y="148.71" width="177.9" height="6.45"/><rect class="cls-10" x="64.19" y="161.39" width="177.9" height="6.45"/></g><path class="cls-11" d="M386.54,30a1,1,0,0,1-.94,1H378a1,1,0,0,1-.94-1h0A1,1,0,0,1,378,29h7.63a1,1,0,0,1,.94.94Z"/><path class="cls-11" d="M386.49,36.7a1,1,0,0,1-.95.95h-7.62a1,1,0,0,1-.95-.95h0a1,1,0,0,1,.95-.94h7.62a1,1,0,0,1,.95.94Z"/><path class="cls-11" d="M386.54,33.37a1,1,0,0,1-.94.94H378a1,1,0,0,1-.94-.94h0a1,1,0,0,1,.94-.95h7.63a.93.93,0,0,1,.94.95Z"/><rect class="cls-13" x="272.51" y="74.2" width="97.58" height="93.65"/></g></g></svg>