<svg xmlns="http://www.w3.org/2000/svg" viewBox="0 0 800.47 202.14"><defs><style>.cls-1{opacity:0.8;}.cls-2{fill:#fff;}.cls-3{fill:none;}</style></defs><title>woo</title><g id="Layer_2" data-name="Layer 2"><g id="Layer_1-2" data-name="Layer 1"><g class="cls-1"><path class="cls-2" d="M179.36,180.14c-6.7-3.7-12.85-7.07-19-10.48-4.59-2.55-9.16-5.16-13.73-7.74-4.3-2.42-8.6-4.86-12.92-7.25a3.74,3.74,0,0,0-1.76-.45c-34.11,0-68.21-.08-102.3.14-12.27.08-24.47-9.8-24.55-24.28C5,102.27,5,74.45,5.12,46.64c0-7.22,2.52-13.62,8.11-18.38A24.76,24.76,0,0,1,29.73,22q48.8.06,97.59,0c40,0,80-.06,120,0,10.86,0,18.73,5.23,23,15.23a23.38,23.38,0,0,1,1.74,8.91q.19,41.85.05,83.68a24,24,0,0,1-24.29,24.37c-25.3.1-50.6.05-75.9.05-2.93,0-3.07.16-2,2.88C173,164.64,176.07,172.1,179.36,180.14Zm64.31-56.87,0,0c.81-.93,1.67-1.82,2.41-2.8a64.08,64.08,0,0,0,5-6.9c6.39-11.38,9.26-23.53,7.77-36.62A39.84,39.84,0,0,0,253,59.69c-9.07-14.25-31.64-16.76-43.71-2.35-11.72,14-16,30.09-12.88,48,1.44,8.24,5,15.6,12.1,20.56,8.79,6.13,21.58,7.26,31.46.2C241.19,125.19,242.42,124.21,243.67,123.27ZM97,98.83l-.6.11c-1.84-6.07-3.85-12.08-5.47-18.2-1.78-6.74-3.09-13.6-4.81-20.36a7.65,7.65,0,0,0-6.27-6c-3.48-.61-6.31.75-8.5,3.47a13.8,13.8,0,0,0-1.49,2.1Q64.38,70.2,59,80.49c-4.37,8.31-8.71,16.64-13.24,25.3-.45-1.81-.86-3.23-1.13-4.67q-4.93-26.52-9.84-53c-.46-2.48-1.22-4.95-3.59-6.27a10.51,10.51,0,0,0-11.38.36C16.31,44.44,15.3,48,16,52.07c.67,3.86,1.21,7.74,2,11.57C21.58,82,25,100.42,29,118.71c1.53,7,3.39,14,7.22,20.28,2.47,4,6,5.1,9.61,2.11a34,34,0,0,0,8-9.07c5.3-9.34,10-19,15-28.51,1.74-3.35,3.45-6.71,5.32-10.36,2,5.52,3.65,10.66,5.68,15.64,4.73,11.65,10.79,22.48,20,31.29a9.24,9.24,0,0,0,11.42,1.17c2.9-2,3.36-5.16,3.54-8.28.15-2.42-.37-4.88-.21-7.29.65-9.47,1.1-19,2.27-28.37,2.06-16.57,4.65-33,12-48.36,2.26-4.71-.25-9.88-5-12.19-3.69-1.78-10-1.29-12.33,3.85a144.81,144.81,0,0,0-6.69,16.49C100.59,70.69,98.47,84.71,97,98.83Zm93.47-17.37a43.12,43.12,0,0,0-3-15.68c-7.56-19.87-32.36-24-45.57-9.68-14.36,15.59-18.38,34.1-12.76,54.35,3.3,11.91,11.64,19,24.14,20.32,9.58,1,17.54-2.64,23.75-9.89C186.27,110.07,190.41,97.37,190.48,81.46ZM171,173.52l0,.18.17,0Z"/><path class="cls-2" d="M430.3,126.19h-19c3.18-24.86,6.34-49.62,9.52-74.53,8.26,0,16.26,0,24.27.09.56,0,1.43,1.25,1.6,2,2,9.11,3.9,18.25,5.79,27.38.73,3.52,1.39,7.06,2.49,10.66C455.5,88.9,456,86,456.66,83c2.2-10,4.41-19.9,6.71-29.82a2.31,2.31,0,0,1,1.59-1.5c8.16-.1,16.33-.07,24.82-.07,3.36,24.86,6.7,49.61,10.07,74.52H479.93c-1.76-16.62-3.52-33.12-5.27-49.63l-.43,0L468,102c-1.81,7.38-3.65,14.76-5.38,22.16-.36,1.54-.9,2.23-2.63,2.14a88,88,0,0,0-9.19,0c-1.91.11-2.53-.69-3-2.4Q442,100.56,436,77.22c-.05-.22-.15-.43-.63-.67C433.67,93,432,109.48,430.3,126.19Z"/><path class="cls-2" d="M554.78,51.65c8.57,0,16.74,0,24.9.07.49,0,1.33,1,1.42,1.58,1.47,10.41,2.86,20.83,4.26,31.25q2.71,20.3,5.41,40.59c0,.23,0,.47,0,1-.67.06-1.33.18-2,.18-5.19,0-10.37-.08-15.56.07-1.91.05-2.33-.67-2.5-2.39-1.54-15.38-3.16-30.75-4.77-46.13a2,2,0,0,0-.64-1.32l-12,49.79c-4.24,0-8.38.06-12.52-.07-.53,0-1.33-1-1.5-1.64q-6-23.32-11.88-46.7a3,3,0,0,0-.84-1.54q-.72,7-1.43,14c-1.14,11.4-2.25,22.8-3.46,34.19-.06.62-.86,1.64-1.34,1.65-5.87.11-11.75.07-17.85.07.67-5.32,1.31-10.43,2-15.53q2.06-16.11,4.11-32.23c1.08-8.48,2.15-17,3.34-25.42a2.39,2.39,0,0,1,1.81-1.39c7.31-.09,14.61,0,21.92-.09,1.53,0,2,.59,2.25,2,2.44,12.07,5,24.11,7.46,36.17.14.66.31,1.32.55,2.31Z"/><path class="cls-2" d="M344,88.06c.27-8.38,1.28-16.49,5.54-23.89,5.21-9,13.24-13.72,23.45-14.35a47.63,47.63,0,0,1,13.52,1.12c10.15,2.32,16.83,8.93,20.12,18.66a58,58,0,0,1-.15,38.6c-4.73,13.44-15.35,20.27-29.79,20-17.3-.35-28.39-9.88-31.25-27C344.71,96.83,344.46,92.42,344,88.06Zm44.61.38c-.37-6.68-1.48-12.69-3.4-16.32-1.78-3.37-4.43-5.42-8.38-5.48-4.76-.07-8.18,2.59-9.64,8.3a59.27,59.27,0,0,0,.08,29.08c1.34,5.46,6.14,8.07,11.63,6.88a9.36,9.36,0,0,0,7.44-7.65C387.37,98.37,387.87,93.38,388.6,88.44Z"/><path class="cls-2" d="M663.65,126.15h-20.1V51.87a4.53,4.53,0,0,1,1-.2c9.34.1,18.7,0,28,.4,7,.31,13.44,2.49,18.68,7.38a20.18,20.18,0,0,1-3.38,32l-2.37,1.4c5.29,11.1,10.55,22.1,16,33.5H696c-4.55,0-9.11-.07-13.67,0a2.85,2.85,0,0,1-3-1.94c-4.66-9.85-9.4-19.67-14.12-29.49A4.64,4.64,0,0,0,663.65,93Zm0-60.34V84a69.84,69.84,0,0,0,7.76-1.41c3.64-1.08,5.39-3.51,5.44-6.83.06-4.22-1.77-7.35-5.4-8.48A70.65,70.65,0,0,0,663.65,65.81Z"/><path class="cls-2" d="M634.64,96.8H617.17v13.67H637.5v15.84H596.93V52h40.42V67.53H617.17V81.24h17.47Z"/><path class="cls-2" d="M795.37,67.62H775V81.25h17.47V96.72H775v13.67h20.41v15.66h-40.6V51.81h40.53Z"/><path class="cls-2" d="M748.94,51.25V68.86C738.52,66,728.66,65.78,722.8,76.7c-4.62,8.61-4.49,17.76,1,25.93,6.23,9.21,15.52,8.69,25.09,6.12v17.47c-11.25,4.2-30.61,2.28-41.69-11.29-10.82-13.25-11.93-35.28-2.33-49.17C715.51,50.42,733.71,47.23,748.94,51.25Z"/><path class="cls-2" d="M339.91,68.81c-8.44-2-16.59-3.29-23.26,3.75-4.95,5.23-6.29,11.69-5.62,18.54a25.35,25.35,0,0,0,2.65,9.63,18.81,18.81,0,0,0,6.69,7,22.46,22.46,0,0,0,9.59,2.54c3.19.21,6.46-.72,9.92-1.18,0,5.45,0,10.93-.07,16.41,0,.48-.89,1.24-1.48,1.38-20.17,5-42.41-4.45-47.69-27.48-2.64-11.52-1.95-22.74,4.74-32.81,8.82-13.31,21.81-18,37.28-16.64,2.32.2,5.44.1,6.67,1.49s.52,4.44.56,6.77C340,61.62,339.91,65.05,339.91,68.81Z"/><path class="cls-2" d="M243.67,123.27l0,0Z"/><path class="cls-2" d="M214.39,94.29A36.12,36.12,0,0,1,223.05,71a14.59,14.59,0,0,1,3.39-2.87c3.9-2.4,8.25-1.48,10.17,2.67a33.27,33.27,0,0,1,3.22,10.94c.71,8.58-1,16.8-6.59,23.65a22.58,22.58,0,0,1-6.37,5c-3.17,1.77-6.12.83-8.21-2.15C215.62,104,214.64,99,214.39,94.29Z"/><path class="cls-2" d="M171.34,84.44c-.2,7.59-1.77,14.78-6.66,20.84a21.9,21.9,0,0,1-5.06,4.49c-4.25,2.74-8.21,1.6-10.62-2.89a28.15,28.15,0,0,1-2.92-16.66,33.55,33.55,0,0,1,9.19-20.16c4.77-5,10.7-4,13.56,2.28A26.78,26.78,0,0,1,171.34,84.44Z"/></g><rect class="cls-3" width="800.47" height="202.14"/></g></g></svg>