<svg xmlns="http://www.w3.org/2000/svg" viewBox="0 0 315.69 396.7"><defs><style>.cls-1{fill:#666;}.cls-2{fill:#5b5b5b;}.cls-3{fill:#f79449;}.cls-4{fill:#fff;}.cls-5{fill:#e28444;}</style></defs><title>wordpress-optimised</title><g id="Layer_2" data-name="Layer 2"><g id="Layer_1-2" data-name="Layer 1"><polygon class="cls-1" points="158.07 347.27 213.09 396.23 212.06 171.91 157.39 172.17 158.07 347.27"/><polygon class="cls-2" points="158.07 347.27 103.63 396.7 102.61 172.39 157.39 172.17 158.07 347.27"/><rect class="cls-3" x="40.88" y="40.88" width="233.93" height="233.93" rx="22.68"/><path class="cls-4" d="M252.13,42.74A20.84,20.84,0,0,1,273,63.56V252.13A20.84,20.84,0,0,1,252.13,273H63.56a20.84,20.84,0,0,1-20.82-20.82V63.56A20.84,20.84,0,0,1,63.56,42.74H252.13m0-3.72H63.56A24.62,24.62,0,0,0,39,63.56V252.13a24.61,24.61,0,0,0,24.54,24.54H252.13a24.61,24.61,0,0,0,24.54-24.54V63.56A24.61,24.61,0,0,0,252.13,39Z"/><path class="cls-3" d="M157.85,313.84a22.49,22.49,0,0,1-16-6.62L8.47,173.88a22.75,22.75,0,0,1,0-32.07L141.81,8.47a22.75,22.75,0,0,1,32.07,0L307.22,141.81a22.73,22.73,0,0,1,0,32.07L173.88,307.22A22.49,22.49,0,0,1,157.85,313.84Z"/><path class="cls-4" d="M157.85,3.71a20.67,20.67,0,0,1,14.72,6.07L305.91,143.12a20.85,20.85,0,0,1,0,29.45L172.57,305.91a20.9,20.9,0,0,1-29.45,0L9.78,172.57a20.85,20.85,0,0,1,0-29.45L143.12,9.78a20.68,20.68,0,0,1,14.73-6.07m0-3.71a24.51,24.51,0,0,0-17.36,7.16L7.16,140.49a24.61,24.61,0,0,0,0,34.71L140.49,308.53a24.61,24.61,0,0,0,34.71,0L308.53,175.2a24.61,24.61,0,0,0,0-34.71L175.2,7.16A24.47,24.47,0,0,0,157.85,0Z"/><path class="cls-5" d="M6.14,157.85a26.49,26.49,0,0,0,7.77,18.85L139,301.78a26.43,26.43,0,0,0,18.85,7.78V6.14A26.46,26.46,0,0,0,139,13.91L13.91,139A26.46,26.46,0,0,0,6.14,157.85Z"/><path class="cls-4" d="M56.64,224.68H259.05l45.36-45.36a30.46,30.46,0,0,0,0-42.95L259.05,91H56.64L11.28,136.37a30.46,30.46,0,0,0,0,42.95Z"/><g id="Star"><polygon class="cls-4" points="165.76 256.74 159.94 255.64 157.07 250.55 154.21 255.64 148.38 256.74 152.43 260.99 151.7 266.77 157.07 264.3 162.44 266.77 161.7 260.99 165.76 256.74"/></g><g id="Star-2" data-name="Star"><polygon class="cls-4" points="165.76 50.04 159.94 48.94 157.07 43.85 154.21 48.94 148.38 50.04 152.43 54.29 151.7 60.06 157.07 57.59 162.44 60.06 161.7 54.29 165.76 50.04"/></g><path class="cls-1" d="M151,160.9c.07,1.57.07,3.14.25,4.7s.91,2,2.38,2.15l1.17.09v1H143.27v-1a15.69,15.69,0,0,0,1.71-.19c1.26-.25,1.86-1,1.94-2.61s.1-3.36.1-5c0-2.12,0-4.24-.08-6.36-.09-2.29-.72-2.89-3-3.07l-.7-.08a3.88,3.88,0,0,1,0-.42c0-.18,0-.36,0-.6l.78,0c3.07,0,6.15,0,9.22,0a11.29,11.29,0,0,1,4.77.87,5.11,5.11,0,0,1,.28,9.45,23,23,0,0,1-2.33.89.1.1,0,0,0,0,.09c1.62,1.7,3.18,3.47,4.89,5.07a6.64,6.64,0,0,0,5.52,1.92,2.25,2.25,0,0,0,2.27-2,12.29,12.29,0,0,0,.18-2q0-5,0-9.93a6.48,6.48,0,0,0-.16-1.23,2.12,2.12,0,0,0-2.1-1.91c-.46-.06-.92-.08-1.43-.11v-1a2.42,2.42,0,0,1,.33,0c4.08,0,8.17,0,12.24.17a10.48,10.48,0,0,1,7.8,3.61c3.26,3.83,3.18,12.6-4.77,14.9a21.63,21.63,0,0,1-5.5.74c-5.32.1-10.65,0-16,.05a1.33,1.33,0,0,1-1.17-.56c-1.86-2.36-3.75-4.69-5.6-7.05A1.15,1.15,0,0,0,151,160.9Zm21.9-9.74c0,1.53,0,2.89,0,4.25,0,3.28,0,6.56.07,9.84,0,1.3.59,1.81,1.87,1.86.54,0,1.09,0,1.63,0a6.14,6.14,0,0,0,6.12-5,12.49,12.49,0,0,0,0-5.83,5.83,5.83,0,0,0-5.16-4.85C176,151.19,174.49,151.23,172.88,151.16Zm-21.78.12v7.64a29.58,29.58,0,0,0,3.13,0c1.82-.21,2.93-1.63,3-3.65s-1-3.69-2.85-3.94A25.38,25.38,0,0,0,151.1,151.28Z"/><path class="cls-1" d="M245.09,154.38h1V163h-1c0-.46-.08-.94-.14-1.42a1.69,1.69,0,0,0-1.56-1.74c-1-.17-2.13-.2-3.38-.31.1,2,.12,3.82.31,5.63a1.81,1.81,0,0,0,1.93,1.86,38.21,38.21,0,0,0,5.24-.12c1.58-.14,2.11-1.38,2.43-2.74.17-.71.2-.7,1-.65-.11,1.79-.23,3.57-.35,5.45h-.89c-7.44,0-14.88,0-22.33,0a1.39,1.39,0,0,1-1.23-.59c-1.85-2.36-3.74-4.68-5.59-7a1.16,1.16,0,0,0-1.52-.39c.11,1.67.14,3.39.36,5.09.15,1.1.92,1.6,2.09,1.73.44.05.87.07,1.36.11v1H211.4v-1l1.06-.08c1.67-.13,2.44-.83,2.55-2.52s.14-3.31.14-5c0-2.25,0-4.5-.11-6.74s-.73-2.78-2.94-2.95l-.72-.08v-1h.74c3.11,0,6.21,0,9.31,0a11.26,11.26,0,0,1,4.69.86,5.11,5.11,0,0,1,.18,9.52,22.64,22.64,0,0,1-2.3.85c1.94,2,3.57,4.25,5.88,5.83a5.81,5.81,0,0,0,3.68,1.22,2.28,2.28,0,0,0,2.39-2.17,11.09,11.09,0,0,0,.15-1.62c0-3.18,0-6.36,0-9.54a9.58,9.58,0,0,0-.22-1.92,2.11,2.11,0,0,0-2.08-1.85c-.46,0-.92-.07-1.36-.1-.24-1-.2-1.08.76-1.08h16.25c.15,1.82.28,3.6.42,5.4-.6.2-.91.13-1.08-.55-.62-2.4-1.38-3-3.86-3.05-1.48,0-3,0-4.42,0a1.75,1.75,0,0,0-.34.06v6.6c1.24-.15,2.44-.23,3.61-.46a1.57,1.57,0,0,0,1.18-1.56C245,155.38,245.05,154.9,245.09,154.38Zm-25.88-3.09V159c.25,0,.45,0,.65,0,.82,0,1.65,0,2.47-.1a3.48,3.48,0,0,0,3-3.7,3.55,3.55,0,0,0-2.82-3.89A24.6,24.6,0,0,0,219.21,151.29Z"/><path class="cls-1" d="M84.17,144.71v-1H97.05v1c-.62.07-1.24.11-1.84.21a1.84,1.84,0,0,0-1.73,2.35,7.27,7.27,0,0,0,.17.91c.11.42.23.85.37,1.26,1.25,3.82,2.51,7.64,3.83,11.66.16-.39.26-.61.34-.83q2.66-7.94,5.32-15.85c.14-.41.2-.8.83-.8s.68.44.81.83l5.16,15.66c.1.29.21.57.38,1,.9-2.66,1.76-5.17,2.59-7.68.65-2,1.34-4,1.88-6,.41-1.54-.25-2.35-1.83-2.56-.54-.07-1.08-.11-1.67-.18v-1h10.83v1l-1.56.17a3.57,3.57,0,0,0-3.08,2,30.42,30.42,0,0,0-1.5,3.65c-2.09,6.21-4.15,12.43-6.23,18.64-.08.25-.22.57-.42.65-.51.21-.63-.22-.76-.6q-2.18-6.7-4.36-13.39a38.12,38.12,0,0,0-1.47-4l-.27.77q-2.73,8.26-5.49,16.52c-.1.28-.4.5-.6.74-.21-.24-.52-.45-.61-.72C94,162.59,91.85,156,89.7,149.44a19.68,19.68,0,0,0-.82-2.09,3.87,3.87,0,0,0-3.51-2.51C85,144.82,84.61,144.76,84.17,144.71Z"/><path class="cls-1" d="M28.94,156.25a26.28,26.28,0,1,1,26.29,26.26A26.3,26.3,0,0,1,28.94,156.25Zm1.58,0a24.71,24.71,0,1,0,24.73-24.72A24.66,24.66,0,0,0,30.52,156.25Z"/><path class="cls-1" d="M197.15,158.05c.17,2.51.23,4.93.53,7.32.2,1.53,1.2,2.17,2.95,2.34.38,0,.77,0,1.23,0v1.14H188.6v-1c.6-.07,1.21-.13,1.81-.21a2.64,2.64,0,0,0,2.41-2.27,14.41,14.41,0,0,0,.31-2.69c0-4.26,0-8.53,0-12.79a12.66,12.66,0,0,0-.26-2.38c-.36-1.78-1.06-2.39-2.86-2.62l-1.43-.15v-1a3.47,3.47,0,0,1,.48-.07c4.24,0,8.48,0,12.72.06a9.51,9.51,0,0,1,5.19,1.58,6.65,6.65,0,0,1-.81,11.57,12.7,12.7,0,0,1-5.78,1.2Zm.2-2.24c1.46,0,2.88.11,4.28,0a3.83,3.83,0,0,0,3.48-3,8.41,8.41,0,0,0,.26-2.74,4.17,4.17,0,0,0-3.25-4.13,39.38,39.38,0,0,0-4.77-.33Z"/><path class="cls-1" d="M130.71,169.68c-4-.13-7.13-1.41-9.54-4.29a9.51,9.51,0,0,1,.11-12.56A12.54,12.54,0,0,1,139,152a9.75,9.75,0,0,1-1.17,15.41A12.6,12.6,0,0,1,130.71,169.68Zm7.12-10.54.21,0a35.06,35.06,0,0,0-1.07-4.24,6.37,6.37,0,0,0-5.73-4.31,6.51,6.51,0,0,0-6.27,2.75A11.1,11.1,0,0,0,125,165a7,7,0,0,0,11.35-.2A10.11,10.11,0,0,0,137.83,159.14Z"/><path class="cls-1" d="M256.65,167.68A6.12,6.12,0,0,0,256,169c-.16.71-.54.85-1.23.66v-7.84c.94-.28,1-.25,1.2.69a6.43,6.43,0,0,0,6.83,5.28c2.05-.12,3.47-1.68,2.92-3.4a4.09,4.09,0,0,0-1.4-1.87,23.24,23.24,0,0,0-3.08-1.74,39.14,39.14,0,0,1-3.9-2.06c-3.13-2.13-3.54-6-1-8.27a6.3,6.3,0,0,1,3.87-1.58c2.06-.14,3.13.16,5.32,1.45a5.78,5.78,0,0,0,.52-1.06.6.6,0,0,1,.86-.48.84.84,0,0,1,.39.66c0,1.93,0,3.87,0,5.81a1.36,1.36,0,0,1-.06.29c-1.07.22-1.07.22-1.32-.75-.77-3-2.79-4.49-5.55-4.11a2.72,2.72,0,0,0-2.41,1.89,2.42,2.42,0,0,0,1.27,2.61,14.25,14.25,0,0,0,1.6.94c1.48.74,3,1.42,4.44,2.19a8.91,8.91,0,0,1,2,1.36,5.33,5.33,0,0,1,0,8,7.88,7.88,0,0,1-9.28.9C257.59,168.31,257.19,168,256.65,167.68Z"/><path class="cls-1" d="M274.29,167.65l-1,2h-.91v-7.88c1-.24,1-.24,1.22.73a6.38,6.38,0,0,0,7.61,5.11,2.73,2.73,0,0,0,2.14-1.92,2.55,2.55,0,0,0-.95-2.84,23.06,23.06,0,0,0-2.88-1.79c-1.23-.66-2.53-1.17-3.75-1.84a6,6,0,0,1-3.39-4.45c-.38-2.78,1.46-5.15,4.43-5.78a7.58,7.58,0,0,1,6.23,1.24c.8-.28.37-2,1.84-1.43v6.76h-.88a26.18,26.18,0,0,0-1.65-3.31,4.43,4.43,0,0,0-5.24-1.34,2.21,2.21,0,0,0-.56,4,13.7,13.7,0,0,0,2.31,1.38c1.44.75,2.93,1.41,4.37,2.17a6,6,0,0,1,3.37,4.12,5.6,5.6,0,0,1-2.62,5.85,7.87,7.87,0,0,1-8.9-.17C274.89,168.07,274.66,167.9,274.29,167.65Z"/><path class="cls-1" d="M41.83,146c.8-.06,1.47-.1,2.13-.18.84-.1,1.25-.48,1.16-1.06s-.65-.82-1.28-.79c-1.94.1-3.87.18-5.81.26a7.81,7.81,0,0,1-.94-.05C43.9,133.11,60.26,131,69.8,140a3.77,3.77,0,0,0-3.63,3,4.3,4.3,0,0,0,.32,2.95,20.91,20.91,0,0,0,1.36,2.51A11.87,11.87,0,0,1,69.39,159c-1,3.42-2.09,6.85-3.21,10.51-2.67-7.95-5.27-15.67-7.9-23.49l1.16-.16a4.33,4.33,0,0,0,1.37-.18,1.39,1.39,0,0,0,.72-.91c.06-.51-.33-.85-.9-.83-.85,0-1.7.15-2.55.14-2.71,0-5.42-.07-8.13-.11a3,3,0,0,0-1.07,0,1.5,1.5,0,0,0-.78.79.71.71,0,0,0,.65.95c.64.09,1.29.1,1.92.23a1,1,0,0,1,.64.5c1.06,2.8,2.08,5.61,3.09,8.43a1.32,1.32,0,0,1,0,.81q-2.23,6.8-4.52,13.58c0,.05-.06.08-.18.21Z"/><path class="cls-1" d="M55.61,158.18,62.4,176.8c-3,1.44-8.91,1.86-13.33.41C51.22,170.94,53.38,164.67,55.61,158.18Z"/><path class="cls-1" d="M45.62,175.86a21.82,21.82,0,0,1-10.38-28.43C38.71,157,42.14,166.34,45.62,175.86Z"/><path class="cls-1" d="M66.3,175.05c1.49-4.34,2.94-8.53,4.39-12.72.89-2.56,1.84-5.09,2.67-7.67a25.44,25.44,0,0,0,1-4.19,40.23,40.23,0,0,0,.22-4.17C79.63,154.89,77.28,168.73,66.3,175.05Z"/><path class="cls-3" d="M89.25,115.25a6.79,6.79,0,0,1-1.87,4.91,6.49,6.49,0,0,1-4.86,1.92,6.43,6.43,0,0,1-4.85-1.93,6.81,6.81,0,0,1-1.85-4.9v-2.89a6.76,6.76,0,0,1,1.85-4.89,6.33,6.33,0,0,1,4.82-1.94,6.48,6.48,0,0,1,4.88,1.94,6.75,6.75,0,0,1,1.88,4.89ZM86,112.34a4.86,4.86,0,0,0-.94-3.09,3.12,3.12,0,0,0-2.6-1.2,3,3,0,0,0-2.54,1.2,5,5,0,0,0-.92,3.09v2.91a5,5,0,0,0,.92,3.12,3,3,0,0,0,2.57,1.2,3.08,3.08,0,0,0,2.58-1.2,5,5,0,0,0,.93-3.12Z"/><path class="cls-3" d="M95,116v5.83H91.8V105.76H98a6.35,6.35,0,0,1,4.36,1.41,4.77,4.77,0,0,1,1.59,3.73,4.7,4.7,0,0,1-1.59,3.71A6.35,6.35,0,0,1,98,116Zm0-2.49H98a2.7,2.7,0,0,0,2-.74,2.62,2.62,0,0,0,.7-1.87A2.72,2.72,0,0,0,100,109a2.64,2.64,0,0,0-2-.75H95Z"/><path class="cls-3" d="M117.44,108.25h-4.6v13.6h-3.23v-13.6h-4.53v-2.49h12.36Z"/><path class="cls-3" d="M122.66,121.85h-3.23V105.76h3.23Z"/><path class="cls-3" d="M134.17,117.62h.07l4.13-11.86h4.21v16.09h-3.22v-11l-.07,0-4,11h-2.19l-4-11h-.06v11h-3.23V105.76h4.23Z"/><path class="cls-3" d="M149,121.85h-3.22V105.76H149Z"/><path class="cls-3" d="M160.58,117.65a1.89,1.89,0,0,0-.65-1.49,6.41,6.41,0,0,0-2.27-1.06,12.85,12.85,0,0,1-4.23-2A3.74,3.74,0,0,1,152,110a3.93,3.93,0,0,1,1.62-3.24,6.65,6.65,0,0,1,4.15-1.25,6.51,6.51,0,0,1,4.3,1.35,4.22,4.22,0,0,1,1.58,3.53l0,.07h-3.13a2.37,2.37,0,0,0-.73-1.85,3,3,0,0,0-2-.65,2.66,2.66,0,0,0-1.84.58,1.84,1.84,0,0,0-.65,1.47,1.6,1.6,0,0,0,.7,1.34,9.45,9.45,0,0,0,2.45,1.11,10.5,10.5,0,0,1,4,2,4,4,0,0,1,1.39,3.19,3.83,3.83,0,0,1-1.61,3.26,7,7,0,0,1-4.27,1.19,7.64,7.64,0,0,1-4.46-1.29,4.26,4.26,0,0,1-1.8-3.86l0-.06h3.13a2.53,2.53,0,0,0,.84,2.1,3.51,3.51,0,0,0,2.27.67,3.15,3.15,0,0,0,2-.54A1.76,1.76,0,0,0,160.58,117.65Z"/><path class="cls-3" d="M175.37,114.78h-6v4.6h7.09v2.47H166.18V105.76h10.3v2.49h-7.07v4h6Z"/><path class="cls-3" d="M178.77,121.85V105.76h5.61a6.64,6.64,0,0,1,4.86,1.88,6.49,6.49,0,0,1,1.92,4.84v2.66a6.46,6.46,0,0,1-1.92,4.84,6.64,6.64,0,0,1-4.86,1.87Zm3.22-13.6v11.13h2.39a3.17,3.17,0,0,0,2.57-1.19,4.7,4.7,0,0,0,1-3v-2.68a4.66,4.66,0,0,0-1-3,3.16,3.16,0,0,0-2.57-1.18Z"/><path class="cls-3" d="M208.79,115.17h-6.18v6.68h-3.23V105.76h10.53v2.49h-7.3v4.43h6.18Z"/><path class="cls-3" d="M225,115.25a6.79,6.79,0,0,1-1.87,4.91,6.49,6.49,0,0,1-4.86,1.92,6.39,6.39,0,0,1-4.84-1.93,6.78,6.78,0,0,1-1.86-4.9v-2.89a6.81,6.81,0,0,1,1.85-4.89,6.33,6.33,0,0,1,4.82-1.94,6.46,6.46,0,0,1,4.88,1.94,6.75,6.75,0,0,1,1.88,4.89Zm-3.22-2.91a4.86,4.86,0,0,0-.94-3.09,3.11,3.11,0,0,0-2.6-1.2,3,3,0,0,0-2.54,1.2,5,5,0,0,0-.92,3.09v2.91a5,5,0,0,0,.92,3.12,3,3,0,0,0,2.57,1.2,3.08,3.08,0,0,0,2.58-1.2,5,5,0,0,0,.93-3.12Z"/><path class="cls-3" d="M230.77,115.42v6.43h-3.23V105.76h5.57a6.69,6.69,0,0,1,4.3,1.25,4.25,4.25,0,0,1,1.56,3.5,3.51,3.51,0,0,1-.66,2.14,4.53,4.53,0,0,1-1.92,1.45,3.43,3.43,0,0,1,2.05,1.41,4.39,4.39,0,0,1,.63,2.43v1.18a5.93,5.93,0,0,0,.18,1.41,2,2,0,0,0,.62,1.09v.23h-3.32a1.72,1.72,0,0,1-.57-1.17,9.62,9.62,0,0,1-.13-1.58V118a2.54,2.54,0,0,0-.66-1.87,2.48,2.48,0,0,0-1.86-.67Zm0-2.49h2.29a3.06,3.06,0,0,0,2-.57,2.13,2.13,0,0,0,.66-1.7,2.32,2.32,0,0,0-.67-1.76,2.67,2.67,0,0,0-2-.65h-2.34Z"/><path class="cls-3" d="M98.15,201.54h.06l2.14-10.92h3.32l-3.75,16.09h-3l-3-10.6h-.07l-3,10.6H88l-3.76-16.09h3.33l2.14,10.91h.07l2.89-10.91h2.61Z"/><path class="cls-3" d="M114.58,199.64h-6v4.59h7.1v2.48H105.39V190.62h10.3v2.48h-7.08v4.05h6Z"/><path class="cls-3" d="M118,206.71V190.62h5.27a7.66,7.66,0,0,1,4.43,1.11,3.76,3.76,0,0,1,1.59,3.3,3.58,3.58,0,0,1-.57,2,3.53,3.53,0,0,1-1.68,1.31,3.47,3.47,0,0,1,2.26,1.31,3.88,3.88,0,0,1,.77,2.39,4.16,4.16,0,0,1-1.53,3.5,6.92,6.92,0,0,1-4.32,1.19Zm3.22-9.35h2.16a3.27,3.27,0,0,0,2-.53,1.83,1.83,0,0,0,.69-1.55,1.91,1.91,0,0,0-.7-1.64,3.39,3.39,0,0,0-2.09-.54h-2Zm0,2.23v4.64h3a3,3,0,0,0,2-.55,2,2,0,0,0,.68-1.66,2.37,2.37,0,0,0-.66-1.8,2.82,2.82,0,0,0-2-.63Z"/><path class="cls-3" d="M151,206.71h-3.22V200h-6.56v6.69H138V190.62h3.23v6.92h6.56v-6.92H151Z"/><path class="cls-3" d="M167,200.11a6.77,6.77,0,0,1-1.87,4.9,7.07,7.07,0,0,1-9.71,0,6.81,6.81,0,0,1-1.85-4.9v-2.89a6.76,6.76,0,0,1,1.85-4.89,6.33,6.33,0,0,1,4.82-1.94,6.48,6.48,0,0,1,4.88,1.94,6.75,6.75,0,0,1,1.88,4.89Zm-3.22-2.92a4.83,4.83,0,0,0-.94-3.08,3.12,3.12,0,0,0-2.6-1.2,3,3,0,0,0-2.55,1.2,5,5,0,0,0-.91,3.08v2.92a5,5,0,0,0,.92,3.12,3,3,0,0,0,2.56,1.2,3.09,3.09,0,0,0,2.59-1.2,5,5,0,0,0,.93-3.12Z"/><path class="cls-3" d="M178,202.51a1.87,1.87,0,0,0-.65-1.49,6.41,6.41,0,0,0-2.27-1.06,12.85,12.85,0,0,1-4.23-2,3.76,3.76,0,0,1-1.44-3.11,3.91,3.91,0,0,1,1.62-3.23,7.54,7.54,0,0,1,8.45.09,4.21,4.21,0,0,1,1.58,3.54l0,.07h-3.13a2.35,2.35,0,0,0-.73-1.85,3,3,0,0,0-2.05-.65,2.7,2.7,0,0,0-1.84.57,1.87,1.87,0,0,0-.65,1.47,1.61,1.61,0,0,0,.7,1.35,9.45,9.45,0,0,0,2.45,1.11,10.5,10.5,0,0,1,4,2,4,4,0,0,1,1.39,3.19,3.83,3.83,0,0,1-1.61,3.26,7.06,7.06,0,0,1-4.27,1.19,7.66,7.66,0,0,1-4.46-1.29,4.26,4.26,0,0,1-1.8-3.86l0-.06h3.13a2.53,2.53,0,0,0,.84,2.1,3.59,3.59,0,0,0,2.27.67,3.13,3.13,0,0,0,2-.54A1.77,1.77,0,0,0,178,202.51Z"/><path class="cls-3" d="M194.79,193.1h-4.6v13.61H187V193.1h-4.53v-2.48h12.36Z"/><path class="cls-3" d="M200,206.71h-3.22V190.62H200Z"/><path class="cls-3" d="M216.21,206.71H213l-6.49-10.85h-.06v10.84H203.2V190.62h3.23l6.48,10.84H213V190.62h3.23Z"/><path class="cls-3" d="M231.5,204.51a6.06,6.06,0,0,1-2.24,1.71,8.91,8.91,0,0,1-3.85.72,6.52,6.52,0,0,1-4.77-1.83,6.41,6.41,0,0,1-1.86-4.77V197a6.5,6.5,0,0,1,1.8-4.75,6.19,6.19,0,0,1,4.63-1.84,6.57,6.57,0,0,1,4.52,1.39,4.62,4.62,0,0,1,1.52,3.73l0,.07h-3a2.64,2.64,0,0,0-.74-2,3,3,0,0,0-2.16-.72A2.89,2.89,0,0,0,222.9,194,4.6,4.6,0,0,0,222,197v3.38a4.6,4.6,0,0,0,.93,3,3,3,0,0,0,2.48,1.15,5.56,5.56,0,0,0,1.82-.24,2.71,2.71,0,0,0,1-.58v-3.12h-3.09V198.3h6.33Z"/></g></g></svg>