<svg xmlns="http://www.w3.org/2000/svg" viewBox="0 0 800 196.49"><defs><style>.cls-1{opacity:0.8;}.cls-2{fill:#fff;}.cls-3{fill:none;}</style></defs><title>wordpress</title><g id="Layer_2" data-name="Layer 2"><g id="Layer_1-2" data-name="Layer 1"><g class="cls-1"><path class="cls-2" d="M379.23,112.37c.22,4.72.21,9.49.76,14.2.51,4.42,2.74,6.15,7.2,6.52l3.53.27v3.11H355.9v-3.05c1.77-.18,3.5-.23,5.16-.57,3.82-.78,5.64-3.13,5.88-7.91.25-5.07.31-10.16.31-15.24,0-6.41,0-12.83-.25-19.23-.26-6.93-2.17-8.77-9-9.3-.69-.06-1.37-.17-2.11-.26-.05-.51-.13-.89-.13-1.26,0-.54.06-1.08.11-1.8.82,0,1.58-.1,2.34-.1,9.31,0,18.61,0,27.92,0,4.95,0,9.84.53,14.41,2.63,5.91,2.72,9.75,7,10,13.77.29,7-3.22,11.73-9.18,14.81a68.3,68.3,0,0,1-7,2.71s-.06.18,0,.25c4.9,5.15,9.62,10.5,14.8,15.35,4.59,4.3,10.15,6.64,16.71,5.81,4.06-.5,6.11-2.14,6.84-6.15a34,34,0,0,0,.55-6.05q0-15-.09-30a19.4,19.4,0,0,0-.46-3.71c-.77-3.68-2.64-5.37-6.37-5.81-1.39-.16-2.79-.21-4.32-.33V77.91a6,6,0,0,1,1-.15c12.36.12,24.73-.09,37.06.5,9.12.44,17.4,3.65,23.58,10.91,9.88,11.6,9.61,38.13-14.43,45.08a65.06,65.06,0,0,1-16.63,2.27c-16.11.29-32.22.08-48.33.14A4,4,0,0,1,400.7,135c-5.61-7.13-11.33-14.17-16.92-21.31C382.66,112.22,381.53,111.58,379.23,112.37Zm66.24-29.49c0,4.63,0,8.76,0,12.88,0,9.92,0,19.83.21,29.75.07,3.94,1.79,5.48,5.67,5.63,1.64.06,3.29.05,4.92,0,9.88-.59,16.36-5.88,18.53-15.23a37.83,37.83,0,0,0,0-17.64c-2-8.24-7.05-13.52-15.62-14.66C454.82,83,450.35,83.1,445.47,82.88Zm-65.88.39v23.09a87.63,87.63,0,0,0,9.47-.06c5.51-.61,8.87-4.92,9.05-11,.17-6.3-3.13-11.15-8.63-11.91C386.29,82.91,383,83.27,379.59,83.27Z"/><path class="cls-2" d="M664,92.62h3v26h-3c-.14-1.39-.27-2.84-.43-4.29-.34-3.1-1.65-4.79-4.71-5.27s-6.47-.61-10.24-.93c.3,6,.35,11.55.92,17,.38,3.61,2.2,5.45,5.84,5.62a116.76,116.76,0,0,0,15.87-.38c4.76-.42,6.38-4.16,7.35-8.27.51-2.15.59-2.13,3.14-2-.34,5.4-.69,10.81-1,16.49H678q-33.78,0-67.56,0a4.25,4.25,0,0,1-3.74-1.79c-5.59-7.13-11.31-14.17-16.91-21.31-1.13-1.43-2.31-2-4.6-1.17.34,5,.43,10.26,1.12,15.39.45,3.33,2.76,4.86,6.31,5.25,1.32.15,2.64.21,4.1.32v3.15H562v-3.13l3.22-.26c5.06-.39,7.38-2.52,7.72-7.63s.4-10,.4-15c0-6.8,0-13.61-.31-20.4s-2.2-8.4-8.89-8.91c-.69,0-1.38-.15-2.2-.24V77.74h2.26c9.39,0,18.77,0,28.16,0,4.87,0,9.67.54,14.18,2.59,6.11,2.78,10,7.22,10.11,14.2s-3.56,11.62-9.55,14.59a72,72,0,0,1-7,2.6c5.87,6,10.82,12.84,17.8,17.62,3.31,2.28,6.93,4,11.12,3.7s6.57-2.32,7.24-6.57a33.7,33.7,0,0,0,.46-4.9c0-9.62.06-19.24,0-28.86a28.42,28.42,0,0,0-.65-5.81c-.77-3.56-2.68-5.17-6.31-5.59-1.38-.16-2.78-.22-4.11-.32-.73-3.08-.6-3.27,2.31-3.27h49.17c.43,5.5.85,10.9,1.27,16.35-1.82.59-2.76.4-3.29-1.66-1.88-7.26-4.15-9-11.68-9.24-4.46-.13-8.92-.08-13.37-.1a7.08,7.08,0,0,0-1,.15v20c3.75-.45,7.38-.7,10.93-1.39,2.31-.45,3.33-2.43,3.58-4.71C663.72,95.66,663.82,94.2,664,92.62ZM585.65,83.3v23.18c.75.06,1.36.16,2,.15,2.49-.07,5,0,7.47-.3,5.56-.7,9-5,9.18-11.19.2-6-3.18-11-8.54-11.75C592.46,82.91,589.08,83.3,585.65,83.3Z"/><path class="cls-2" d="M177.09,63.38v-3h39v3c-1.88.21-3.74.32-5.57.63-4.1.69-5.77,3-5.23,7.11a23.37,23.37,0,0,0,.52,2.75c.32,1.29.69,2.56,1.1,3.82,3.8,11.56,7.6,23.12,11.6,35.27.48-1.17.79-1.83,1-2.52q8.06-24,16.1-47.94c.42-1.24.62-2.43,2.53-2.43s2,1.33,2.44,2.53Q248.4,86.27,256.19,110c.29.87.65,1.72,1.15,3.05,2.72-8.07,5.33-15.65,7.83-23.26,2-6,4.06-12,5.68-18.07,1.24-4.67-.75-7.11-5.54-7.75-1.62-.21-3.25-.35-5.05-.54V60.31H293v3.06c-1.5.16-3.11.37-4.71.52-4.22.38-7.51,2.35-9.35,6.15a95.14,95.14,0,0,0-4.5,11c-6.34,18.79-12.56,37.61-18.86,56.41-.24.74-.68,1.73-1.29,2-1.53.61-1.91-.67-2.29-1.83q-6.57-20.27-13.17-40.52A124.34,124.34,0,0,0,234.42,85c-.28.77-.56,1.55-.82,2.33q-8.29,25-16.62,50c-.29.85-1.21,1.5-1.83,2.24-.63-.72-1.56-1.35-1.84-2.19-6.53-19.87-13-39.77-19.46-59.65a61.24,61.24,0,0,0-2.49-6.31c-2.06-4.57-5.45-7.34-10.62-7.62C179.58,63.7,178.43,63.53,177.09,63.38Z"/><path class="cls-2" d="M10,98.29a79.5,79.5,0,1,1,79.57,79.45A79.61,79.61,0,0,1,10,98.29Zm4.79,0A74.75,74.75,0,1,0,89.62,23.51,74.62,74.62,0,0,0,14.79,98.28Z"/><path class="cls-2" d="M518.91,103.74c.51,7.59.69,14.91,1.61,22.14.59,4.62,3.62,6.57,8.91,7.08,1.16.12,2.33,0,3.72,0v3.47H493v-3.16c1.84-.21,3.67-.39,5.5-.62a8,8,0,0,0,7.26-6.89,42.88,42.88,0,0,0,1-8.13q.15-19.34,0-38.69a38,38,0,0,0-.78-7.21c-1.07-5.38-3.2-7.24-8.65-7.91-1.38-.17-2.78-.29-4.32-.45v-3a9.61,9.61,0,0,1,1.46-.19c12.82,0,25.64,0,38.46.16a28.79,28.79,0,0,1,15.71,4.77c13.13,8.72,11.78,27.75-2.45,35-5.5,2.82-11.43,3.56-17.5,3.63C525.68,103.77,522.65,103.74,518.91,103.74Zm.6-6.79c4.41,0,8.71.33,12.94-.08a11.55,11.55,0,0,0,10.53-9,26.08,26.08,0,0,0,.8-8.31c-.37-6.38-4.13-11.43-9.83-12.48-4.68-.87-9.55-.7-14.44-1Z"/><path class="cls-2" d="M317.91,138.91c-12-.4-21.59-4.27-28.85-13-9.52-11.4-9.32-26.7.32-38,13.16-15.41,38.81-16.68,53.44-2.65,14.36,13.77,12.75,35.14-3.52,46.63C332.89,136.46,324.61,139.06,317.91,138.91ZM339.44,107l.63-.15c-1.05-4.28-1.66-8.74-3.23-12.82-3-7.78-8.88-12.32-17.32-13-7.77-.66-14.32,1.79-19,8.33-6.78,9.5-6.79,25.89-.07,35.46,8.19,11.66,26.61,11.34,34.36-.63A30.68,30.68,0,0,0,339.44,107Z"/><path class="cls-2" d="M698.91,132.88a17.12,17.12,0,0,0-2,3.82c-.48,2.15-1.64,2.57-3.71,2V115c2.84-.84,3-.75,3.63,2.09,2.32,10.29,10.4,16.53,20.67,16,6.18-.34,10.47-5.08,8.8-10.26a12.2,12.2,0,0,0-4.2-5.66c-2.85-2.12-6.19-3.6-9.35-5.28-3.92-2.09-8.14-3.73-11.78-6.22-9.46-6.47-10.71-18.17-3-25a19.16,19.16,0,0,1,11.71-4.8c6.23-.41,9.47.5,16.1,4.39A17.47,17.47,0,0,0,727.44,77a1.82,1.82,0,0,1,2.61-1.46,2.55,2.55,0,0,1,1.18,2c.08,5.86,0,11.72,0,17.58a4.07,4.07,0,0,1-.18.87c-3.24.68-3.24.68-4-2.27-2.33-9.06-8.42-13.57-16.77-12.42-3.66.5-6.71,2.82-7.3,5.72-.72,3.56,1.06,6,3.84,7.9a42.62,42.62,0,0,0,4.85,2.83c4.46,2.24,9,4.3,13.43,6.63a27.18,27.18,0,0,1,5.93,4.11c7.4,7,7.36,17.22.07,24.29-7.09,6.87-18.66,8-28.08,2.73C701.76,134.78,700.54,133.92,698.91,132.88Z"/><path class="cls-2" d="M752.28,132.78l-2.87,6h-2.76V115c3-.73,3-.73,3.69,2.22,2.45,11.06,12.94,18.1,23,15.45,3.15-.82,5.58-2.56,6.46-5.8a7.69,7.69,0,0,0-2.86-8.59,63.93,63.93,0,0,0-8.71-5.41c-3.71-2-7.65-3.56-11.34-5.58-5.37-2.94-9.37-7.16-10.25-13.47-1.17-8.4,4.4-15.56,13.4-17.49A23,23,0,0,1,778.91,80c2.43-.83,1.1-6,5.57-4.3V96.18H781.8c-1.74-3.58-2.95-7.09-5-10-3.32-4.8-10.54-6.4-15.84-4.06-5.49,2.42-6.41,8.26-1.72,12a43,43,0,0,0,7,4.2c4.37,2.26,8.87,4.26,13.22,6.56,5.1,2.7,9,6.59,10.18,12.45A16.92,16.92,0,0,1,781.75,135c-9,5.6-18.06,5-26.94-.5C754.09,134,753.4,133.54,752.28,132.78Z"/><path class="cls-2" d="M49,67.26c2.43-.2,4.45-.31,6.45-.55,2.55-.31,3.79-1.45,3.5-3.2-.37-2.2-2-2.5-3.87-2.4-5.85.31-11.71.56-17.57.8-.91,0-1.83-.1-2.86-.17,20.62-33.45,70.11-40,99-12.55-5.88.48-9.54,3.59-11,9.17a13,13,0,0,0,1,8.92,58.7,58.7,0,0,0,4.11,7.61,35.88,35.88,0,0,1,4.65,31.77c-3.15,10.37-6.33,20.73-9.71,31.8L98.78,67.4c1.3-.17,2.41-.34,3.52-.47,1.39-.16,2.94,0,4.14-.55a4.24,4.24,0,0,0,2.18-2.77c.17-1.52-1-2.58-2.73-2.5-2.57.12-5.15.45-7.72.44-8.2,0-16.4-.22-24.6-.34-1.09,0-2.33-.4-3.24,0A4.48,4.48,0,0,0,68,63.58a2.15,2.15,0,0,0,2,2.87c1.93.3,3.9.32,5.81.71a3,3,0,0,1,2,1.51c3.19,8.47,6.28,17,9.34,25.5a4.08,4.08,0,0,1,.06,2.47q-6.76,20.55-13.66,41.08c0,.13-.2.23-.55.62Z"/><path class="cls-2" d="M90.69,104.14l20.56,56.33c-9,4.36-27,5.61-40.35,1.22C77.43,142.72,84,123.75,90.69,104.14Z"/><path class="cls-2" d="M60.47,157.62c-32.95-16-45.39-55.17-31.41-86C39.58,100.4,50,128.8,60.47,157.62Z"/><path class="cls-2" d="M123,155.16c4.53-13.11,8.91-25.79,13.31-38.47,2.68-7.74,5.54-15.42,8.07-23.21a78.48,78.48,0,0,0,3.16-12.69c.63-4.26.5-8.63.68-12.59C163.38,94.17,156.25,136.06,123,155.16Z"/></g><rect class="cls-3" width="800" height="196.49"/></g></g></svg>