<svg xmlns="http://www.w3.org/2000/svg" viewBox="0 0 800.47 202.14"><defs><style>.cls-1{opacity:0.8;}.cls-2{fill:#fff;}.cls-3{fill:none;}</style></defs><title>wordpress</title><g id="Layer_2" data-name="Layer 2"><g id="Layer_1-2" data-name="Layer 1"><g class="cls-1"><path class="cls-2" d="M379.46,115.19c.23,4.73.21,9.5.76,14.2.52,4.43,2.75,6.16,7.2,6.52l3.53.27v3.11H356.13v-3c1.78-.18,3.5-.22,5.17-.56,3.82-.79,5.64-3.14,5.87-7.92.25-5.07.32-10.16.32-15.24,0-6.41,0-12.82-.25-19.23-.26-6.93-2.17-8.76-9-9.3-.68-.06-1.36-.17-2.11-.26-.05-.5-.12-.88-.12-1.26,0-.54.06-1.07.11-1.8.81,0,1.57-.1,2.33-.1,9.31,0,18.62,0,27.92,0,5,0,9.84.52,14.42,2.62,5.9,2.72,9.75,7,10,13.78.29,7-3.22,11.73-9.18,14.8a64.17,64.17,0,0,1-7,2.71s-.06.18,0,.25c4.91,5.15,9.62,10.5,14.8,15.36,4.59,4.29,10.16,6.63,16.72,5.81,4-.51,6.11-2.15,6.84-6.15a34.22,34.22,0,0,0,.54-6.06c0-10,0-20-.08-30a18.65,18.65,0,0,0-.47-3.71c-.77-3.68-2.63-5.37-6.36-5.8-1.39-.16-2.8-.22-4.32-.33V80.74a5.83,5.83,0,0,1,1-.16c12.35.13,24.72-.09,37,.51,9.13.43,17.4,3.64,23.59,10.91,9.87,11.6,9.61,38.12-14.43,45.07a64.68,64.68,0,0,1-16.63,2.27c-16.11.29-32.22.08-48.33.14a4,4,0,0,1-3.54-1.71c-5.62-7.12-11.33-14.17-16.93-21.3C382.9,115.05,381.76,114.41,379.46,115.19ZM445.71,85.7c0,4.63,0,8.76,0,12.88.05,9.92.05,19.84.22,29.75.06,3.94,1.78,5.49,5.67,5.63,1.64.06,3.28,0,4.92-.05,9.88-.59,16.35-5.88,18.52-15.23A37.83,37.83,0,0,0,475,101c-2-8.24-7-13.52-15.61-14.66C455.05,85.8,450.58,85.92,445.71,85.7Zm-65.88.39v23.09a87.64,87.64,0,0,0,9.47-.06c5.5-.61,8.87-4.92,9-11,.18-6.29-3.13-11.15-8.62-11.91C386.52,85.73,383.21,86.09,379.83,86.09Z"/><path class="cls-2" d="M664.19,95.44h3v26h-3c-.14-1.39-.27-2.84-.43-4.28-.34-3.11-1.64-4.8-4.71-5.28s-6.46-.6-10.23-.93c.29,6,.35,11.56.92,17,.37,3.61,2.19,5.46,5.84,5.63a118.48,118.48,0,0,0,15.87-.38c4.76-.42,6.38-4.17,7.35-8.28.51-2.15.59-2.13,3.14-2-.35,5.41-.69,10.82-1.06,16.49h-2.68q-33.78,0-67.57,0a4.2,4.2,0,0,1-3.73-1.79c-5.6-7.13-11.32-14.17-16.91-21.3-1.13-1.44-2.32-2-4.6-1.18.33,5,.42,10.26,1.11,15.39.45,3.33,2.77,4.86,6.32,5.26,1.31.14,2.64.21,4.1.32v3.14H562.25v-3.13l3.21-.26c5.07-.39,7.39-2.52,7.73-7.63s.4-10,.4-15c0-6.8,0-13.61-.32-20.39s-2.2-8.41-8.89-8.92c-.69,0-1.38-.15-2.2-.24V80.56h2.27c9.38,0,18.77,0,28.15,0,4.87,0,9.68.54,14.19,2.59,6.1,2.78,10,7.22,10.11,14.2S613.33,109,607.34,112a71.05,71.05,0,0,1-7,2.59c5.87,6,10.83,12.84,17.8,17.63,3.32,2.27,6.93,4,11.13,3.7s6.57-2.33,7.24-6.58a32.35,32.35,0,0,0,.45-4.9q.07-14.43,0-28.86a27.58,27.58,0,0,0-.66-5.8c-.77-3.56-2.68-5.17-6.3-5.6-1.39-.16-2.78-.22-4.11-.32-.74-3.08-.6-3.26,2.3-3.26h49.17c.43,5.51.85,10.9,1.28,16.35-1.82.6-2.76.4-3.3-1.66-1.87-7.26-4.15-9-11.68-9.23-4.45-.14-8.91-.09-13.37-.11a9.12,9.12,0,0,0-1,.15v20c3.75-.46,7.39-.71,10.94-1.4,2.31-.45,3.33-2.42,3.58-4.7C664,98.49,664.06,97,664.19,95.44Zm-78.3-9.32V109.3a18.6,18.6,0,0,0,2,.15,74.39,74.39,0,0,0,7.47-.3c5.56-.7,9-5,9.18-11.19.19-6-3.18-11-8.55-11.75C592.7,85.73,589.32,86.12,585.89,86.12Z"/><path class="cls-2" d="M177.33,66.21v-3h39v3c-1.88.21-3.74.32-5.57.63-4.1.69-5.77,3-5.24,7.11A26.28,26.28,0,0,0,206,76.7c.33,1.28.7,2.56,1.11,3.82,3.79,11.56,7.6,23.11,11.6,35.26.47-1.17.79-1.83,1-2.52q8.06-24,16.1-47.93c.41-1.25.61-2.44,2.52-2.44s2,1.33,2.45,2.53q7.81,23.68,15.6,47.36c.29.87.65,1.72,1.16,3,2.72-8.06,5.32-15.64,7.83-23.25,2-6,4.06-12,5.68-18.08,1.24-4.67-.75-7.11-5.54-7.74-1.63-.22-3.26-.35-5.05-.54V63.14h32.78v3c-1.51.17-3.11.37-4.72.52-4.21.39-7.5,2.36-9.34,6.15a95.2,95.2,0,0,0-4.51,11c-6.34,18.79-12.56,37.62-18.85,56.42-.25.73-.69,1.72-1.29,2-1.53.61-1.91-.67-2.29-1.83q-6.57-20.26-13.18-40.52a121.69,121.69,0,0,0-4.44-12.12c-.28.78-.57,1.55-.83,2.33q-8.28,25-16.62,50c-.28.86-1.2,1.5-1.82,2.25-.63-.73-1.57-1.36-1.84-2.2-6.53-19.87-13-39.77-19.47-59.65a62.08,62.08,0,0,0-2.48-6.31c-2.06-4.57-5.46-7.33-10.62-7.62C179.82,66.52,178.67,66.35,177.33,66.21Z"/><path class="cls-2" d="M10.24,101.11c-.07-43.79,35.53-79.41,79.5-79.53a79.49,79.49,0,1,1-79.5,79.53Zm4.79,0A74.75,74.75,0,1,0,89.86,26.33,74.61,74.61,0,0,0,15,101.1Z"/><path class="cls-2" d="M519.14,106.57c.52,7.58.7,14.91,1.62,22.14.59,4.61,3.62,6.56,8.9,7.08,1.16.11,2.34,0,3.72,0v3.47H493.27v-3.16c1.83-.2,3.67-.38,5.49-.62,4.09-.53,6.48-3,7.27-6.89a42.88,42.88,0,0,0,1-8.12c.1-12.9.08-25.8,0-38.7a38.9,38.9,0,0,0-.78-7.21c-1.08-5.37-3.21-7.23-8.65-7.91-1.39-.17-2.78-.29-4.32-.44v-3a11.15,11.15,0,0,1,1.45-.19c12.83,0,25.65,0,38.47.16a28.75,28.75,0,0,1,15.71,4.78c13.13,8.72,11.78,27.74-2.45,35-5.5,2.81-11.44,3.55-17.5,3.62C525.91,106.6,522.88,106.57,519.14,106.57Zm.6-6.8c4.42,0,8.72.34,12.94-.08a11.56,11.56,0,0,0,10.54-9,26.11,26.11,0,0,0,.8-8.31c-.38-6.39-4.13-11.44-9.83-12.49-4.68-.87-9.56-.7-14.45-1Z"/><path class="cls-2" d="M318.14,141.73c-12-.39-21.58-4.26-28.85-13-9.51-11.4-9.31-26.71.33-38,13.16-15.4,38.8-16.68,53.44-2.65,14.36,13.77,12.74,35.14-3.52,46.63C333.12,139.28,324.85,141.88,318.14,141.73Zm21.54-31.88.62-.15c-1-4.29-1.65-8.74-3.22-12.83-3-7.78-8.89-12.32-17.32-13-7.78-.66-14.32,1.8-19,8.33-6.78,9.5-6.79,25.89-.07,35.46,8.18,11.66,26.6,11.34,34.35-.62A30.63,30.63,0,0,0,339.68,109.85Z"/><path class="cls-2" d="M699.14,135.7a17.55,17.55,0,0,0-1.95,3.83c-.49,2.15-1.65,2.57-3.72,2V117.81c2.84-.84,3-.75,3.64,2.1,2.31,10.28,10.4,16.52,20.66,16,6.19-.34,10.47-5.07,8.81-10.26a12.28,12.28,0,0,0-4.21-5.66c-2.85-2.12-6.18-3.6-9.34-5.28-3.93-2.09-8.14-3.73-11.78-6.22-9.46-6.46-10.72-18.17-3-25A19.1,19.1,0,0,1,710,78.63c6.22-.41,9.47.5,16.1,4.39a17.82,17.82,0,0,0,1.56-3.2,1.84,1.84,0,0,1,2.62-1.46,2.56,2.56,0,0,1,1.17,2c.09,5.86,0,11.73,0,17.59a4,4,0,0,1-.17.86c-3.24.69-3.24.69-4-2.27-2.33-9-8.43-13.57-16.78-12.42-3.65.5-6.71,2.82-7.29,5.73-.72,3.55,1.06,6,3.83,7.89a43.5,43.5,0,0,0,4.85,2.83c4.47,2.24,9,4.3,13.44,6.64a27.31,27.31,0,0,1,5.93,4.11c7.39,7,7.36,17.21.07,24.28-7.09,6.87-18.66,8-28.08,2.73C702,137.6,700.78,136.74,699.14,135.7Z"/><path class="cls-2" d="M752.52,135.61l-2.88,6h-2.75V117.77c3-.73,3-.73,3.69,2.23,2.45,11.05,12.94,18.09,23,15.45,3.15-.83,5.58-2.57,6.46-5.81a7.69,7.69,0,0,0-2.86-8.59,66.08,66.08,0,0,0-8.72-5.41c-3.71-2-7.65-3.56-11.34-5.58-5.36-2.94-9.37-7.16-10.24-13.47-1.17-8.4,4.4-15.56,13.4-17.48a23,23,0,0,1,18.84,3.75c2.43-.84,1.1-6,5.57-4.31V99H782c-1.74-3.58-2.95-7.09-5-10-3.31-4.8-10.53-6.39-15.84-4.06-5.48,2.42-6.41,8.26-1.72,12a42.71,42.71,0,0,0,7,4.21c4.37,2.25,8.87,4.25,13.21,6.55,5.11,2.7,9,6.6,10.19,12.45A16.91,16.91,0,0,1,782,137.81c-9,5.6-18.05,5-26.93-.5C754.33,136.86,753.64,136.36,752.52,135.61Z"/><path class="cls-2" d="M49.24,70.08c2.44-.2,4.46-.31,6.46-.55,2.54-.31,3.78-1.45,3.49-3.19-.36-2.21-1.95-2.51-3.86-2.41-5.86.31-11.71.56-17.57.8-.92,0-1.84-.1-2.86-.16,20.62-33.46,70.1-40,99-12.56-5.88.48-9.54,3.59-11,9.18a13,13,0,0,0,1,8.91A58.77,58.77,0,0,0,128,77.71a35.94,35.94,0,0,1,4.65,31.77c-3.16,10.37-6.33,20.73-9.72,31.8L99,70.22c1.3-.17,2.4-.34,3.51-.47,1.4-.16,3,0,4.15-.54a4.22,4.22,0,0,0,2.17-2.78c.17-1.52-1-2.57-2.72-2.49-2.58.11-5.15.44-7.72.43-8.2-.05-16.4-.22-24.6-.34-1.1,0-2.33-.39-3.25,0a4.5,4.5,0,0,0-2.35,2.37,2.17,2.17,0,0,0,2,2.88c1.93.29,3.9.32,5.81.71a3,3,0,0,1,2,1.51Q82.71,84.21,87.27,97a4.09,4.09,0,0,1,.07,2.47Q80.56,120,73.67,140.55c0,.13-.19.22-.54.62Z"/><path class="cls-2" d="M90.93,107c7,19.17,13.78,37.76,20.56,56.33-9,4.36-27,5.61-40.35,1.23C77.66,145.54,84.19,126.57,90.93,107Z"/><path class="cls-2" d="M60.7,160.44c-32.94-16-45.39-55.16-31.4-86Z"/><path class="cls-2" d="M123.26,158c4.54-13.12,8.91-25.8,13.31-38.48,2.69-7.73,5.54-15.42,8.08-23.2a78.57,78.57,0,0,0,3.15-12.7c.64-4.26.5-8.63.69-12.59C163.62,97,156.48,138.88,123.26,158Z"/></g><rect class="cls-3" width="800.47" height="202.14"/></g></g></svg>