<svg xmlns="http://www.w3.org/2000/svg" viewBox="0 0 400 400"><defs><style>.cls-1{fill:#f79449;}.cls-2{fill:#37444f;}.cls-3{opacity:0.5;}.cls-4,.cls-6{fill:#fff;}.cls-5{fill:#009444;}.cls-6{fill-rule:evenodd;}.cls-7{fill:none;stroke:#fff;stroke-miterlimit:10;stroke-width:4.37px;}</style></defs><title>wp-optimised</title><g id="Layer_2" data-name="Layer 2"><g id="Layer_1-2" data-name="Layer 1"><circle class="cls-1" cx="200" cy="200" r="186.07"/><path class="cls-2" d="M200,27.85A172.15,172.15,0,0,1,321.73,321.73,172.15,172.15,0,0,1,78.27,78.27,171.06,171.06,0,0,1,200,27.85M200,0C89.54,0,0,89.54,0,200S89.54,400,200,400s200-89.54,200-200S310.46,0,200,0Z"/><g class="cls-3"><path class="cls-4" d="M49.4,200.08c-.13-83,67.32-150.43,150.6-150.67C283,49.17,350.6,116.8,350.6,200A150.46,150.46,0,0,1,200.13,350.59C117.12,350.74,49.52,283.23,49.4,200.08Zm9.07,0A141.61,141.61,0,1,0,200.24,58.42,141.36,141.36,0,0,0,58.47,200.06Z"/><path class="cls-4" d="M123.29,141.3c4.61-.38,8.44-.59,12.23-1.05,4.82-.58,7.17-2.74,6.62-6.05-.69-4.18-3.7-4.74-7.33-4.55-11.08.58-22.18,1.06-33.27,1.51-1.74.07-3.48-.19-5.43-.31,39.07-63.38,132.81-75.71,187.5-23.78-11.15.91-18.07,6.79-20.83,17.38a24.69,24.69,0,0,0,1.88,16.88,109.41,109.41,0,0,0,7.79,14.42q18.63,28.09,8.81,60.19c-6,19.64-12,39.27-18.41,60.24l-25.2-75c-6.69-19.88-13.35-39.7-20.06-59.65,2.45-.33,4.55-.65,6.65-.89,2.65-.31,5.58,0,7.85-1,1.86-.88,3.91-3.32,4.13-5.26.32-2.88-1.93-4.87-5.17-4.73-4.88.22-9.75.86-14.63.83-15.53-.1-31.06-.41-46.59-.65-2.08,0-4.41-.74-6.15,0a8.49,8.49,0,0,0-4.45,4.49c-.87,2.66.68,5,3.72,5.45,3.65.56,7.39.61,11,1.35a5.67,5.67,0,0,1,3.7,2.86q9.06,24.08,17.69,48.3a7.69,7.69,0,0,1,.12,4.67q-12.83,39-25.89,77.84c-.08.25-.37.43-1,1.17C153.46,231.09,138.49,186.55,123.29,141.3Z"/><path class="cls-4" d="M202.26,211.17,217,251.65c8.13,22.26,16.15,44.25,24.18,66.23-17.1,8.26-51.09,10.62-76.44,2.32C177.13,284.25,189.49,248.32,202.26,211.17Z"/><path class="cls-4" d="M145,312.47c-62.41-30.33-86-104.5-59.49-163C105.43,204.08,125.07,257.89,145,312.47Z"/><path class="cls-4" d="M263.52,307.83C272.11,283,280.39,259,288.73,235c5.09-14.66,10.49-29.22,15.3-44a149.35,149.35,0,0,0,6-24c1.2-8.07.95-16.35,1.31-23.85C340,192.28,326.44,271.64,263.52,307.83Z"/></g><rect class="cls-5" x="251.57" y="261.63" width="138.37" height="138.37" rx="19.58"/><g id="Fire" class="cls-3"><path class="cls-6" d="M283.58,363.53c3.23-3.23,6.47-6.45,9.69-9.7,1.41-1.43,3-2.14,4.8-.33s1,3.43-.39,4.82l-19.57,19.57c-1.45,1.45-3.12,1.94-4.83.1s-.95-3.25.41-4.58C277,370.14,280.29,366.82,283.58,363.53Z"/><path class="cls-6" d="M302.43,372c-1.72,1.72-3.4,3.46-5.16,5.14a2.71,2.71,0,0,1-4.16-.07c-1.44-1.38-1.55-2.93-.34-4.18,3.44-3.55,6.94-7.06,10.51-10.48a2.53,2.53,0,0,1,4.09.52,4.27,4.27,0,0,1,.1,3.84A42.85,42.85,0,0,1,302.43,372Z"/><path class="cls-6" d="M279.67,349c1.65-1.65,3.28-3.32,5-4.95,1.28-1.24,2.77-1.21,4.17.13s1.49,2.94.28,4.19q-5.06,5.22-10.29,10.29c-1.34,1.3-3,1.25-4.4-.36a2.71,2.71,0,0,1,.14-4.15C276.23,352.45,278,350.74,279.67,349Z"/></g><g class="cls-3"><path id="Window" class="cls-7" d="M342.62,326.64a12.59,12.59,0,1,0-17.81,0A12.6,12.6,0,0,0,342.62,326.64Z"/><path id="Rocket" class="cls-6" d="M348.59,343.59c.35-1.2,2.67-4.09,6.67-7.65,16.28-14.51,21.48-32.65,16.91-53.79a3.32,3.32,0,0,0-2.83-2.75,54.07,54.07,0,0,0-40.47,5.72c-7.33,4.11-12.7,10.27-18,16.55a4.44,4.44,0,0,1-2.82,1.38c-16.74,1-29.83,8.27-39,22.36-2.09,3.2-1.65,4.76,2.13,5.74,1.38.36,16.89,4.69,16.89,4.69l.09.08-.09-.08,27.41,27.4h0s3.94,13.12,5.08,17.53c.88,3.35,2.43,3.89,5.31,2.06C338.37,374.87,346.28,358.23,348.59,343.59Zm.65-60a45.31,45.31,0,0,1,16.54.52,2.69,2.69,0,0,1,1.72,1.62,47.14,47.14,0,0,1-.24,20.94c0,.19-.23.34-.33.48l-22.61-22.61C346,284.16,347.63,283.78,349.24,283.54Zm-63.17,45.68c-3.73-.82-7.42-1.81-11.17-2.75,4.46-7.75,16.34-16.52,29.74-17.75-.37.54-.62,1-.94,1.36-5.24,6.11-10.47,12.23-15.75,18.3A2.43,2.43,0,0,1,286.07,329.22Zm66.62,2.09L319.38,360l-27.71-27.72c2.85-3.34,5.78-6.79,8.73-10.22q10-11.61,20-23.2a44.8,44.8,0,0,1,16.78-11.88,2.61,2.61,0,0,1,2.31.47c8.28,8.17,16.48,16.42,24.74,24.61a2,2,0,0,1,.5,2.58A46.94,46.94,0,0,1,352.69,331.31ZM325.2,377c-1-4.07-2-7.76-2.85-11.49a2,2,0,0,1,.56-1.59q9.68-8.4,19.43-16.71c.1-.08.27-.08.6-.16C341.29,359.52,335.47,369.35,325.2,377Z"/></g></g></g></svg>